999
dxfrw 0.6.3
  0
SECTION
  2
HEADER
  9
$ACADVER
  1
AC1021
  9
$DWGCODEPAGE
  3
ANSI_1252
  9
$INSBASE
 10
0
 20
0
 30
0
  9
$EXTMIN
 10
10000000000
 20
10000000000
 30
0
  9
$EXTMAX
 10
-10000000000
 20
-10000000000
 30
0
  9
$LIMMIN
 10
0
 20
0
  9
$LIMMAX
 10
420
 20
297
  9
$ORTHOMODE
 70
    0
  9
$REGENMODE
 70
    1
  9
$FILLMODE
 70
    1
  9
$QTEXTMODE
 70
    0
  9
$MIRRTEXT
 70
    0
  9
$LTSCALE
 40
1
  9
$ATTMODE
 70
    0
  9
$TEXTSIZE
 40
2.5
  9
$TRACEWID
 40
15.68
  9
$TEXTSTYLE
  7
STANDARD
  9
$CLAYER
  8
0
  9
$CELTYPE
  6
BYLAYER
  9
$CECOLOR
 62
  256
  9
$CELTSCALE
 40
1
  9
$DISPSILH
 70
    0
  9
$DIMSCALE
 40
1
  9
$DIMASZ
 40
2.5
  9
$DIMEXO
 40
0.625
  9
$DIMDLI
 40
3.75
  9
$DIMRND
 40
0
  9
$DIMDLE
 40
0
  9
$DIMEXE
 40
1.25
  9
$DIMTP
 40
0
  9
$DIMTM
 40
0
  9
$DIMTXT
 40
2.5
  9
$DIMCEN
 40
2.5
  9
$DIMTSZ
 40
0
  9
$DIMTOL
 70
    0
  9
$DIMLIM
 70
    0
  9
$DIMTIH
 70
    0
  9
$DIMTOH
 70
    0
  9
$DIMSE1
 70
    0
  9
$DIMSE2
 70
    0
  9
$DIMTAD
 70
    1
  9
$DIMZIN
 70
    1
  9
$DIMBLK
  1

  9
$DIMASO
 70
    1
  9
$DIMSHO
 70
    1
  9
$DIMPOST
  1

  9
$DIMAPOST
  1

  9
$DIMALT
 70
    0
  9
$DIMALTD
 70
    3
  9
$DIMALTF
 40
0.03937
  9
$DIMLFAC
 40
1
  9
$DIMTOFL
 70
    1
  9
$DIMTVP
 40
0
  9
$DIMTIX
 70
    0
  9
$DIMSOXD
 70
    0
  9
$DIMSAH
 70
    0
  9
$DIMBLK1
  1

  9
$DIMBLK2
  1

  9
$DIMSTYLE
  2
STANDARD
  9
$DIMCLRD
 70
    0
  9
$DIMCLRE
 70
    0
  9
$DIMCLRT
 70
    0
  9
$DIMTFAC
 40
1
  9
$DIMGAP
 40
0.625
  9
$DIMJUST
 70
    0
  9
$DIMSD1
 70
    0
  9
$DIMSD2
 70
    0
  9
$DIMTOLJ
 70
    0
  9
$DIMTZIN
 70
    8
  9
$DIMALTZ
 70
    0
  9
$DIMALTTZ
 70
    0
  9
$DIMUPT
 70
    0
  9
$DIMDEC
 70
    2
  9
$DIMTDEC
 70
    2
  9
$DIMALTU
 70
    2
  9
$DIMALTTD
 70
    3
  9
$DIMTXSTY
  7
standard
  9
$DIMAUNIT
 70
    0
  9
$DIMADEC
 70
    2
  9
$DIMALTRND
 40
0
  9
$DIMAZIN
 70
    0
  9
$DIMDSEP
 70
    0
  9
$DIMATFIT
 70
    3
  9
$DIMFRAC
 70
    0
  9
$DIMLDRBLK
  1
STANDARD
  9
$DIMLUNIT
 70
    2
  9
$DIMLWD
 70
   -2
  9
$DIMLWE
 70
   -2
  9
$DIMTMOVE
 70
    0
  9
$DIMFXL
 40
1
  9
$DIMFXLON
 70
    0
  9
$DIMJOGANG
 40
0.7854
  9
$DIMTFILL
 70
    0
  9
$DIMTFILLCLR
 70
    0
  9
$DIMARCSYM
 70
    0
  9
$DIMLTYPE
  6

  9
$DIMLTEX1
  6

  9
$DIMLTEX2
  6

  9
$LUNITS
 70
    2
  9
$LUPREC
 70
    2
  9
$SKETCHINC
 40
1
  9
$FILLETRAD
 40
0
  9
$AUNITS
 70
    0
  9
$AUPREC
 70
    2
  9
$MENU
  1
.
  9
$ELEVATION
 40
0
  9
$PELEVATION
 40
0
  9
$THICKNESS
 40
0
  9
$LIMCHECK
 70
    0
  9
$CHAMFERA
 40
0
  9
$CHAMFERB
 40
0
  9
$CHAMFERC
 40
0
  9
$CHAMFERD
 40
0
  9
$SKPOLY
 70
    0
  9
$USRTIMER
 70
    1
  9
$ANGBASE
 50
0
  9
$ANGDIR
 70
    0
  9
$PDMODE
 70
   34
  9
$PDSIZE
 40
0
  9
$PLINEWID
 40
0
  9
$SPLFRAME
 70
    0
  9
$SPLINETYPE
 70
    2
  9
$SPLINESEGS
 70
    8
  9
$HANDSEED
  5
20000
  9
$SURFTAB1
 70
    6
  9
$SURFTAB2
 70
    6
  9
$SURFTYPE
 70
    6
  9
$SURFU
 70
    6
  9
$SURFV
 70
    6
  9
$UCSBASE
  2

  9
$UCSNAME
  2

  9
$UCSORG
 10
0
 20
0
 30
0
  9
$UCSXDIR
 10
1
 20
0
 30
0
  9
$UCSYDIR
 10
0
 20
1
 30
0
  9
$UCSORTHOREF
  2

  9
$UCSORTHOVIEW
 70
    0
  9
$UCSORGTOP
 10
0
 20
0
 30
0
  9
$UCSORGBOTTOM
 10
0
 20
0
 30
0
  9
$UCSORGLEFT
 10
0
 20
0
 30
0
  9
$UCSORGRIGHT
 10
0
 20
0
 30
0
  9
$UCSORGFRONT
 10
0
 20
0
 30
0
  9
$UCSORGBACK
 10
0
 20
0
 30
0
  9
$PUCSBASE
  2

  9
$PUCSNAME
  2

  9
$PUCSORG
 10
0
 20
0
 30
0
  9
$PUCSXDIR
 10
1
 20
0
 30
0
  9
$PUCSYDIR
 10
0
 20
1
 30
0
  9
$PUCSORTHOREF
  2

  9
$PUCSORTHOVIEW
 70
    0
  9
$PUCSORGTOP
 10
0
 20
0
 30
0
  9
$PUCSORGBOTTOM
 10
0
 20
0
 30
0
  9
$PUCSORGLEFT
 10
0
 20
0
 30
0
  9
$PUCSORGRIGHT
 10
0
 20
0
 30
0
  9
$PUCSORGFRONT
 10
0
 20
0
 30
0
  9
$PUCSORGBACK
 10
0
 20
0
 30
0
  9
$USERI1
 70
    0
  9
$USERI2
 70
    0
  9
$USERI3
 70
    0
  9
$USERI4
 70
    0
  9
$USERI5
 70
    0
  9
$USERR1
 40
0
  9
$USERR2
 40
0
  9
$USERR3
 40
0
  9
$USERR4
 40
0
  9
$USERR5
 40
0
  9
$WORLDVIEW
 70
    1
  9
$SHADEDGE
 70
    3
  9
$SHADEDIF
 70
   70
  9
$TILEMODE
 70
    1
  9
$MAXACTVP
 70
   64
  9
$PINSBASE
 10
16.01302083333333
 20
14.42708333333333
 30
0
  9
$PLIMCHECK
 70
    0
  9
$PEXTMIN
 10
0
 20
0
 30
0
  9
$PEXTMAX
 10
0
 20
0
 30
0
  9
$GRIDMODE
 70
    1
  9
$SNAPSTYLE
 70
    0
  9
$GRIDUNIT
 10
0
 20
0
  9
$PLIMMIN
 10
0
 20
0
  9
$PLIMMAX
 10
297
 20
210
  9
$UNITMODE
 70
    0
  9
$VISRETAIN
 70
    1
  9
$PLINEGEN
 70
    0
  9
$PSLTSCALE
 70
    1
  9
$TREEDEPTH
 70
 3020
  9
$CMLSTYLE
  2
Standard
  9
$CMLJUST
 70
    0
  9
$CMLSCALE
 40
20
  9
$PROXYGRAPHICS
 70
    1
  9
$MEASUREMENT
 70
    1
  9
$CELWEIGHT
370
   -1
  9
$ENDCAPS
280
    0
  9
$JOINSTYLE
280
    0
  9
$LWDISPLAY
290
    0
  9
$INSUNITS
 70
    4
  9
$HYPERLINKBASE
  1

  9
$STYLESHEET
  1

  9
$XEDIT
290
    1
  9
$CEPSNTYPE
380
    0
  9
$PSTYLEMODE
290
    1
  9
$EXTNAMES
290
    1
  9
$PSVPSCALE
 40
0
  9
$OLESTARTUP
290
    0
  9
$SORTENTS
280
  127
  9
$INDEXCTL
280
    0
  9
$HIDETEXT
280
    1
  9
$XCLIPFRAME
290
    0
  9
$HALOGAP
280
    0
  9
$OBSCOLOR
 70
  257
  9
$OBSLTYPE
280
    0
  9
$INTERSECTIONDISPLAY
280
    0
  9
$INTERSECTIONCOLOR
 70
  257
  9
$DIMASSOC
280
    1
  9
$PROJECTNAME
  1

  9
$CAMERADISPLAY
290
    0
  9
$LENSLENGTH
 40
50
  9
$CAMERAHEIGHT
 40
0
  9
$STEPSPERSEC
 40
2
  9
$STEPSIZE
 40
50
  9
$3DDWFPREC
 40
2
  9
$PSOLWIDTH
 40
5
  9
$PSOLHEIGHT
 40
80
  9
$LOFTANG1
 40
1.570796326794897
  9
$LOFTANG2
 40
1.570796326794897
  9
$LOFTMAG1
 40
0
  9
$LOFTMAG2
 40
0
  9
$LOFTPARAM
 70
    7
  9
$LOFTNORMALS
280
    1
  9
$LATITUDE
 40
1
  9
$LONGITUDE
 40
1
  9
$NORTHDIRECTION
 40
0
  9
$TIMEZONE
 70
-8000
  9
$LIGHTGLYPHDISPLAY
280
    1
  9
$TILEMODELIGHTSYNCH
280
    1
  9
$SOLIDHIST
280
    1
  9
$SHOWHIST
280
    1
  9
$DWFFRAME
280
    2
  9
$DGNFRAME
280
    0
  9
$REALWORLDSCALE
290
    1
  9
$INTERFERECOLOR
 62
    1
  9
$CSHADOW
280
    0
  9
$SHADOWPLANELOCATION
 40
0
  0
ENDSEC
  0
SECTION
  2
CLASSES
  0
ENDSEC
  0
SECTION
  2
TABLES
  0
TABLE
  2
VPORT
  5
8
330
0
100
AcDbSymbolTable
 70
    1
  0
VPORT
  5
31
330
2
100
AcDbSymbolTableRecord
100
AcDbViewportTableRecord
  2
*ACTIVE
 70
    0
 10
0
 20
0
 11
1
 21
1
 12
677.7199096967254
 22
382.189588419137
 13
0
 23
0
 14
10
 24
10
 15
10
 25
10
 16
0
 26
0
 36
1
 17
0
 27
0
 37
0
 40
1191.009415073589
 41
1.925373134328358
 42
50
 43
0
 44
0
 50
0
 51
0
 71
    0
 72
  100
 73
    1
 74
    3
 75
    0
 76
    1
 77
    0
 78
    0
281
    0
 65
    1
110
0
120
0
130
0
111
1
121
0
131
0
112
0
122
1
132
0
 79
    0
146
0
348
10020
 60
    7
 61
    5
292
1
282
    1
141
0
142
0
 63
  250
421
3358443
  0
ENDTAB
  0
TABLE
  2
LTYPE
  5
5
330
0
100
AcDbSymbolTable
 70
    4
  0
LTYPE
  5
14
330
5
100
AcDbSymbolTableRecord
100
AcDbLinetypeTableRecord
  2
ByBlock
 70
    0
  3

 72
   65
 73
    0
 40
0
  0
LTYPE
  5
15
330
5
100
AcDbSymbolTableRecord
100
AcDbLinetypeTableRecord
  2
ByLayer
 70
    0
  3

 72
   65
 73
    0
 40
0
  0
LTYPE
  5
16
330
5
100
AcDbSymbolTableRecord
100
AcDbLinetypeTableRecord
  2
Continuous
 70
    0
  3
Solid line
 72
   65
 73
    0
 40
0
  0
LTYPE
  5
32
330
5
100
AcDbSymbolTableRecord
100
AcDbLinetypeTableRecord
  2
DOT
 70
    0
  3
Dot . . . . . . . . . . . . . . . . . . . . . .
 72
   65
 73
    2
 40
6.35
 49
0
 74
    0
 49
-6.35
 74
    0
  0
LTYPE
  5
33
330
5
100
AcDbSymbolTableRecord
100
AcDbLinetypeTableRecord
  2
DOTTINY
 70
    0
  3
Dot (.15x) .....................................
 72
   65
 73
    2
 40
0.9525
 49
0
 74
    0
 49
-0.9525
 74
    0
  0
LTYPE
  5
34
330
5
100
AcDbSymbolTableRecord
100
AcDbLinetypeTableRecord
  2
DOT2
 70
    0
  3
Dot (.5x) .....................................
 72
   65
 73
    2
 40
3.175
 49
0
 74
    0
 49
-3.175
 74
    0
  0
LTYPE
  5
35
330
5
100
AcDbSymbolTableRecord
100
AcDbLinetypeTableRecord
  2
DOTX2
 70
    0
  3
Dot (2x) .  .  .  .  .  .  .  .  .  .  .  .  .
 72
   65
 73
    2
 40
12.7
 49
0
 74
    0
 49
-12.7
 74
    0
  0
LTYPE
  5
36
330
5
100
AcDbSymbolTableRecord
100
AcDbLinetypeTableRecord
  2
DASHED
 70
    0
  3
Dashed _ _ _ _ _ _ _ _ _ _ _ _ _ _ _ _ _
 72
   65
 73
    2
 40
19.05
 49
12.7
 74
    0
 49
-6.35
 74
    0
  0
LTYPE
  5
37
330
5
100
AcDbSymbolTableRecord
100
AcDbLinetypeTableRecord
  2
DASHEDTINY
 70
    0
  3
Dashed (.15x) _ _ _ _ _ _ _ _ _ _ _ _ _ _ _ _ _
 72
   65
 73
    2
 40
2.8575
 49
1.905
 74
    0
 49
-0.9525
 74
    0
  0
LTYPE
  5
38
330
5
100
AcDbSymbolTableRecord
100
AcDbLinetypeTableRecord
  2
DASHED2
 70
    0
  3
Dashed (.5x) _ _ _ _ _ _ _ _ _ _ _ _ _ _ _ _ _
 72
   65
 73
    2
 40
9.524999999999999
 49
6.35
 74
    0
 49
-3.175
 74
    0
  0
LTYPE
  5
39
330
5
100
AcDbSymbolTableRecord
100
AcDbLinetypeTableRecord
  2
DASHEDX2
 70
    0
  3
Dashed (2x) ____  ____  ____  ____  ____  ___
 72
   65
 73
    2
 40
38.09999999999999
 49
25.4
 74
    0
 49
-12.7
 74
    0
  0
LTYPE
  5
3A
330
5
100
AcDbSymbolTableRecord
100
AcDbLinetypeTableRecord
  2
DASHDOT
 70
    0
  3
Dash dot __ . __ . __ . __ . __ . __ . __ . __
 72
   65
 73
    4
 40
25.4
 49
12.7
 74
    0
 49
-6.35
 74
    0
 49
0
 74
    0
 49
-6.35
 74
    0
  0
LTYPE
  5
3B
330
5
100
AcDbSymbolTableRecord
100
AcDbLinetypeTableRecord
  2
DASHDOTTINY
 70
    0
  3
Dash dot (.15x) _._._._._._._._._._._._._._._.
 72
   65
 73
    4
 40
3.81
 49
1.905
 74
    0
 49
-0.9525
 74
    0
 49
0
 74
    0
 49
-0.9525
 74
    0
  0
LTYPE
  5
3C
330
5
100
AcDbSymbolTableRecord
100
AcDbLinetypeTableRecord
  2
DASHDOT2
 70
    0
  3
Dash dot (.5x) _._._._._._._._._._._._._._._.
 72
   65
 73
    4
 40
12.7
 49
6.35
 74
    0
 49
-3.175
 74
    0
 49
0
 74
    0
 49
-3.175
 74
    0
  0
LTYPE
  5
3D
330
5
100
AcDbSymbolTableRecord
100
AcDbLinetypeTableRecord
  2
DASHDOTX2
 70
    0
  3
Dash dot (2x) ____  .  ____  .  ____  .  ___
 72
   65
 73
    4
 40
50.8
 49
25.4
 74
    0
 49
-12.7
 74
    0
 49
0
 74
    0
 49
-12.7
 74
    0
  0
LTYPE
  5
3E
330
5
100
AcDbSymbolTableRecord
100
AcDbLinetypeTableRecord
  2
DIVIDE
 70
    0
  3
Divide ____ . . ____ . . ____ . . ____ . . ____
 72
   65
 73
    6
 40
31.75
 49
12.7
 74
    0
 49
-6.35
 74
    0
 49
0
 74
    0
 49
-6.35
 74
    0
 49
0
 74
    0
 49
-6.35
 74
    0
  0
LTYPE
  5
3F
330
5
100
AcDbSymbolTableRecord
100
AcDbLinetypeTableRecord
  2
DIVIDETINY
 70
    0
  3
Divide (.15x) __..__..__..__..__..__..__..__.._
 72
   65
 73
    6
 40
4.7625
 49
1.905
 74
    0
 49
-0.9525
 74
    0
 49
0
 74
    0
 49
-0.9525
 74
    0
 49
0
 74
    0
 49
-0.9525
 74
    0
  0
LTYPE
  5
40
330
5
100
AcDbSymbolTableRecord
100
AcDbLinetypeTableRecord
  2
DIVIDE2
 70
    0
  3
Divide (.5x) __..__..__..__..__..__..__..__.._
 72
   65
 73
    6
 40
15.875
 49
6.35
 74
    0
 49
-3.175
 74
    0
 49
0
 74
    0
 49
-3.175
 74
    0
 49
0
 74
    0
 49
-3.175
 74
    0
  0
LTYPE
  5
41
330
5
100
AcDbSymbolTableRecord
100
AcDbLinetypeTableRecord
  2
DIVIDEX2
 70
    0
  3
Divide (2x) ________  .  .  ________  .  .  _
 72
   65
 73
    6
 40
63.5
 49
25.4
 74
    0
 49
-12.7
 74
    0
 49
0
 74
    0
 49
-12.7
 74
    0
 49
0
 74
    0
 49
-12.7
 74
    0
  0
LTYPE
  5
42
330
5
100
AcDbSymbolTableRecord
100
AcDbLinetypeTableRecord
  2
BORDER
 70
    0
  3
Border __ __ . __ __ . __ __ . __ __ . __ __ .
 72
   65
 73
    6
 40
44.45
 49
12.7
 74
    0
 49
-6.35
 74
    0
 49
12.7
 74
    0
 49
-6.35
 74
    0
 49
0
 74
    0
 49
-6.35
 74
    0
  0
LTYPE
  5
43
330
5
100
AcDbSymbolTableRecord
100
AcDbLinetypeTableRecord
  2
BORDERTINY
 70
    0
  3
Border (.15x) __.__.__.__.__.__.__.__.__.__.__.
 72
   65
 73
    6
 40
6.6675
 49
1.905
 74
    0
 49
-0.9525
 74
    0
 49
1.905
 74
    0
 49
-0.9525
 74
    0
 49
0
 74
    0
 49
-0.9525
 74
    0
  0
LTYPE
  5
44
330
5
100
AcDbSymbolTableRecord
100
AcDbLinetypeTableRecord
  2
BORDER2
 70
    0
  3
Border (.5x) __.__.__.__.__.__.__.__.__.__.__.
 72
   65
 73
    6
 40
22.225
 49
6.35
 74
    0
 49
-3.175
 74
    0
 49
6.35
 74
    0
 49
-3.175
 74
    0
 49
0
 74
    0
 49
-3.175
 74
    0
  0
LTYPE
  5
45
330
5
100
AcDbSymbolTableRecord
100
AcDbLinetypeTableRecord
  2
BORDERX2
 70
    0
  3
Border (2x) ____  ____  .  ____  ____  .  ___
 72
   65
 73
    6
 40
88.89999999999999
 49
25.4
 74
    0
 49
-12.7
 74
    0
 49
25.4
 74
    0
 49
-12.7
 74
    0
 49
0
 74
    0
 49
-12.7
 74
    0
  0
LTYPE
  5
46
330
5
100
AcDbSymbolTableRecord
100
AcDbLinetypeTableRecord
  2
CENTER
 70
    0
  3
Center ____ _ ____ _ ____ _ ____ _ ____ _ ____
 72
   65
 73
    4
 40
50.8
 49
31.75
 74
    0
 49
-6.35
 74
    0
 49
6.35
 74
    0
 49
-6.35
 74
    0
  0
LTYPE
  5
47
330
5
100
AcDbSymbolTableRecord
100
AcDbLinetypeTableRecord
  2
CENTERTINY
 70
    0
  3
Center (.15x) ___ _ ___ _ ___ _ ___ _ ___ _ ___
 72
   65
 73
    4
 40
7.62
 49
4.7625
 74
    0
 49
-0.9525
 74
    0
 49
0.9525
 74
    0
 49
-0.9525
 74
    0
  0
LTYPE
  5
48
330
5
100
AcDbSymbolTableRecord
100
AcDbLinetypeTableRecord
  2
CENTER2
 70
    0
  3
Center (.5x) ___ _ ___ _ ___ _ ___ _ ___ _ ___
 72
   65
 73
    4
 40
28.575
 49
19.05
 74
    0
 49
-3.175
 74
    0
 49
3.175
 74
    0
 49
-3.175
 74
    0
  0
LTYPE
  5
49
330
5
100
AcDbSymbolTableRecord
100
AcDbLinetypeTableRecord
  2
CENTERX2
 70
    0
  3
Center (2x) ________  __  ________  __  _____
 72
   65
 73
    4
 40
101.6
 49
63.5
 74
    0
 49
-12.7
 74
    0
 49
12.7
 74
    0
 49
-12.7
 74
    0
  0
ENDTAB
  0
TABLE
  2
LAYER
  5
2
330
0
100
AcDbSymbolTable
 70
    1
  0
LAYER
  5
10
330
2
100
AcDbSymbolTableRecord
100
AcDbLayerTableRecord
  2
0
 70
    0
 62
    7
  6
CONTINUOUS
370
   25
390
F
  0
LAYER
  5
4A
330
2
100
AcDbSymbolTableRecord
100
AcDbLayerTableRecord
  2
Centerline
 70
    0
 62
    3
  6
DASHDOT2
370
   18
390
F
  0
LAYER
  5
4B
330
2
100
AcDbSymbolTableRecord
100
AcDbLayerTableRecord
  2
Centerline-symbol
 70
    0
 62
    7
  6
DASHDOT2
370
    0
390
F
  0
LAYER
  5
4C
330
2
100
AcDbSymbolTableRecord
100
AcDbLayerTableRecord
  2
Construction
 70
    1
 62
   40
420
16755200
  6
CONTINUOUS
370
    0
390
F
1001
LibreCad
1070
    1
  0
LAYER
  5
4D
330
2
100
AcDbSymbolTableRecord
100
AcDbLayerTableRecord
  2
Hidden
 70
    0
 62
    2
  6
DASHED2
370
   25
390
F
  0
LAYER
  5
4E
330
2
100
AcDbSymbolTableRecord
100
AcDbLayerTableRecord
  2
Main
 70
    0
 62
    7
  6
CONTINUOUS
370
   35
390
F
  0
LAYER
  5
4F
330
2
100
AcDbSymbolTableRecord
100
AcDbLayerTableRecord
  2
Measurements
 70
    0
 62
    4
  6
CONTINUOUS
370
   18
390
F
  0
LAYER
  5
50
330
2
100
AcDbSymbolTableRecord
100
AcDbLayerTableRecord
  2
Section
 70
    0
 62
    1
  6
CONTINUOUS
370
    0
390
F
  0
ENDTAB
  0
TABLE
  2
STYLE
  5
3
330
0
100
AcDbSymbolTable
 70
    3
  0
STYLE
  5
51
330
2
100
AcDbSymbolTableRecord
100
AcDbTextStyleTableRecord
  2
standard
 70
    0
 40
0
 41
1
 50
0
 71
    0
 42
1
  3
standard
  4

  0
ENDTAB
  0
TABLE
  2
VIEW
  5
6
330
0
100
AcDbSymbolTable
 70
    0
  0
ENDTAB
  0
TABLE
  2
UCS
  5
7
330
0
100
AcDbSymbolTable
 70
    0
  0
ENDTAB
  0
TABLE
  2
APPID
  5
9
330
0
100
AcDbSymbolTable
 70
    1
  0
APPID
  5
12
330
9
100
AcDbSymbolTableRecord
100
AcDbRegAppTableRecord
  2
ACAD
 70
    0
  0
APPID
  5
52
330
9
100
AcDbSymbolTableRecord
100
AcDbRegAppTableRecord
  2
LibreCad
 70
    0
  0
ENDTAB
  0
TABLE
  2
DIMSTYLE
  5
A
330
0
100
AcDbSymbolTable
 70
    1
100
AcDbDimStyleTable
 71
    1
  0
DIMSTYLE
105
53
330
A
100
AcDbSymbolTableRecord
100
AcDbDimStyleTableRecord
  2
Standard
 70
    0
 40
1
 41
2.5
 42
0.625
 43
0.38
 44
1.25
 45
0
 46
0
 47
0
 48
0
 49
1
140
2.5
141
0.09
142
0
143
25.4
144
1
145
0
146
1
147
0.625
148
0
 71
    0
 72
    0
 73
    0
 74
    1
 75
    0
 76
    0
 77
    0
 78
    1
 79
    0
170
    0
171
    2
172
    0
173
    0
174
    0
175
    0
176
    0
177
    0
178
    0
179
    2
271
    2
272
    4
273
    2
274
    2
275
    0
276
    0
277
    2
278
    0
279
    0
280
    0
281
    0
282
    0
283
    1
284
    0
285
    0
286
    0
288
    0
289
    3
340
standard
341

371
   -2
372
   -2
  0
ENDTAB
  0
TABLE
  2
BLOCK_RECORD
  5
1
330
0
100
AcDbSymbolTable
 70
    2
  0
BLOCK_RECORD
  5
1F
330
1
100
AcDbSymbolTableRecord
100
AcDbBlockTableRecord
  2
*Model_Space
 70
    0
280
    1
281
    0
  0
BLOCK_RECORD
  5
1E
330
1
100
AcDbSymbolTableRecord
100
AcDbBlockTableRecord
  2
*Paper_Space
 70
    0
280
    1
281
    0
  0
BLOCK_RECORD
  5
54
330
1
100
AcDbSymbolTableRecord
100
AcDbBlockTableRecord
  2
*D18
 70
    0
280
    1
281
    0
  0
BLOCK_RECORD
  5
57
330
1
100
AcDbSymbolTableRecord
100
AcDbBlockTableRecord
  2
*D26
 70
    0
280
    1
281
    0
  0
BLOCK_RECORD
  5
5A
330
1
100
AcDbSymbolTableRecord
100
AcDbBlockTableRecord
  2
*D12
 70
    0
280
    1
281
    0
  0
BLOCK_RECORD
  5
5D
330
1
100
AcDbSymbolTableRecord
100
AcDbBlockTableRecord
  2
*D5
 70
    0
280
    1
281
    0
  0
BLOCK_RECORD
  5
60
330
1
100
AcDbSymbolTableRecord
100
AcDbBlockTableRecord
  2
*D8
 70
    0
280
    1
281
    0
  0
BLOCK_RECORD
  5
63
330
1
100
AcDbSymbolTableRecord
100
AcDbBlockTableRecord
  2
*D25
 70
    0
280
    1
281
    0
  0
BLOCK_RECORD
  5
66
330
1
100
AcDbSymbolTableRecord
100
AcDbBlockTableRecord
  2
*D20
 70
    0
280
    1
281
    0
  0
BLOCK_RECORD
  5
69
330
1
100
AcDbSymbolTableRecord
100
AcDbBlockTableRecord
  2
*D1
 70
    0
280
    1
281
    0
  0
BLOCK_RECORD
  5
6C
330
1
100
AcDbSymbolTableRecord
100
AcDbBlockTableRecord
  2
*D22
 70
    0
280
    1
281
    0
  0
BLOCK_RECORD
  5
6F
330
1
100
AcDbSymbolTableRecord
100
AcDbBlockTableRecord
  2
*D29
 70
    0
280
    1
281
    0
  0
BLOCK_RECORD
  5
72
330
1
100
AcDbSymbolTableRecord
100
AcDbBlockTableRecord
  2
*D28
 70
    0
280
    1
281
    0
  0
BLOCK_RECORD
  5
75
330
1
100
AcDbSymbolTableRecord
100
AcDbBlockTableRecord
  2
*D7
 70
    0
280
    1
281
    0
  0
BLOCK_RECORD
  5
78
330
1
100
AcDbSymbolTableRecord
100
AcDbBlockTableRecord
  2
*D4
 70
    0
280
    1
281
    0
  0
BLOCK_RECORD
  5
7B
330
1
100
AcDbSymbolTableRecord
100
AcDbBlockTableRecord
  2
*D17
 70
    0
280
    1
281
    0
  0
BLOCK_RECORD
  5
7E
330
1
100
AcDbSymbolTableRecord
100
AcDbBlockTableRecord
  2
*D9
 70
    0
280
    1
281
    0
  0
BLOCK_RECORD
  5
81
330
1
100
AcDbSymbolTableRecord
100
AcDbBlockTableRecord
  2
*D19
 70
    0
280
    1
281
    0
  0
BLOCK_RECORD
  5
84
330
1
100
AcDbSymbolTableRecord
100
AcDbBlockTableRecord
  2
*D27
 70
    0
280
    1
281
    0
  0
BLOCK_RECORD
  5
87
330
1
100
AcDbSymbolTableRecord
100
AcDbBlockTableRecord
  2
*D6
 70
    0
280
    1
281
    0
  0
BLOCK_RECORD
  5
8A
330
1
100
AcDbSymbolTableRecord
100
AcDbBlockTableRecord
  2
*D16
 70
    0
280
    1
281
    0
  0
BLOCK_RECORD
  5
8D
330
1
100
AcDbSymbolTableRecord
100
AcDbBlockTableRecord
  2
*D21
 70
    0
280
    1
281
    0
  0
BLOCK_RECORD
  5
90
330
1
100
AcDbSymbolTableRecord
100
AcDbBlockTableRecord
  2
*D11
 70
    0
280
    1
281
    0
  0
BLOCK_RECORD
  5
93
330
1
100
AcDbSymbolTableRecord
100
AcDbBlockTableRecord
  2
*D13
 70
    0
280
    1
281
    0
  0
BLOCK_RECORD
  5
96
330
1
100
AcDbSymbolTableRecord
100
AcDbBlockTableRecord
  2
*D14
 70
    0
280
    1
281
    0
  0
BLOCK_RECORD
  5
99
330
1
100
AcDbSymbolTableRecord
100
AcDbBlockTableRecord
  2
*D24
 70
    0
280
    1
281
    0
  0
BLOCK_RECORD
  5
9C
330
1
100
AcDbSymbolTableRecord
100
AcDbBlockTableRecord
  2
*D10
 70
    0
280
    1
281
    0
  0
BLOCK_RECORD
  5
9F
330
1
100
AcDbSymbolTableRecord
100
AcDbBlockTableRecord
  2
*D2
 70
    0
280
    1
281
    0
  0
BLOCK_RECORD
  5
A2
330
1
100
AcDbSymbolTableRecord
100
AcDbBlockTableRecord
  2
*D3
 70
    0
280
    1
281
    0
  0
BLOCK_RECORD
  5
A5
330
1
100
AcDbSymbolTableRecord
100
AcDbBlockTableRecord
  2
*D15
 70
    0
280
    1
281
    0
  0
BLOCK_RECORD
  5
A8
330
1
100
AcDbSymbolTableRecord
100
AcDbBlockTableRecord
  2
*D23
 70
    0
280
    1
281
    0
  0
BLOCK_RECORD
  5
AB
330
1
100
AcDbSymbolTableRecord
100
AcDbBlockTableRecord
  2
Projection-EU
 70
    0
280
    1
281
    0
  0
BLOCK_RECORD
  5
AE
330
1
100
AcDbSymbolTableRecord
100
AcDbBlockTableRecord
  2
Projection-EU-0
 70
    0
280
    1
281
    0
  0
BLOCK_RECORD
  5
B1
330
1
100
AcDbSymbolTableRecord
100
AcDbBlockTableRecord
  2
Projection-EU-1
 70
    0
280
    1
281
    0
  0
BLOCK_RECORD
  5
B4
330
1
100
AcDbSymbolTableRecord
100
AcDbBlockTableRecord
  2
Projection-EU-2
 70
    0
280
    1
281
    0
  0
BLOCK_RECORD
  5
B7
330
1
100
AcDbSymbolTableRecord
100
AcDbBlockTableRecord
  2
A4-frame-large-no-layers
 70
    0
280
    1
281
    0
  0
ENDTAB
  0
ENDSEC
  0
SECTION
  2
BLOCKS
  0
BLOCK
  5
20
330
1F
100
AcDbEntity
  8
0
100
AcDbBlockBegin
  2
*Model_Space
 70
    0
 10
0
 20
0
 30
0
  3
*Model_Space
  1

  0
ENDBLK
  5
21
330
1F
100
AcDbEntity
  8
0
100
AcDbBlockEnd
  0
BLOCK
  5
1C
330
1B
100
AcDbEntity
  8
0
100
AcDbBlockBegin
  2
*Paper_Space
 70
    0
 10
0
 20
0
 30
0
  3
*Paper_Space
  1

  0
ENDBLK
  5
1D
330
1F
100
AcDbEntity
  8
0
100
AcDbBlockEnd
  0
BLOCK
  5
55
330
54
100
AcDbEntity
  8
0
100
AcDbBlockBegin
  2
*D18
 70
    1
 10
0
 20
0
  3
*D18
  1

  0
LINE
  5
BA
100
AcDbEntity
  8
Measurements
  6
ByBlock
 62
    0
370
   -2
100
AcDbLine
 10
250
 20
340
 11
250
 21
490
  0
SOLID
  5
BB
100
AcDbEntity
  8
Measurements
  6
ByBlock
 62
    0
370
   -2
100
AcDbTrace
 10
250
 20
340
 30
0
 11
249.5837153422272
 21
342.5
 31
0
 12
250.4162846577728
 22
342.5
 32
0
 13
250.4162846577728
 23
342.5
 33
0
  0
SOLID
  5
BC
100
AcDbEntity
  8
Measurements
  6
ByBlock
 62
    0
370
   -2
100
AcDbTrace
 10
250
 20
490
 30
0
 11
250.4162846577728
 21
487.5
 31
0
 12
249.5837153422272
 22
487.5
 32
0
 13
249.5837153422272
 23
487.5
 33
0
  0
MTEXT
  5
BD
100
AcDbEntity
  8
Measurements
  6
CONTINUOUS
 62
    0
370
   -2
100
AcDbMText
 10
248.125
 20
415
 30
0
 40
2.5
 41
9.166666666666822
 71
    5
 72
    1
  1
150.00
  7
standard
210
0
220
0
230
1
 50
90
 73
    2
 44
1
  0
LINE
  5
BE
100
AcDbEntity
  8
Measurements
  6
ByBlock
 62
    0
370
   -2
100
AcDbLine
 10
100.625
 20
340
 11
251.25
 21
340
  0
LINE
  5
BF
100
AcDbEntity
  8
Measurements
  6
ByBlock
 62
    0
370
   -2
100
AcDbLine
 10
100.625
 20
490
 11
251.25
 21
490
  0
ENDBLK
  5
56
330
54
100
AcDbEntity
  8
0
100
AcDbBlockEnd
  0
BLOCK
  5
58
330
57
100
AcDbEntity
  8
0
100
AcDbBlockBegin
  2
*D26
 70
    1
 10
0
 20
0
  3
*D26
  1

  0
LINE
  5
C0
100
AcDbEntity
  8
Measurements
  6
ByBlock
 62
    0
370
   -2
100
AcDbLine
 10
643
 20
47.08738212227995
 11
658
 21
47.08738212227995
  0
SOLID
  5
C1
100
AcDbEntity
  8
Measurements
  6
ByBlock
 62
    0
370
   -2
100
AcDbTrace
 10
643
 20
47.08738212227995
 30
0
 11
645.5
 21
47.50366678005279
 31
0
 12
645.5
 22
46.67109746450711
 32
0
 13
645.5
 23
46.67109746450711
 33
0
  0
SOLID
  5
C2
100
AcDbEntity
  8
Measurements
  6
ByBlock
 62
    0
370
   -2
100
AcDbTrace
 10
658
 20
47.08738212227995
 30
0
 11
655.5
 21
46.67109746450711
 31
0
 12
655.5
 22
47.50366678005279
 32
0
 13
655.5
 23
47.50366678005279
 33
0
  0
MTEXT
  5
C3
100
AcDbEntity
  8
Measurements
  6
CONTINUOUS
 62
    0
370
   -2
100
AcDbMText
 10
650.5
 20
48.96238212227995
 30
0
 40
2.5
 41
7.222222222222378
 71
    5
 72
    1
  1
15.00
  7
standard
210
0
220
0
230
1
 50
0
 73
    2
 44
1
  0
LINE
  5
C4
100
AcDbEntity
  8
Measurements
  6
ByBlock
 62
    0
370
   -2
100
AcDbLine
 10
643
 20
47.00361639954753
 11
643
 21
45.83738212227995
  0
LINE
  5
C5
100
AcDbEntity
  8
Measurements
  6
ByBlock
 62
    0
370
   -2
100
AcDbLine
 10
658
 20
46.46238212227995
 11
658
 21
45.83738212227995
  0
ENDBLK
  5
59
330
57
100
AcDbEntity
  8
0
100
AcDbBlockEnd
  0
BLOCK
  5
5B
330
5A
100
AcDbEntity
  8
0
100
AcDbBlockBegin
  2
*D12
 70
    1
 10
0
 20
0
  3
*D12
  1

  0
SOLID
  5
C6
100
AcDbEntity
  8
Measurements
  6
ByBlock
 62
    0
370
   -2
100
AcDbTrace
 10
120
 20
340
 30
0
 11
117.5
 21
339.5837153422272
 31
0
 12
117.5
 22
340.4162846577728
 32
0
 13
117.5
 23
340.4162846577728
 33
0
  0
LINE
  5
C7
100
AcDbEntity
  8
Measurements
  6
ByBlock
 62
    0
370
   -2
100
AcDbLine
 10
100
 20
340
 11
120
 21
340
  0
MTEXT
  5
C8
100
AcDbEntity
  8
Measurements
  6
CONTINUOUS
 62
    0
370
   -2
100
AcDbMText
 10
110
 20
341.875
 30
0
 40
2.5
 41
7.777777777777779
 71
    5
 72
    1
  1
20.00
  7
standard
210
0
220
0
230
1
 50
0
 73
    2
 44
1
  0
ENDBLK
  5
5C
330
5A
100
AcDbEntity
  8
0
100
AcDbBlockEnd
  0
BLOCK
  5
5E
330
5D
100
AcDbEntity
  8
0
100
AcDbBlockBegin
  2
*D5
 70
    1
 10
0
 20
0
  3
*D5
  1

  0
LINE
  5
C9
100
AcDbEntity
  8
Measurements
  6
ByBlock
 62
    0
370
   -2
100
AcDbLine
 10
-70
 20
0
 11
-70
 21
200
  0
SOLID
  5
CA
100
AcDbEntity
  8
Measurements
  6
ByBlock
 62
    0
370
   -2
100
AcDbTrace
 10
-70
 20
0
 30
0
 11
-70.41628465777283
 21
2.5
 31
0
 12
-69.58371534222717
 22
2.5
 32
0
 13
-69.58371534222717
 23
2.5
 33
0
  0
SOLID
  5
CB
100
AcDbEntity
  8
Measurements
  6
ByBlock
 62
    0
370
   -2
100
AcDbTrace
 10
-70
 20
200
 30
0
 11
-69.58371534222717
 21
197.5
 31
0
 12
-70.41628465777283
 22
197.5
 32
0
 13
-70.41628465777283
 23
197.5
 33
0
  0
MTEXT
  5
CC
100
AcDbEntity
  8
Measurements
  6
CONTINUOUS
 62
    0
370
   -2
100
AcDbMText
 10
-71.875
 20
100
 30
0
 40
2.5
 41
9.722222222222221
 71
    5
 72
    1
  1
200.00
  7
standard
210
0
220
0
230
1
 50
90
 73
    2
 44
1
  0
LINE
  5
CD
100
AcDbEntity
  8
Measurements
  6
ByBlock
 62
    0
370
   -2
100
AcDbLine
 10
-0.625
 20
7.653789711389858e-017
 11
-71.25
 21
1.530757942277972e-016
  0
LINE
  5
CE
100
AcDbEntity
  8
Measurements
  6
ByBlock
 62
    0
370
   -2
100
AcDbLine
 10
-0.6250000000000001
 20
200
 11
-71.25
 21
200
  0
ENDBLK
  5
5F
330
5D
100
AcDbEntity
  8
0
100
AcDbBlockEnd
  0
BLOCK
  5
61
330
60
100
AcDbEntity
  8
0
100
AcDbBlockBegin
  2
*D8
 70
    1
 10
0
 20
0
  3
*D8
  1

  0
SOLID
  5
CF
100
AcDbEntity
  8
Measurements
  6
ByBlock
 62
    0
370
   -2
100
AcDbTrace
 10
131.304951684997
 20
84.34752415750147
 30
0
 11
128.8827155489432
 21
85.09322182914325
 31
0
 12
129.2550518660513
 22
85.83789446335949
 32
0
 13
129.2550518660513
 23
85.83789446335949
 33
0
  0
LINE
  5
D0
100
AcDbEntity
  8
Measurements
  6
ByBlock
 62
    0
370
   -2
100
AcDbLine
 10
100
 20
100
 11
131.304951684997
 21
84.34752415750145
  0
MTEXT
  5
D1
100
AcDbEntity
  8
Measurements
  6
CONTINUOUS
 62
    0
370
   -2
100
AcDbMText
 10
116.4910013340609
 20
93.85081306187558
 30
0
 40
2.5
 41
7.777777777778088
 71
    5
 72
    1
  1
35.00
  7
standard
210
0
220
0
230
1
 50
333.434948822922
 73
    2
 44
1
  0
ENDBLK
  5
62
330
60
100
AcDbEntity
  8
0
100
AcDbBlockEnd
  0
BLOCK
  5
64
330
63
100
AcDbEntity
  8
0
100
AcDbBlockBegin
  2
*D25
 70
    1
 10
0
 20
0
  3
*D25
  1

  0
LINE
  5
D2
100
AcDbEntity
  8
Measurements
  6
ByBlock
 62
    0
370
   -2
100
AcDbLine
 10
643
 20
30.30911952698479
 11
670
 21
30.30911952698479
  0
SOLID
  5
D3
100
AcDbEntity
  8
Measurements
  6
ByBlock
 62
    0
370
   -2
100
AcDbTrace
 10
643
 20
30.30911952698479
 30
0
 11
645.5
 21
30.72540418475763
 31
0
 12
645.5
 22
29.89283486921195
 32
0
 13
645.5
 23
29.89283486921195
 33
0
  0
SOLID
  5
D4
100
AcDbEntity
  8
Measurements
  6
ByBlock
 62
    0
370
   -2
100
AcDbTrace
 10
670
 20
30.30911952698479
 30
0
 11
667.5
 21
29.89283486921195
 31
0
 12
667.5
 22
30.72540418475763
 32
0
 13
667.5
 23
30.72540418475763
 33
0
  0
MTEXT
  5
D5
100
AcDbEntity
  8
Measurements
  6
CONTINUOUS
 62
    0
370
   -2
100
AcDbMText
 10
656.5
 20
32.18411952698479
 30
0
 40
2.5
 41
7.777777777777779
 71
    5
 72
    1
  1
27.00
  7
standard
210
0
220
0
230
1
 50
0
 73
    2
 44
1
  0
LINE
  5
D6
100
AcDbEntity
  8
Measurements
  6
ByBlock
 62
    0
370
   -2
100
AcDbLine
 10
643
 20
31.30782235878755
 11
643
 21
29.05911952698479
  0
LINE
  5
D7
100
AcDbEntity
  8
Measurements
  6
ByBlock
 62
    0
370
   -2
100
AcDbLine
 10
670
 20
30.625
 11
670
 21
31.55911952698479
  0
ENDBLK
  5
65
330
63
100
AcDbEntity
  8
0
100
AcDbBlockEnd
  0
BLOCK
  5
67
330
66
100
AcDbEntity
  8
0
100
AcDbBlockBegin
  2
*D20
 70
    1
 10
0
 20
0
  3
*D20
  1

  0
LINE
  5
D8
100
AcDbEntity
  8
Measurements
  6
ByBlock
 62
    0
370
   -2
100
AcDbLine
 10
21.01038104031104
 20
285.6164207471865
 11
21.25942825287485
 21
286.636855607309
  0
LINE
  5
D9
100
AcDbEntity
  8
Measurements
  6
ByBlock
 62
    0
370
   -2
100
AcDbLine
 10
28.78226828797678
 20
283.7196148548837
 11
29.03131550054059
 21
284.7400497150062
  0
LINE
  5
DA
100
AcDbEntity
  8
Measurements
  6
ByBlock
 62
    0
370
   -2
100
AcDbLine
 10
20.96305257296949
 20
285.4224992113689
 11
28.73493982063523
 21
283.5256933190661
  0
SOLID
  5
DB
100
AcDbEntity
  8
Measurements
  6
ByBlock
 62
    0
370
   -2
100
AcDbTrace
 10
20.96305257296949
 20
285.4224992113689
 30
0
 11
23.49046668363497
 21
285.2341622009167
 31
0
 12
23.29306404606442
 22
284.4253335021996
 32
0
 13
23.29306404606442
 23
284.4253335021996
 33
0
  0
SOLID
  5
DC
100
AcDbEntity
  8
Measurements
  6
ByBlock
 62
    0
370
   -2
100
AcDbTrace
 10
28.73493982063523
 20
283.5256933190661
 30
0
 11
26.20752570996975
 21
283.7140303295183
 31
0
 12
26.4049283475403
 22
284.5228590282354
 32
0
 13
26.4049283475403
 23
284.5228590282354
 33
0
  0
MTEXT
  5
DD
100
AcDbEntity
  8
Measurements
  6
CONTINUOUS
 62
    0
370
   -2
100
AcDbMText
 10
25.29355971666041
 20
286.2956308591276
 30
0
 40
2.5
 41
5.833333333333334
 71
    5
 72
    1
  1
8.00
  7
standard
210
0
220
0
230
1
 50
346.2845249358149
 73
    2
 44
1
  0
ENDBLK
  5
68
330
66
100
AcDbEntity
  8
0
100
AcDbBlockEnd
  0
BLOCK
  5
6A
330
69
100
AcDbEntity
  8
0
100
AcDbBlockBegin
  2
*D1
 70
    1
 10
0
 20
0
  3
*D1
  1

  0
LINE
  5
DE
100
AcDbEntity
  8
Measurements
  6
ByBlock
 62
    0
370
   -2
100
AcDbLine
 10
0
 20
-40
 11
200
 21
-40
  0
SOLID
  5
DF
100
AcDbEntity
  8
Measurements
  6
ByBlock
 62
    0
370
   -2
100
AcDbTrace
 10
0
 20
-40
 30
0
 11
2.5
 21
-39.58371534222716
 31
0
 12
2.5
 22
-40.41628465777284
 32
0
 13
2.5
 23
-40.41628465777284
 33
0
  0
SOLID
  5
E0
100
AcDbEntity
  8
Measurements
  6
ByBlock
 62
    0
370
   -2
100
AcDbTrace
 10
200
 20
-40
 30
0
 11
197.5
 21
-40.41628465777284
 31
0
 12
197.5
 22
-39.58371534222716
 32
0
 13
197.5
 23
-39.58371534222716
 33
0
  0
MTEXT
  5
E1
100
AcDbEntity
  8
Measurements
  6
CONTINUOUS
 62
    0
370
   -2
100
AcDbMText
 10
100
 20
-38.125
 30
0
 40
2.5
 41
9.722222222222221
 71
    5
 72
    1
  1
200.00
  7
standard
210
0
220
0
230
1
 50
0
 73
    2
 44
1
  0
LINE
  5
E2
100
AcDbEntity
  8
Measurements
  6
ByBlock
 62
    0
370
   -2
100
AcDbLine
 10
-1.148068456708479e-016
 20
-0.625
 11
-2.296136913416957e-016
 21
-41.25
  0
LINE
  5
E3
100
AcDbEntity
  8
Measurements
  6
ByBlock
 62
    0
370
   -2
100
AcDbLine
 10
200
 20
-0.625
 11
200
 21
-41.25
  0
ENDBLK
  5
6B
330
69
100
AcDbEntity
  8
0
100
AcDbBlockEnd
  0
BLOCK
  5
6D
330
6C
100
AcDbEntity
  8
0
100
AcDbBlockBegin
  2
*D22
 70
    1
 10
0
 20
0
  3
*D22
  1

  0
LINE
  5
E4
100
AcDbEntity
  8
Main
  6
CONTINUOUS
 62
    7
370
    0
100
AcDbLine
 10
100
 20
552.6731451751441
 11
160
 21
552.6731451751441
  0
SOLID
  5
E5
100
AcDbEntity
  8
Main
  6
CONTINUOUS
 62
    7
370
    0
100
AcDbTrace
 10
100
 20
552.6731451751441
 30
0
 11
102.5
 21
553.0894298329169
 31
0
 12
102.5
 22
552.2568605173713
 32
0
 13
102.5
 23
552.2568605173713
 33
0
  0
ENDBLK
  5
6E
330
6C
100
AcDbEntity
  8
0
100
AcDbBlockEnd
  0
BLOCK
  5
70
330
6F
100
AcDbEntity
  8
0
100
AcDbBlockBegin
  2
*D29
 70
    1
 10
0
 20
0
  3
*D29
  1

  0
LINE
  5
E6
100
AcDbEntity
  8
Measurements
  6
ByBlock
 62
    0
370
   -2
100
AcDbLine
 10
685
 20
530
 11
635
 21
530
  0
SOLID
  5
E7
100
AcDbEntity
  8
Measurements
  6
ByBlock
 62
    0
370
   -2
100
AcDbTrace
 10
685
 20
530
 30
0
 11
682.5
 21
529.5837153422272
 31
0
 12
682.5
 22
530.4162846577728
 32
0
 13
682.5
 23
530.4162846577728
 33
0
  0
SOLID
  5
E8
100
AcDbEntity
  8
Measurements
  6
ByBlock
 62
    0
370
   -2
100
AcDbTrace
 10
635
 20
530
 30
0
 11
637.5
 21
530.4162846577728
 31
0
 12
637.5
 22
529.5837153422272
 32
0
 13
637.5
 23
529.5837153422272
 33
0
  0
MTEXT
  5
E9
100
AcDbEntity
  8
Measurements
  6
CONTINUOUS
 62
    0
370
   -2
100
AcDbMText
 10
660
 20
531.875
 30
0
 40
2.5
 41
7.777777777777933
 71
    5
 72
    1
  1
50.00
  7
standard
210
0
220
0
230
1
 50
360
 73
    2
 44
1
  0
LINE
  5
EA
100
AcDbEntity
  8
Measurements
  6
ByBlock
 62
    0
370
   -2
100
AcDbLine
 10
685
 20
518.6249999999993
 11
685
 21
531.25
  0
LINE
  5
EB
100
AcDbEntity
  8
Measurements
  6
ByBlock
 62
    0
370
   -2
100
AcDbLine
 10
635
 20
518.6249999999993
 11
635
 21
531.25
  0
ENDBLK
  5
71
330
6F
100
AcDbEntity
  8
0
100
AcDbBlockEnd
  0
BLOCK
  5
73
330
72
100
AcDbEntity
  8
0
100
AcDbBlockBegin
  2
*D28
 70
    1
 10
0
 20
0
  3
*D28
  1

  0
LINE
  5
EC
100
AcDbEntity
  8
Measurements
  6
ByBlock
 62
    0
370
   -2
100
AcDbLine
 10
675
 20
373.1993609303333
 11
635
 21
373.1993609303333
  0
SOLID
  5
ED
100
AcDbEntity
  8
Measurements
  6
ByBlock
 62
    0
370
   -2
100
AcDbTrace
 10
675
 20
373.1993609303333
 30
0
 11
672.5
 21
372.7830762725604
 31
0
 12
672.5
 22
373.6156455881061
 32
0
 13
672.5
 23
373.6156455881061
 33
0
  0
SOLID
  5
EE
100
AcDbEntity
  8
Measurements
  6
ByBlock
 62
    0
370
   -2
100
AcDbTrace
 10
635
 20
373.1993609303333
 30
0
 11
637.5
 21
373.6156455881061
 31
0
 12
637.5
 22
372.7830762725604
 32
0
 13
637.5
 23
372.7830762725604
 33
0
  0
MTEXT
  5
EF
100
AcDbEntity
  8
Measurements
  6
CONTINUOUS
 62
    0
370
   -2
100
AcDbMText
 10
655
 20
375.0743609303333
 30
0
 40
2.5
 41
8.055555555555557
 71
    5
 72
    1
  1
40.00
  7
standard
210
0
220
0
230
1
 50
360
 73
    2
 44
1
  0
LINE
  5
F0
100
AcDbEntity
  8
Measurements
  6
ByBlock
 62
    0
370
   -2
100
AcDbLine
 10
675
 20
360.6250000000003
 11
675
 21
374.4493609303333
  0
LINE
  5
F1
100
AcDbEntity
  8
Measurements
  6
ByBlock
 62
    0
370
   -2
100
AcDbLine
 10
635
 20
360.6250000000003
 11
635
 21
374.4493609303333
  0
ENDBLK
  5
74
330
72
100
AcDbEntity
  8
0
100
AcDbBlockEnd
  0
BLOCK
  5
76
330
75
100
AcDbEntity
  8
0
100
AcDbBlockBegin
  2
*D7
 70
    1
 10
0
 20
0
  3
*D7
  1

  0
LINE
  5
F2
100
AcDbEntity
  8
Measurements
  6
ByBlock
 62
    0
370
   -2
100
AcDbLine
 10
80.64873188233028
 20
88.52052169138076
 11
119.3512681176697
 21
111.4794783086192
  0
SOLID
  5
F3
100
AcDbEntity
  8
Measurements
  6
ByBlock
 62
    0
370
   -2
100
AcDbTrace
 10
80.64873188233028
 20
88.52052169138076
 30
0
 11
82.58648475322184
 21
90.15404754904222
 31
0
 12
83.01126081536533
 22
89.43799101341247
 32
0
 13
83.01126081536533
 23
89.43799101341247
 33
0
  0
SOLID
  5
F4
100
AcDbEntity
  8
Measurements
  6
ByBlock
 62
    0
370
   -2
100
AcDbTrace
 10
119.3512681176697
 20
111.4794783086192
 30
0
 11
117.4135152467781
 21
109.8459524509578
 31
0
 12
116.9887391846347
 22
110.5620089865875
 32
0
 13
116.9887391846347
 23
110.5620089865875
 33
0
  0
MTEXT
  5
F5
100
AcDbEntity
  8
Measurements
  6
CONTINUOUS
 62
    0
370
   -2
100
AcDbMText
 10
99.04337680761506
 20
101.6126056764725
 30
0
 40
2.5
 41
8.055555555555712
 71
    5
 72
    1
  1
45.00
  7
standard
210
0
220
0
230
1
 50
30.67708833473071
 73
    2
 44
1
  0
ENDBLK
  5
77
330
75
100
AcDbEntity
  8
0
100
AcDbBlockEnd
  0
BLOCK
  5
79
330
78
100
AcDbEntity
  8
0
100
AcDbBlockBegin
  2
*D4
 70
    1
 10
0
 20
0
  3
*D4
  1

  0
LINE
  5
F6
100
AcDbEntity
  8
Measurements
  6
ByBlock
 62
    0
370
   -2
100
AcDbLine
 10
250
 20
100
 11
250
 21
230
  0
SOLID
  5
F7
100
AcDbEntity
  8
Measurements
  6
ByBlock
 62
    0
370
   -2
100
AcDbTrace
 10
250
 20
100
 30
0
 11
249.5837153422272
 21
102.5
 31
0
 12
250.4162846577728
 22
102.5
 32
0
 13
250.4162846577728
 23
102.5
 33
0
  0
SOLID
  5
F8
100
AcDbEntity
  8
Measurements
  6
ByBlock
 62
    0
370
   -2
100
AcDbTrace
 10
250
 20
230
 30
0
 11
250.4162846577728
 21
227.5
 31
0
 12
249.5837153422272
 22
227.5
 32
0
 13
249.5837153422272
 23
227.5
 33
0
  0
MTEXT
  5
F9
100
AcDbEntity
  8
Measurements
  6
CONTINUOUS
 62
    0
370
   -2
100
AcDbMText
 10
248.125
 20
165
 30
0
 40
2.5
 41
9.166666666666822
 71
    5
 72
    1
  1
130.00
  7
standard
210
0
220
0
230
1
 50
90
 73
    2
 44
1
  0
LINE
  5
FA
100
AcDbEntity
  8
Measurements
  6
ByBlock
 62
    0
370
   -2
100
AcDbLine
 10
100.625
 20
100
 11
251.25
 21
100
  0
LINE
  5
FB
100
AcDbEntity
  8
Measurements
  6
ByBlock
 62
    0
370
   -2
100
AcDbLine
 10
100.625
 20
230
 11
251.25
 21
230
  0
ENDBLK
  5
7A
330
78
100
AcDbEntity
  8
0
100
AcDbBlockEnd
  0
BLOCK
  5
7C
330
7B
100
AcDbEntity
  8
0
100
AcDbBlockBegin
  2
*D17
 70
    1
 10
0
 20
0
  3
*D17
  1

  0
LINE
  5
FC
100
AcDbEntity
  8
Measurements
  6
ByBlock
 62
    0
370
   -2
100
AcDbLine
 10
250
 20
230
 11
250
 21
340
  0
SOLID
  5
FD
100
AcDbEntity
  8
Measurements
  6
ByBlock
 62
    0
370
   -2
100
AcDbTrace
 10
250
 20
230
 30
0
 11
249.5837153422272
 21
232.5
 31
0
 12
250.4162846577728
 22
232.5
 32
0
 13
250.4162846577728
 23
232.5
 33
0
  0
SOLID
  5
FE
100
AcDbEntity
  8
Measurements
  6
ByBlock
 62
    0
370
   -2
100
AcDbTrace
 10
250
 20
340
 30
0
 11
250.4162846577728
 21
337.5
 31
0
 12
249.5837153422272
 22
337.5
 32
0
 13
249.5837153422272
 23
337.5
 33
0
  0
MTEXT
  5
FF
100
AcDbEntity
  8
Measurements
  6
CONTINUOUS
 62
    0
370
   -2
100
AcDbMText
 10
248.125
 20
285
 30
0
 40
2.5
 41
8.611111111111111
 71
    5
 72
    1
  1
110.00
  7
standard
210
0
220
0
230
1
 50
90
 73
    2
 44
1
  0
LINE
  5
100
100
AcDbEntity
  8
Measurements
  6
ByBlock
 62
    0
370
   -2
100
AcDbLine
 10
100.625
 20
230
 11
251.25
 21
230
  0
LINE
  5
101
100
AcDbEntity
  8
Measurements
  6
ByBlock
 62
    0
370
   -2
100
AcDbLine
 10
100.625
 20
340
 11
251.25
 21
340
  0
ENDBLK
  5
7D
330
7B
100
AcDbEntity
  8
0
100
AcDbBlockEnd
  0
BLOCK
  5
7F
330
7E
100
AcDbEntity
  8
0
100
AcDbBlockBegin
  2
*D9
 70
    1
 10
0
 20
0
  3
*D9
  1

  0
LINE
  5
102
100
AcDbEntity
  8
Measurements
  6
ByBlock
 62
    0
370
   -2
100
AcDbLine
 10
70
 20
200
 11
70
 21
192
  0
SOLID
  5
103
100
AcDbEntity
  8
Measurements
  6
ByBlock
 62
    0
370
   -2
100
AcDbTrace
 10
70
 20
200
 30
0
 11
70.41628465777283
 21
197.5
 31
0
 12
69.58371534222717
 22
197.5
 32
0
 13
69.58371534222717
 23
197.5
 33
0
  0
SOLID
  5
104
100
AcDbEntity
  8
Measurements
  6
ByBlock
 62
    0
370
   -2
100
AcDbTrace
 10
70
 20
192
 30
0
 11
69.58371534222717
 21
194.5
 31
0
 12
70.41628465777283
 22
194.5
 32
0
 13
70.41628465777283
 23
194.5
 33
0
  0
MTEXT
  5
105
100
AcDbEntity
  8
Measurements
  6
CONTINUOUS
 62
    0
370
   -2
100
AcDbMText
 10
68.125
 20
196
 30
0
 40
2.5
 41
5.833333333333334
 71
    5
 72
    1
  1
8.00
  7
standard
210
0
220
0
230
1
 50
90
 73
    2
 44
1
  0
LINE
  5
106
100
AcDbEntity
  8
Measurements
  6
ByBlock
 62
    0
370
   -2
100
AcDbLine
 10
68.49501685271635
 20
200
 11
71.25
 21
200
  0
LINE
  5
107
100
AcDbEntity
  8
Measurements
  6
ByBlock
 62
    0
370
   -2
100
AcDbLine
 10
69.19470774810517
 20
192
 11
71.25
 21
192
  0
ENDBLK
  5
80
330
7E
100
AcDbEntity
  8
0
100
AcDbBlockEnd
  0
BLOCK
  5
82
330
81
100
AcDbEntity
  8
0
100
AcDbBlockBegin
  2
*D19
 70
    1
 10
0
 20
0
  3
*D19
  1

  0
LINE
  5
108
100
AcDbEntity
  8
Measurements
  6
ByBlock
 62
    0
370
   -2
100
AcDbLine
 10
300
 20
0
 11
300
 21
518
  0
SOLID
  5
109
100
AcDbEntity
  8
Measurements
  6
ByBlock
 62
    0
370
   -2
100
AcDbTrace
 10
300
 20
0
 30
0
 11
299.5837153422272
 21
2.5
 31
0
 12
300.4162846577728
 22
2.5
 32
0
 13
300.4162846577728
 23
2.5
 33
0
  0
SOLID
  5
10A
100
AcDbEntity
  8
Measurements
  6
ByBlock
 62
    0
370
   -2
100
AcDbTrace
 10
300
 20
518
 30
0
 11
300.4162846577728
 21
515.5
 31
0
 12
299.5837153422272
 22
515.5
 32
0
 13
299.5837153422272
 23
515.5
 33
0
  0
MTEXT
  5
10B
100
AcDbEntity
  8
Measurements
  6
CONTINUOUS
 62
    0
370
   -2
100
AcDbMText
 10
298.125
 20
259
 30
0
 40
2.5
 41
9.166666666666822
 71
    5
 72
    1
  1
518.00
  7
standard
210
0
220
0
230
1
 50
90
 73
    2
 44
1
  0
LINE
  5
10C
100
AcDbEntity
  8
Measurements
  6
ByBlock
 62
    0
370
   -2
100
AcDbLine
 10
100.625
 20
0
 11
301.25
 21
0
  0
LINE
  5
10D
100
AcDbEntity
  8
Measurements
  6
ByBlock
 62
    0
370
   -2
100
AcDbLine
 10
100.625
 20
518
 11
301.25
 21
518
  0
ENDBLK
  5
83
330
81
100
AcDbEntity
  8
0
100
AcDbBlockEnd
  0
BLOCK
  5
85
330
84
100
AcDbEntity
  8
0
100
AcDbBlockBegin
  2
*D27
 70
    1
 10
0
 20
0
  3
*D27
  1

  0
LINE
  5
10E
100
AcDbEntity
  8
Measurements
  6
ByBlock
 62
    0
370
   -2
100
AcDbLine
 10
635
 20
84.25546796513866
 11
643
 21
84.25546796513866
  0
SOLID
  5
10F
100
AcDbEntity
  8
Measurements
  6
ByBlock
 62
    0
370
   -2
100
AcDbTrace
 10
635
 20
84.25546796513866
 30
0
 11
637.5
 21
84.6717526229115
 31
0
 12
637.5
 22
83.83918330736583
 32
0
 13
637.5
 23
83.83918330736583
 33
0
  0
SOLID
  5
110
100
AcDbEntity
  8
Measurements
  6
ByBlock
 62
    0
370
   -2
100
AcDbTrace
 10
643
 20
84.25546796513866
 30
0
 11
640.5
 21
83.83918330736583
 31
0
 12
640.5
 22
84.6717526229115
 32
0
 13
640.5
 23
84.6717526229115
 33
0
  0
MTEXT
  5
111
100
AcDbEntity
  8
Measurements
  6
CONTINUOUS
 62
    0
370
   -2
100
AcDbMText
 10
639
 20
86.13046796513866
 30
0
 40
2.5
 41
5.833333333333334
 71
    5
 72
    1
  1
8.00
  7
standard
210
0
220
0
230
1
 50
0
 73
    2
 44
1
  0
LINE
  5
112
100
AcDbEntity
  8
Measurements
  6
ByBlock
 62
    0
370
   -2
100
AcDbLine
 10
635
 20
78.125
 11
635
 21
85.50546796513866
  0
LINE
  5
113
100
AcDbEntity
  8
Measurements
  6
ByBlock
 62
    0
370
   -2
100
AcDbLine
 10
643
 20
78.125
 11
643
 21
85.50546796513866
  0
ENDBLK
  5
86
330
84
100
AcDbEntity
  8
0
100
AcDbBlockEnd
  0
BLOCK
  5
88
330
87
100
AcDbEntity
  8
0
100
AcDbBlockBegin
  2
*D6
 70
    1
 10
0
 20
0
  3
*D6
  1

  0
LINE
  5
114
100
AcDbEntity
  8
Measurements
  6
ByBlock
 62
    0
370
   -2
100
AcDbLine
 10
0
 20
130
 11
8
 21
130
  0
SOLID
  5
115
100
AcDbEntity
  8
Measurements
  6
ByBlock
 62
    0
370
   -2
100
AcDbTrace
 10
0
 20
130
 30
0
 11
2.5
 21
130.4162846577728
 31
0
 12
2.5
 22
129.5837153422272
 32
0
 13
2.5
 23
129.5837153422272
 33
0
  0
SOLID
  5
116
100
AcDbEntity
  8
Measurements
  6
ByBlock
 62
    0
370
   -2
100
AcDbTrace
 10
8
 20
130
 30
0
 11
5.5
 21
129.5837153422272
 31
0
 12
5.5
 22
130.4162846577728
 32
0
 13
5.5
 23
130.4162846577728
 33
0
  0
MTEXT
  5
117
100
AcDbEntity
  8
Measurements
  6
CONTINUOUS
 62
    0
370
   -2
100
AcDbMText
 10
4
 20
131.875
 30
0
 40
2.5
 41
5.833333333333334
 71
    5
 72
    1
  1
8.00
  7
standard
210
0
220
0
230
1
 50
0
 73
    2
 44
1
  0
LINE
  5
118
100
AcDbEntity
  8
Measurements
  6
ByBlock
 62
    0
370
   -2
100
AcDbLine
 10
-1.148068456708479e-016
 20
129.375
 11
-2.296136913416957e-016
 21
128.75
  0
LINE
  5
119
100
AcDbEntity
  8
Measurements
  6
ByBlock
 62
    0
370
   -2
100
AcDbLine
 10
8
 20
129.467594180816
 11
8
 21
128.75
  0
ENDBLK
  5
89
330
87
100
AcDbEntity
  8
0
100
AcDbBlockEnd
  0
BLOCK
  5
8B
330
8A
100
AcDbEntity
  8
0
100
AcDbBlockBegin
  2
*D16
 70
    1
 10
0
 20
0
  3
*D16
  1

  0
SOLID
  5
11A
100
AcDbEntity
  8
Measurements
  6
ByBlock
 62
    0
370
   -2
100
AcDbTrace
 10
113
 20
230
 30
0
 11
110.5
 21
229.5837153422272
 31
0
 12
110.5
 22
230.4162846577728
 32
0
 13
110.5
 23
230.4162846577728
 33
0
  0
LINE
  5
11B
100
AcDbEntity
  8
Measurements
  6
ByBlock
 62
    0
370
   -2
100
AcDbLine
 10
100
 20
230
 11
113
 21
230
  0
MTEXT
  5
11C
100
AcDbEntity
  8
Measurements
  6
CONTINUOUS
 62
    0
370
   -2
100
AcDbMText
 10
106.5
 20
231.875
 30
0
 40
2.5
 41
7.222222222222378
 71
    5
 72
    1
  1
13.00
  7
standard
210
0
220
0
230
1
 50
0
 73
    2
 44
1
  0
ENDBLK
  5
8C
330
8A
100
AcDbEntity
  8
0
100
AcDbBlockEnd
  0
BLOCK
  5
8E
330
8D
100
AcDbEntity
  8
0
100
AcDbBlockBegin
  2
*D21
 70
    1
 10
0
 20
0
  3
*D21
  1

  0
LINE
  5
11D
100
AcDbEntity
  8
Measurements
  6
ByBlock
 62
    0
370
   -2
100
AcDbLine
 10
27.63032744282276
 20
168.1240821819754
 11
27.00835039577462
 21
168.7419217011576
  0
LINE
  5
11E
100
AcDbEntity
  8
Measurements
  6
ByBlock
 62
    0
370
   -2
100
AcDbLine
 10
31.85880954830477
 20
172.3808814507319
 11
31.23683250125663
 21
172.9987209699141
  0
LINE
  5
11F
100
AcDbEntity
  8
Measurements
  6
ByBlock
 62
    0
370
   -2
100
AcDbLine
 10
24.37146317228805
 20
164.3136798637448
 11
35.64737621017437
 21
175.6651050742259
  0
SOLID
  5
120
100
AcDbEntity
  8
Measurements
  6
ByBlock
 62
    0
370
   -2
100
AcDbTrace
 10
27.89517863849021
 20
167.8609928346071
 30
0
 11
26.42865929860684
 21
165.7939626117886
 31
0
 12
25.83798251217142
 22
166.3807100865633
 32
0
 13
25.83798251217142
 23
166.3807100865633
 33
0
  0
SOLID
  5
121
100
AcDbEntity
  8
Measurements
  6
ByBlock
 62
    0
370
   -2
100
AcDbTrace
 10
32.12366074397222
 20
172.1177921033636
 30
0
 11
33.59018008385559
 21
174.1848223261821
 31
0
 12
34.18085687029101
 22
173.5980748514074
 32
0
 13
34.18085687029101
 23
173.5980748514074
 33
0
  0
MTEXT
  5
122
100
AcDbEntity
  8
Measurements
  6
CONTINUOUS
 62
    0
370
   -2
100
AcDbMText
 10
28.67917732715783
 20
171.3107857688112
 30
0
 40
2.5
 41
5.833333333333488
 71
    5
 72
    1
  1
6.00
  7
standard
210
0
220
0
230
1
 50
45.19120732110365
 73
    2
 44
1
  0
ENDBLK
  5
8F
330
8D
100
AcDbEntity
  8
0
100
AcDbBlockEnd
  0
BLOCK
  5
91
330
90
100
AcDbEntity
  8
0
100
AcDbBlockBegin
  2
*D11
 70
    1
 10
0
 20
0
  3
*D11
  1

  0
SOLID
  5
123
100
AcDbEntity
  8
Measurements
  6
ByBlock
 62
    0
370
   -2
100
AcDbTrace
 10
107.0710678118655
 20
347.0710678118655
 30
0
 11
108.5444770604168
 21
349.1331924692469
 31
0
 12
109.133192469247
 22
348.5444770604167
 32
0
 13
109.133192469247
 23
348.5444770604167
 33
0
  0
LINE
  5
124
100
AcDbEntity
  8
Measurements
  6
ByBlock
 62
    0
370
   -2
100
AcDbLine
 10
100
 20
340
 11
115.7134840263678
 21
355.7134840263677
  0
MTEXT
  5
125
100
AcDbEntity
  8
Measurements
  6
CONTINUOUS
 62
    0
370
   -2
100
AcDbMText
 10
110.0664507043918
 20
352.7181011338414
 30
0
 40
2.5
 41
7.222222222222222
 71
    5
 72
    1
  1
10.00
  7
standard
210
0
220
0
230
1
 50
44.99999999999989
 73
    2
 44
1
  0
ENDBLK
  5
92
330
90
100
AcDbEntity
  8
0
100
AcDbBlockEnd
  0
BLOCK
  5
94
330
93
100
AcDbEntity
  8
0
100
AcDbBlockBegin
  2
*D13
 70
    1
 10
0
 20
0
  3
*D13
  1

  0
SOLID
  5
126
100
AcDbEntity
  8
Measurements
  6
ByBlock
 62
    0
370
   -2
100
AcDbTrace
 10
114.5039243375791
 20
500.6600271486419
 30
0
 11
112.7360240547721
 21
498.8440366458177
 31
0
 12
112.2429567488364
 22
499.5148989990657
 32
0
 13
112.2429567488364
 23
499.5148989990657
 33
0
  0
LINE
  5
127
100
AcDbEntity
  8
Measurements
  6
ByBlock
 62
    0
370
   -2
100
AcDbLine
 10
100
 20
490
 11
114.5039243375791
 21
500.6600271486419
  0
MTEXT
  5
128
100
AcDbEntity
  8
Measurements
  6
CONTINUOUS
 62
    0
370
   -2
100
AcDbMText
 10
106.1415426741394
 20
496.8408390261521
 30
0
 40
2.5
 41
7.222222222222222
 71
    5
 72
    1
  1
18.00
  7
standard
210
0
220
0
230
1
 50
36.3149701665558
 73
    2
 44
1
  0
ENDBLK
  5
95
330
93
100
AcDbEntity
  8
0
100
AcDbBlockEnd
  0
BLOCK
  5
97
330
96
100
AcDbEntity
  8
0
100
AcDbBlockBegin
  2
*D14
 70
    1
 10
0
 20
0
  3
*D14
  1

  0
SOLID
  5
129
100
AcDbEntity
  8
Measurements
  6
ByBlock
 62
    0
370
   -2
100
AcDbTrace
 10
128
 20
490
 30
0
 11
125.5
 21
489.5837153422272
 31
0
 12
125.5
 22
490.4162846577728
 32
0
 13
125.5
 23
490.4162846577728
 33
0
  0
LINE
  5
12A
100
AcDbEntity
  8
Measurements
  6
ByBlock
 62
    0
370
   -2
100
AcDbLine
 10
100
 20
490
 11
128
 21
490
  0
MTEXT
  5
12B
100
AcDbEntity
  8
Measurements
  6
CONTINUOUS
 62
    0
370
   -2
100
AcDbMText
 10
114
 20
491.875
 30
0
 40
2.5
 41
7.777777777777779
 71
    5
 72
    1
  1
28.00
  7
standard
210
0
220
0
230
1
 50
0
 73
    2
 44
1
  0
ENDBLK
  5
98
330
96
100
AcDbEntity
  8
0
100
AcDbBlockEnd
  0
BLOCK
  5
9A
330
99
100
AcDbEntity
  8
0
100
AcDbBlockBegin
  2
*D24
 70
    1
 10
0
 20
0
  3
*D24
  1

  0
LINE
  5
12C
100
AcDbEntity
  8
Measurements
  6
ByBlock
 62
    0
370
   -2
100
AcDbLine
 10
635
 20
-30
 11
670
 21
-30
  0
SOLID
  5
12D
100
AcDbEntity
  8
Measurements
  6
ByBlock
 62
    0
370
   -2
100
AcDbTrace
 10
635
 20
-30
 30
0
 11
637.5
 21
-29.58371534222716
 31
0
 12
637.5
 22
-30.41628465777284
 32
0
 13
637.5
 23
-30.41628465777284
 33
0
  0
SOLID
  5
12E
100
AcDbEntity
  8
Measurements
  6
ByBlock
 62
    0
370
   -2
100
AcDbTrace
 10
670
 20
-30
 30
0
 11
667.5
 21
-30.41628465777284
 31
0
 12
667.5
 22
-29.58371534222716
 32
0
 13
667.5
 23
-29.58371534222716
 33
0
  0
MTEXT
  5
12F
100
AcDbEntity
  8
Measurements
  6
CONTINUOUS
 62
    0
370
   -2
100
AcDbMText
 10
652.5
 20
-28.125
 30
0
 40
2.5
 41
7.777777777778088
 71
    5
 72
    1
  1
35.00
  7
standard
210
0
220
0
230
1
 50
0
 73
    2
 44
1
  0
LINE
  5
130
100
AcDbEntity
  8
Measurements
  6
ByBlock
 62
    0
370
   -2
100
AcDbLine
 10
635
 20
-0.625
 11
635
 21
-31.25
  0
LINE
  5
131
100
AcDbEntity
  8
Measurements
  6
ByBlock
 62
    0
370
   -2
100
AcDbLine
 10
670
 20
-0.625
 11
670
 21
-31.25
  0
ENDBLK
  5
9B
330
99
100
AcDbEntity
  8
0
100
AcDbBlockEnd
  0
BLOCK
  5
9D
330
9C
100
AcDbEntity
  8
0
100
AcDbBlockBegin
  2
*D10
 70
    1
 10
0
 20
0
  3
*D10
  1

  0
SOLID
  5
132
100
AcDbEntity
  8
Measurements
  6
ByBlock
 62
    0
370
   -2
100
AcDbTrace
 10
12.2976411106968
 20
203.3113467781981
 30
0
 11
13.91230593571342
 21
205.2648437500798
 31
0
 12
14.45819948049714
 22
204.6362167518116
 32
0
 13
14.45819948049714
 23
204.6362167518116
 33
0
  0
LINE
  5
133
100
AcDbEntity
  8
Measurements
  6
ByBlock
 62
    0
370
   -2
100
AcDbLine
 10
10.78755183277002
 20
202
 11
20.47729136613356
 21
210.4144751601045
  0
MTEXT
  5
134
100
AcDbEntity
  8
Measurements
  6
CONTINUOUS
 62
    0
370
   -2
100
AcDbMText
 10
15.15807863385439
 20
208.2786196672077
 30
0
 40
2.5
 41
5.833333333333334
 71
    5
 72
    1
  1
2.00
  7
standard
210
0
220
0
230
1
 50
40.97072962283417
 73
    2
 44
1
  0
ENDBLK
  5
9E
330
9C
100
AcDbEntity
  8
0
100
AcDbBlockEnd
  0
BLOCK
  5
A0
330
9F
100
AcDbEntity
  8
0
100
AcDbBlockBegin
  2
*D2
 70
    1
 10
0
 20
0
  3
*D2
  1

  0
LINE
  5
135
100
AcDbEntity
  8
Measurements
  6
ByBlock
 62
    0
370
   -2
100
AcDbLine
 10
96
 20
410
 11
104
 21
410
  0
SOLID
  5
136
100
AcDbEntity
  8
Measurements
  6
ByBlock
 62
    0
370
   -2
100
AcDbTrace
 10
96
 20
410
 30
0
 11
98.5
 21
410.4162846577728
 31
0
 12
98.5
 22
409.5837153422272
 32
0
 13
98.5
 23
409.5837153422272
 33
0
  0
SOLID
  5
137
100
AcDbEntity
  8
Measurements
  6
ByBlock
 62
    0
370
   -2
100
AcDbTrace
 10
104
 20
410
 30
0
 11
101.5
 21
409.5837153422272
 31
0
 12
101.5
 22
410.4162846577728
 32
0
 13
101.5
 23
410.4162846577728
 33
0
  0
MTEXT
  5
138
100
AcDbEntity
  8
Measurements
  6
CONTINUOUS
 62
    0
370
   -2
100
AcDbMText
 10
100
 20
411.875
 30
0
 40
2.5
 41
5.833333333333334
 71
    5
 72
    1
  1
8.00
  7
standard
210
0
220
0
230
1
 50
0
 73
    2
 44
1
  0
LINE
  5
139
100
AcDbEntity
  8
Measurements
  6
ByBlock
 62
    0
370
   -2
100
AcDbLine
 10
96
 20
410.3165525105815
 11
96
 21
408.75
  0
LINE
  5
13A
100
AcDbEntity
  8
Measurements
  6
ByBlock
 62
    0
370
   -2
100
AcDbLine
 10
104
 20
410.3165525105812
 11
104
 21
408.75
  0
ENDBLK
  5
A1
330
9F
100
AcDbEntity
  8
0
100
AcDbBlockEnd
  0
BLOCK
  5
A3
330
A2
100
AcDbEntity
  8
0
100
AcDbBlockBegin
  2
*D3
 70
    1
 10
0
 20
0
  3
*D3
  1

  0
LINE
  5
13B
100
AcDbEntity
  8
Measurements
  6
ByBlock
 62
    0
370
   -2
100
AcDbLine
 10
250
 20
0
 11
250
 21
100
  0
SOLID
  5
13C
100
AcDbEntity
  8
Measurements
  6
ByBlock
 62
    0
370
   -2
100
AcDbTrace
 10
250
 20
0
 30
0
 11
249.5837153422272
 21
2.5
 31
0
 12
250.4162846577728
 22
2.5
 32
0
 13
250.4162846577728
 23
2.5
 33
0
  0
SOLID
  5
13D
100
AcDbEntity
  8
Measurements
  6
ByBlock
 62
    0
370
   -2
100
AcDbTrace
 10
250
 20
100
 30
0
 11
250.4162846577728
 21
97.5
 31
0
 12
249.5837153422272
 22
97.5
 32
0
 13
249.5837153422272
 23
97.5
 33
0
  0
MTEXT
  5
13E
100
AcDbEntity
  8
Measurements
  6
CONTINUOUS
 62
    0
370
   -2
100
AcDbMText
 10
248.125
 20
50
 30
0
 40
2.5
 41
9.166666666666668
 71
    5
 72
    1
  1
100.00
  7
standard
210
0
220
0
230
1
 50
90
 73
    2
 44
1
  0
LINE
  5
13F
100
AcDbEntity
  8
Measurements
  6
ByBlock
 62
    0
370
   -2
100
AcDbLine
 10
200.625
 20
0
 11
251.25
 21
0
  0
LINE
  5
140
100
AcDbEntity
  8
Measurements
  6
ByBlock
 62
    0
370
   -2
100
AcDbLine
 10
100.625
 20
100
 11
251.25
 21
100
  0
ENDBLK
  5
A4
330
A2
100
AcDbEntity
  8
0
100
AcDbBlockEnd
  0
BLOCK
  5
A6
330
A5
100
AcDbEntity
  8
0
100
AcDbBlockBegin
  2
*D15
 70
    1
 10
0
 20
0
  3
*D15
  1

  0
SOLID
  5
141
100
AcDbEntity
  8
Measurements
  6
ByBlock
 62
    0
370
   -2
100
AcDbTrace
 10
104.1611607128474
 20
234.3225850508528
 30
0
 11
105.5950733701024
 21
236.4123667159224
 31
0
 12
106.1948819829652
 22
235.8349575948272
 32
0
 13
106.1948819829652
 23
235.8349575948272
 33
0
  0
LINE
  5
142
100
AcDbEntity
  8
Measurements
  6
ByBlock
 62
    0
370
   -2
100
AcDbLine
 10
100
 20
230
 11
111.6743675554886
 21
242.1272525037815
  0
MTEXT
  5
143
100
AcDbEntity
  8
Measurements
  6
CONTINUOUS
 62
    0
370
   -2
100
AcDbMText
 10
106.5669563057765
 20
239.5252815000819
 30
0
 40
2.5
 41
5.833333333333488
 71
    5
 72
    1
  1
6.00
  7
standard
210
0
220
0
230
1
 50
46.09006299825945
 73
    2
 44
1
  0
ENDBLK
  5
A7
330
A5
100
AcDbEntity
  8
0
100
AcDbBlockEnd
  0
BLOCK
  5
A9
330
A8
100
AcDbEntity
  8
0
100
AcDbBlockBegin
  2
*D23
 70
    1
 10
0
 20
0
  3
*D23
  1

  0
LINE
  5
144
100
AcDbEntity
  8
Main
  6
CONTINUOUS
 62
    7
370
    0
100
AcDbLine
 10
100
 20
-67.17032595733278
 11
150
 21
-67.17032595733278
  0
SOLID
  5
145
100
AcDbEntity
  8
Main
  6
CONTINUOUS
 62
    7
370
    0
100
AcDbTrace
 10
100
 20
-67.17032595733278
 30
0
 11
102.5
 21
-66.75404129955994
 31
0
 12
102.5
 22
-67.58661061510561
 32
0
 13
102.5
 23
-67.58661061510561
 33
0
  0
ENDBLK
  5
AA
330
A8
100
AcDbEntity
  8
0
100
AcDbBlockEnd
  0
BLOCK
  5
AC
330
AB
100
AcDbEntity
  8
0
100
AcDbBlockBegin
  2
Projection-EU
 70
    0
 10
0
 20
0
  3
Projection-EU
  1

  0
CIRCLE
  5
146
100
AcDbEntity
  8
0
  6
ByLayer
 62
  256
370
   -1
100
AcDbCircle
 10
0
 20
0
 40
4
  0
CIRCLE
  5
147
100
AcDbEntity
  8
0
  6
ByLayer
 62
  256
370
   -1
100
AcDbCircle
 10
0
 20
0
 40
2.5
  0
LINE
  5
148
100
AcDbEntity
  8
0
  6
ByLayer
 62
  256
370
   -1
100
AcDbLine
 10
-5.5
 20
4
 11
-16
 21
2.5
  0
LINE
  5
149
100
AcDbEntity
  8
0
  6
ByLayer
 62
  256
370
   -1
100
AcDbLine
 10
-16
 20
2.5
 11
-16
 21
-2.499999999999996
  0
LINE
  5
14A
100
AcDbEntity
  8
0
  6
ByLayer
 62
  256
370
   -1
100
AcDbLine
 10
-16
 20
-2.499999999999996
 11
-5.5
 21
-3.999999999999999
  0
LINE
  5
14B
100
AcDbEntity
  8
0
  6
ByLayer
 62
  256
370
   -1
100
AcDbLine
 10
-5.5
 20
-3.999999999999999
 11
-5.5
 21
4
  0
ENDBLK
  5
AD
330
AB
100
AcDbEntity
  8
0
100
AcDbBlockEnd
  0
BLOCK
  5
AF
330
AE
100
AcDbEntity
  8
0
100
AcDbBlockBegin
  2
Projection-EU-0
 70
    0
 10
0
 20
0
  3
Projection-EU-0
  1

  0
CIRCLE
  5
14C
100
AcDbEntity
  8
0
  6
ByLayer
 62
  256
370
   -1
100
AcDbCircle
 10
0
 20
0
 40
4
  0
CIRCLE
  5
14D
100
AcDbEntity
  8
0
  6
ByLayer
 62
  256
370
   -1
100
AcDbCircle
 10
0
 20
0
 40
2.5
  0
LINE
  5
14E
100
AcDbEntity
  8
0
  6
ByLayer
 62
  256
370
   -1
100
AcDbLine
 10
-5.5
 20
4
 11
-16
 21
2.5
  0
LINE
  5
14F
100
AcDbEntity
  8
0
  6
ByLayer
 62
  256
370
   -1
100
AcDbLine
 10
-16
 20
2.5
 11
-16
 21
-2.499999999999996
  0
LINE
  5
150
100
AcDbEntity
  8
0
  6
ByLayer
 62
  256
370
   -1
100
AcDbLine
 10
-16
 20
-2.499999999999996
 11
-5.5
 21
-3.999999999999999
  0
LINE
  5
151
100
AcDbEntity
  8
0
  6
ByLayer
 62
  256
370
   -1
100
AcDbLine
 10
-5.5
 20
-3.999999999999999
 11
-5.5
 21
4
  0
ENDBLK
  5
B0
330
AE
100
AcDbEntity
  8
0
100
AcDbBlockEnd
  0
BLOCK
  5
B2
330
B1
100
AcDbEntity
  8
0
100
AcDbBlockBegin
  2
Projection-EU-1
 70
    0
 10
0
 20
0
  3
Projection-EU-1
  1

  0
CIRCLE
  5
152
100
AcDbEntity
  8
0
  6
ByLayer
 62
  256
370
   -1
100
AcDbCircle
 10
0
 20
0
 40
4
  0
CIRCLE
  5
153
100
AcDbEntity
  8
0
  6
ByLayer
 62
  256
370
   -1
100
AcDbCircle
 10
0
 20
0
 40
2.5
  0
LINE
  5
154
100
AcDbEntity
  8
0
  6
ByLayer
 62
  256
370
   -1
100
AcDbLine
 10
-5.5
 20
4
 11
-16
 21
2.5
  0
LINE
  5
155
100
AcDbEntity
  8
0
  6
ByLayer
 62
  256
370
   -1
100
AcDbLine
 10
-16
 20
2.5
 11
-16
 21
-2.499999999999996
  0
LINE
  5
156
100
AcDbEntity
  8
0
  6
ByLayer
 62
  256
370
   -1
100
AcDbLine
 10
-16
 20
-2.499999999999996
 11
-5.5
 21
-3.999999999999999
  0
LINE
  5
157
100
AcDbEntity
  8
0
  6
ByLayer
 62
  256
370
   -1
100
AcDbLine
 10
-5.5
 20
-3.999999999999999
 11
-5.5
 21
4
  0
ENDBLK
  5
B3
330
B1
100
AcDbEntity
  8
0
100
AcDbBlockEnd
  0
BLOCK
  5
B5
330
B4
100
AcDbEntity
  8
0
100
AcDbBlockBegin
  2
Projection-EU-2
 70
    0
 10
0
 20
0
  3
Projection-EU-2
  1

  0
CIRCLE
  5
158
100
AcDbEntity
  8
0
  6
ByLayer
 62
  256
370
   -1
100
AcDbCircle
 10
0
 20
0
 40
4
  0
CIRCLE
  5
159
100
AcDbEntity
  8
0
  6
ByLayer
 62
  256
370
   -1
100
AcDbCircle
 10
0
 20
0
 40
2.5
  0
LINE
  5
15A
100
AcDbEntity
  8
0
  6
ByLayer
 62
  256
370
   -1
100
AcDbLine
 10
-5.5
 20
4
 11
-16
 21
2.5
  0
LINE
  5
15B
100
AcDbEntity
  8
0
  6
ByLayer
 62
  256
370
   -1
100
AcDbLine
 10
-16
 20
2.5
 11
-16
 21
-2.499999999999996
  0
LINE
  5
15C
100
AcDbEntity
  8
0
  6
ByLayer
 62
  256
370
   -1
100
AcDbLine
 10
-16
 20
-2.499999999999996
 11
-5.5
 21
-3.999999999999999
  0
LINE
  5
15D
100
AcDbEntity
  8
0
  6
ByLayer
 62
  256
370
   -1
100
AcDbLine
 10
-5.5
 20
-3.999999999999999
 11
-5.5
 21
4
  0
ENDBLK
  5
B6
330
B4
100
AcDbEntity
  8
0
100
AcDbBlockEnd
  0
BLOCK
  5
B8
330
B7
100
AcDbEntity
  8
0
100
AcDbBlockBegin
  2
A4-frame-large-no-layers
 70
    0
 10
0
 20
0
  3
A4-frame-large-no-layers
  1

  0
LWPOLYLINE
  5
15E
100
AcDbEntity
  8
0
  6
ByLayer
 62
  256
370
   -1
100
AcDbPolyline
 90
    4
 70
    1
 43
0
 10
-292
 20
-292
 10
816
 20
-292
 10
816
 20
468
 10
-292
 20
468
  0
LINE
  5
15F
100
AcDbEntity
  8
0
  6
ByLayer
 62
  256
370
   -1
100
AcDbLine
 10
-292
 20
-292
 11
-292
 21
-300
  0
LINE
  5
160
100
AcDbEntity
  8
0
  6
ByLayer
 62
  256
370
   -1
100
AcDbLine
 10
-292
 20
-300
 11
-292
 21
-292
  0
LINE
  5
161
100
AcDbEntity
  8
0
  6
ByLayer
 62
  256
370
   -1
100
AcDbLine
 10
-292
 20
-292
 11
-300
 21
-292
  0
LINE
  5
162
100
AcDbEntity
  8
0
  6
ByLayer
 62
  256
370
   -1
100
AcDbLine
 10
376
 20
-292
 11
376
 21
-132
  0
LINE
  5
163
100
AcDbEntity
  8
0
  6
ByLayer
 62
  256
370
   -1
100
AcDbLine
 10
376
 20
-132
 11
816
 21
-132
  0
LINE
  5
164
100
AcDbEntity
  8
0
  6
ByLayer
 62
  256
370
   -1
100
AcDbLine
 10
496
 20
-292
 11
496
 21
-132
  0
LINE
  5
165
100
AcDbEntity
  8
0
  6
ByLayer
 62
  256
370
   -1
100
AcDbLine
 10
696
 20
-292
 11
696
 21
-132
  0
LINE
  5
166
100
AcDbEntity
  8
0
  6
ByLayer
 62
  256
370
   -1
100
AcDbLine
 10
376
 20
-252
 11
816
 21
-252
  0
LINE
  5
167
100
AcDbEntity
  8
0
  6
ByLayer
 62
  256
370
   -1
100
AcDbLine
 10
696
 20
-212
 11
816
 21
-212
  0
LINE
  5
168
100
AcDbEntity
  8
0
  6
ByLayer
 62
  256
370
   -1
100
AcDbLine
 10
496
 20
-172
 11
816
 21
-172
  0
MTEXT
  5
169
100
AcDbEntity
  8
0
  6
ByLayer
 62
  256
370
   -1
100
AcDbMText
 10
381.1622220396096
 20
-137.0763805715452
 30
0
 40
8
 41
30.22222222222259
 71
    1
 72
    1
  1
Owner
  7
standard
210
0
220
0
230
1
 50
0
 73
    2
 44
1
  0
MTEXT
  5
16A
100
AcDbEntity
  8
0
  6
ByLayer
 62
  256
370
   -1
100
AcDbMText
 10
381.6529155897224
 20
-257.6074155506886
 30
0
 40
8
 41
25.77777608176095
 71
    1
 72
    1
  1
Scale
  7
standard
210
0
220
0
230
1
 50
0
 73
    2
 44
1
  0
MTEXT
  5
16B
100
AcDbEntity
  8
0
  6
ByLayer
 62
  256
370
   -1
100
AcDbMText
 10
502.1547631118136
 20
-136.4384760172742
 30
0
 40
8
 41
37.33333333333371
 71
    1
 72
    1
  1
Project
  7
standard
210
0
220
0
230
1
 50
0
 73
    2
 44
1
  0
MTEXT
  5
16C
100
AcDbEntity
  8
0
  6
ByLayer
 62
  256
370
   -1
100
AcDbMText
 10
500.5727815119892
 20
-179.1519792125312
 30
0
 40
8
 41
54.88888888889001
 71
    1
 72
    1
  1
Part Name
  7
standard
210
0
220
0
230
1
 50
0
 73
    2
 44
1
  0
MTEXT
  5
16D
100
AcDbEntity
  8
0
  6
ByLayer
 62
  256
370
   -1
100
AcDbMText
 10
700.429790289796
 20
-135.9111488173328
 30
0
 40
8
 41
40.88889300318683
 71
    1
 72
    1
  1
Revision
  7
standard
210
0
220
0
230
1
 50
0
 73
    2
 44
1
  0
MTEXT
  5
16E
100
AcDbEntity
  8
0
  6
ByLayer
 62
  256
370
   -1
100
AcDbMText
 10
699.9024630898556
 20
-178.0973248126482
 30
0
 40
8
 41
38.22222222222359
 71
    1
 72
    1
  1
Date/ID
  7
standard
210
0
220
0
230
1
 50
0
 73
    2
 44
1
  0
MTEXT
  5
16F
100
AcDbEntity
  8
0
  6
ByLayer
 62
  256
370
   -1
100
AcDbMText
 10
699.70543967143
 20
-215.9576802542747
 30
0
 40
8
 41
43.55555966985438
 71
    1
 72
    1
  1
Designer
  7
standard
210
0
220
0
230
1
 50
0
 73
    2
 44
1
  0
LINE
  5
170
100
AcDbEntity
  8
0
  6
ByLayer
 62
  256
370
   -1
100
AcDbLine
 10
-92
 20
-300
 11
-92
 21
-292
  0
LINE
  5
171
100
AcDbEntity
  8
0
  6
ByLayer
 62
  256
370
   -1
100
AcDbLine
 10
108
 20
-300
 11
108
 21
-292
  0
LINE
  5
172
100
AcDbEntity
  8
0
  6
ByLayer
 62
  256
370
   -1
100
AcDbLine
 10
308
 20
-300
 11
308
 21
-292
  0
LINE
  5
173
100
AcDbEntity
  8
0
  6
ByLayer
 62
  256
370
   -1
100
AcDbLine
 10
508
 20
-300
 11
508
 21
-292
  0
LINE
  5
174
100
AcDbEntity
  8
0
  6
ByLayer
 62
  256
370
   -1
100
AcDbLine
 10
708
 20
-300
 11
708
 21
-292
  0
LINE
  5
175
100
AcDbEntity
  8
0
  6
ByLayer
 62
  256
370
   -1
100
AcDbLine
 10
-292
 20
-92
 11
-300
 21
-92
  0
LINE
  5
176
100
AcDbEntity
  8
0
  6
ByLayer
 62
  256
370
   -1
100
AcDbLine
 10
-292
 20
108
 11
-300
 21
108
  0
LINE
  5
177
100
AcDbEntity
  8
0
  6
ByLayer
 62
  256
370
   -1
100
AcDbLine
 10
-292
 20
308
 11
-300
 21
308
  0
LINE
  5
178
100
AcDbEntity
  8
0
  6
ByLayer
 62
  256
370
   -1
100
AcDbLine
 10
824
 20
-300
 11
824
 21
476
  0
LINE
  5
179
100
AcDbEntity
  8
0
  6
ByLayer
 62
  256
370
   -1
100
AcDbLine
 10
-300
 20
-300
 11
824
 21
-300
  0
LINE
  5
17A
100
AcDbEntity
  8
0
  6
ByLayer
 62
  256
370
   -1
100
AcDbLine
 10
-300
 20
-300
 11
-300
 21
476
  0
LINE
  5
17B
100
AcDbEntity
  8
0
  6
ByLayer
 62
  256
370
   -1
100
AcDbLine
 10
824
 20
476
 11
-300
 21
476
  0
LINE
  5
17C
100
AcDbEntity
  8
0
  6
ByLayer
 62
  256
370
   -1
100
AcDbLine
 10
496
 20
-212
 11
376
 21
-212
  0
LINE
  5
17D
100
AcDbEntity
  8
0
  6
ByLayer
 62
  256
370
   -1
100
AcDbLine
 10
-92
 20
476
 11
-92
 21
468
  0
LINE
  5
17E
100
AcDbEntity
  8
0
  6
ByLayer
 62
  256
370
   -1
100
AcDbLine
 10
108
 20
476
 11
108
 21
468
  0
LINE
  5
17F
100
AcDbEntity
  8
0
  6
ByLayer
 62
  256
370
   -1
100
AcDbLine
 10
308
 20
476
 11
308
 21
468
  0
LINE
  5
180
100
AcDbEntity
  8
0
  6
ByLayer
 62
  256
370
   -1
100
AcDbLine
 10
508
 20
476
 11
508
 21
468
  0
LINE
  5
181
100
AcDbEntity
  8
0
  6
ByLayer
 62
  256
370
   -1
100
AcDbLine
 10
708
 20
476
 11
708
 21
468
  0
LINE
  5
182
100
AcDbEntity
  8
0
  6
ByLayer
 62
  256
370
   -1
100
AcDbLine
 10
816
 20
-91.99999999999989
 11
824
 21
-91.99999999999989
  0
LINE
  5
183
100
AcDbEntity
  8
0
  6
ByLayer
 62
  256
370
   -1
100
AcDbLine
 10
816
 20
108
 11
824
 21
108
  0
LINE
  5
184
100
AcDbEntity
  8
0
  6
ByLayer
 62
  256
370
   -1
100
AcDbLine
 10
816
 20
308
 11
824
 21
308
  0
INSERT
  5
185
100
AcDbEntity
  8
0
  6
ByLayer
 62
  256
370
   -1
100
AcDbBlockReference
  2
Projection-EU-2
 10
463.6799999999999
 20
-231.9668
 30
0
 41
4
 42
4
 43
0
 50
0
 70
    1
 71
    1
 44
0
 45
0
  0
MTEXT
  5
186
100
AcDbEntity
  8
0
  6
ByLayer
 62
  256
370
   -1
100
AcDbMText
 10
-296
 20
-184
 30
0
 40
4
 41
0.8888888888888888
 71
    4
 72
    1
  1
1
  7
standard
210
0
220
0
230
1
 50
90
 73
    2
 44
1
  0
MTEXT
  5
187
100
AcDbEntity
  8
0
  6
ByLayer
 62
  256
370
   -1
100
AcDbMText
 10
-296
 20
8
 30
0
 40
4
 41
1.777777777777778
 71
    4
 72
    1
  1
2
  7
standard
210
0
220
0
230
1
 50
90
 73
    2
 44
1
  0
MTEXT
  5
188
100
AcDbEntity
  8
0
  6
ByLayer
 62
  256
370
   -1
100
AcDbMText
 10
-296
 20
208
 30
0
 40
4
 41
1.777777777778026
 71
    4
 72
    1
  1
3
  7
standard
210
0
220
0
230
1
 50
90
 73
    2
 44
1
  0
MTEXT
  5
189
100
AcDbEntity
  8
0
  6
ByLayer
 62
  256
370
   -1
100
AcDbMText
 10
-296
 20
388
 30
0
 40
4
 41
2.222222222222222
 71
    4
 72
    1
  1
4
  7
standard
210
0
220
0
230
1
 50
90
 73
    2
 44
1
  0
MTEXT
  5
18A
100
AcDbEntity
  8
0
  6
ByLayer
 62
  256
370
   -1
100
AcDbMText
 10
768
 20
-296
 30
0
 40
4
 41
2.666666666666667
 71
    5
 72
    1
  1
A
  7
standard
210
0
220
0
230
1
 50
0
 73
    2
 44
1
  0
MTEXT
  5
18B
100
AcDbEntity
  8
0
  6
ByLayer
 62
  256
370
   -1
100
AcDbMText
 10
604
 20
-296
 30
0
 40
4
 41
2.222222222222222
 71
    5
 72
    1
  1
B
  7
standard
210
0
220
0
230
1
 50
0
 73
    2
 44
1
  0
MTEXT
  5
18C
100
AcDbEntity
  8
0
  6
ByLayer
 62
  256
370
   -1
100
AcDbMText
 10
408
 20
-296
 30
0
 40
4
 41
1.777777777778026
 71
    5
 72
    1
  1
C
  7
standard
210
0
220
0
230
1
 50
0
 73
    2
 44
1
  0
MTEXT
  5
18D
100
AcDbEntity
  8
0
  6
ByLayer
 62
  256
370
   -1
100
AcDbMText
 10
208
 20
-296
 30
0
 40
4
 41
2.22222222222247
 71
    5
 72
    1
  1
D
  7
standard
210
0
220
0
230
1
 50
0
 73
    2
 44
1
  0
MTEXT
  5
18E
100
AcDbEntity
  8
0
  6
ByLayer
 62
  256
370
   -1
100
AcDbMText
 10
7.999999999999886
 20
-296
 30
0
 40
4
 41
1.777777777777778
 71
    5
 72
    1
  1
E
  7
standard
210
0
220
0
230
1
 50
0
 73
    2
 44
1
  0
MTEXT
  5
18F
100
AcDbEntity
  8
0
  6
ByLayer
 62
  256
370
   -1
100
AcDbMText
 10
-200
 20
-296
 30
0
 40
4
 41
1.777777777777778
 71
    5
 72
    1
  1
F
  7
standard
210
0
220
0
230
1
 50
0
 73
    2
 44
1
  0
MTEXT
  5
190
100
AcDbEntity
  8
0
  6
ByLayer
 62
  256
370
   -1
100
AcDbMText
 10
820
 20
-184
 30
0
 40
4
 41
0.8888888888888888
 71
    6
 72
    1
  1
1
  7
standard
210
0
220
0
230
1
 50
0
 73
    2
 44
1
  0
MTEXT
  5
191
100
AcDbEntity
  8
0
  6
ByLayer
 62
  256
370
   -1
100
AcDbMText
 10
820
 20
8
 30
0
 40
4
 41
1.777777777777778
 71
    6
 72
    1
  1
2
  7
standard
210
0
220
0
230
1
 50
0
 73
    2
 44
1
  0
MTEXT
  5
192
100
AcDbEntity
  8
0
  6
ByLayer
 62
  256
370
   -1
100
AcDbMText
 10
820
 20
208
 30
0
 40
4
 41
1.777777777778026
 71
    6
 72
    1
  1
3
  7
standard
210
0
220
0
230
1
 50
0
 73
    2
 44
1
  0
MTEXT
  5
193
100
AcDbEntity
  8
0
  6
ByLayer
 62
  256
370
   -1
100
AcDbMText
 10
820
 20
388
 30
0
 40
4
 41
2.222222222222222
 71
    6
 72
    1
  1
4
  7
standard
210
0
220
0
230
1
 50
0
 73
    2
 44
1
  0
MTEXT
  5
194
100
AcDbEntity
  8
0
  6
ByLayer
 62
  256
370
   -1
100
AcDbMText
 10
768
 20
472
 30
0
 40
4
 41
2.666666666666667
 71
    5
 72
    1
  1
A
  7
standard
210
0
220
0
230
1
 50
90
 73
    2
 44
1
  0
MTEXT
  5
195
100
AcDbEntity
  8
0
  6
ByLayer
 62
  256
370
   -1
100
AcDbMText
 10
604
 20
472
 30
0
 40
4
 41
2.222222222222222
 71
    5
 72
    1
  1
B
  7
standard
210
0
220
0
230
1
 50
90
 73
    2
 44
1
  0
MTEXT
  5
196
100
AcDbEntity
  8
0
  6
ByLayer
 62
  256
370
   -1
100
AcDbMText
 10
408
 20
472
 30
0
 40
4
 41
1.777777777778026
 71
    5
 72
    1
  1
C
  7
standard
210
0
220
0
230
1
 50
90
 73
    2
 44
1
  0
MTEXT
  5
197
100
AcDbEntity
  8
0
  6
ByLayer
 62
  256
370
   -1
100
AcDbMText
 10
208
 20
472
 30
0
 40
4
 41
2.22222222222247
 71
    5
 72
    1
  1
D
  7
standard
210
0
220
0
230
1
 50
90
 73
    2
 44
1
  0
MTEXT
  5
198
100
AcDbEntity
  8
0
  6
ByLayer
 62
  256
370
   -1
100
AcDbMText
 10
8
 20
472
 30
0
 40
4
 41
1.777777777777778
 71
    5
 72
    1
  1
E
  7
standard
210
0
220
0
230
1
 50
90
 73
    2
 44
1
  0
MTEXT
  5
199
100
AcDbEntity
  8
0
  6
ByLayer
 62
  256
370
   -1
100
AcDbMText
 10
-200
 20
472
 30
0
 40
4
 41
1.777777777777778
 71
    5
 72
    1
  1
F
  7
standard
210
0
220
0
230
1
 50
90
 73
    2
 44
1
  0
LINE
  5
19A
100
AcDbEntity
  8
0
  6
ByLayer
 62
  256
370
   -1
100
AcDbLine
 10
-292
 20
468
 11
-300
 21
468
  0
LINE
  5
19B
100
AcDbEntity
  8
0
  6
ByLayer
 62
  256
370
   -1
100
AcDbLine
 10
-300
 20
468
 11
-292
 21
468
  0
LINE
  5
19C
100
AcDbEntity
  8
0
  6
ByLayer
 62
  256
370
   -1
100
AcDbLine
 10
-292
 20
468
 11
-292
 21
476
  0
LINE
  5
19D
100
AcDbEntity
  8
0
  6
ByLayer
 62
  256
370
   -1
100
AcDbLine
 10
816
 20
468
 11
824
 21
468
  0
LINE
  5
19E
100
AcDbEntity
  8
0
  6
ByLayer
 62
  256
370
   -1
100
AcDbLine
 10
816
 20
468
 11
816
 21
476
  0
LINE
  5
19F
100
AcDbEntity
  8
0
  6
ByLayer
 62
  256
370
   -1
100
AcDbLine
 10
816
 20
-292
 11
824
 21
-292
  0
LINE
  5
1A0
100
AcDbEntity
  8
0
  6
ByLayer
 62
  256
370
   -1
100
AcDbLine
 10
816
 20
-292
 11
816
 21
-300
  0
MTEXT
  5
1A1
100
AcDbEntity
  8
0
  6
ByLayer
 62
  256
370
   -1
100
AcDbMText
 10
432
 20
-278
 30
0
 40
10
 41
11.11111111111111
 71
    4
 72
    1
  1
1:1
  7
standard
210
0
220
0
230
1
 50
0
 73
    2
 44
1
  0
MTEXT
  5
1A2
100
AcDbEntity
  8
0
  6
ByLayer
 62
  256
370
   -1
100
AcDbMText
 10
742
 20
-158
 30
0
 40
10
 41
13.33333333333333
 71
    4
 72
    1
  1
1.0
  7
standard
210
0
220
0
230
1
 50
0
 73
    2
 44
1
  0
MTEXT
  5
1A3
100
AcDbEntity
  8
0
  6
ByLayer
 62
  256
370
   -1
100
AcDbMText
 10
732
 20
-238
 30
0
 40
10
 41
32.22222222222269
 71
    4
 72
    1
  1
Michy
  7
standard
210
0
220
0
230
1
 50
0
 73
    2
 44
1
  0
ENDBLK
  5
B9
330
B7
100
AcDbEntity
  8
0
100
AcDbBlockEnd
  0
ENDSEC
  0
SECTION
  2
ENTITIES
  0
HATCH
  5
1A4
100
AcDbEntity
  8
Section
  6
ByLayer
 62
  256
370
   -1
100
AcDbHatch
 10
0
 20
0
 30
0
210
0
220
0
230
1
  2
gost_wood1
 70
    0
 71
    0
 91
    1
 92
    0
 93
    9
 72
    1
 10
635
 20
350
 11
675
 21
350
 72
    1
 10
675
 20
350
 11
675
 21
360
 72
    1
 10
675
 20
360.0000000000003
 11
658
 21
360.0000000000003
 72
    1
 10
658
 20
360.0000000000003
 11
658
 21
461.9999999999989
 72
    1
 10
658
 20
461.9999999999989
 11
685
 21
461.9999999999983
 72
    1
 10
685
 20
461.9999999999983
 11
685
 21
471.9999999999983
 72
    1
 10
685
 20
471.9999999999983
 11
635
 21
471.9999999999983
 72
    1
 10
635
 20
471.9999999999983
 11
635
 21
360.0000000000003
 72
    1
 10
635
 20
360.0000000000003
 11
635
 21
350
 97
    0
 75
    0
 76
    1
 52
0.7853981633974483
 41
0.45
 77
    0
 78
    0
 98
    0
  0
HATCH
  5
1A5
100
AcDbEntity
  8
Section
  6
ByLayer
 62
  256
370
   -1
100
AcDbHatch
 10
0
 20
0
 30
0
210
0
220
0
230
1
  2
gost_wood1
 70
    0
 71
    0
 91
    1
 92
    0
 93
    4
 72
    1
 10
685
 20
507.9999999999972
 11
685
 21
517.9999999999993
 72
    1
 10
685
 20
517.9999999999993
 11
635
 21
517.9999999999993
 72
    1
 10
635
 20
517.9999999999993
 11
635
 21
507.9999999999973
 72
    1
 10
635
 20
507.9999999999974
 11
685
 21
507.9999999999972
 97
    0
 75
    0
 76
    1
 52
0.7853981633974483
 41
0.45
 77
    0
 78
    0
 98
    0
  0
HATCH
  5
1A6
100
AcDbEntity
  8
Section
  6
ByLayer
 62
  256
370
   -1
100
AcDbHatch
 10
0
 20
0
 30
0
210
0
220
0
230
1
  2
gost_wood1
 70
    0
 71
    0
 91
    1
 92
    0
 93
   10
 72
    1
 10
670
 20
236.0000000000044
 11
670
 21
243
 72
    1
 10
670
 20
243
 11
658
 21
243
 72
    1
 10
658
 20
243
 11
658
 21
320
 72
    1
 10
658
 20
320
 11
670
 21
320
 72
    1
 10
670
 20
320
 11
675
 21
320
 72
    1
 10
675
 20
320
 11
675
 21
330.0000000000007
 72
    1
 10
675
 20
330.0000000000007
 11
635
 21
330.0000000000007
 72
    1
 10
635
 20
330.0000000000007
 11
635
 21
243
 72
    1
 10
635
 20
243
 11
635
 21
236.0000000000042
 72
    1
 10
635
 20
236.0000000000044
 11
670
 21
236.0000000000044
 97
    0
 75
    0
 76
    1
 52
0.7853981633974483
 41
0.45
 77
    0
 78
    0
 98
    0
  0
HATCH
  5
1A7
100
AcDbEntity
  8
Section
  6
ByLayer
 62
  256
370
   -1
100
AcDbHatch
 10
0
 20
0
 30
0
210
0
220
0
230
1
  2
gost_wood1
 70
    0
 71
    0
 91
    1
 92
    0
 93
    8
 72
    1
 10
670
 20
122.4999999999997
 11
670
 21
135
 72
    1
 10
670
 20
135
 11
643
 21
135
 72
    1
 10
643
 20
135
 11
643
 21
192
 72
    1
 10
643
 20
192
 11
670
 21
192
 72
    1
 10
670
 20
192
 11
670
 21
224
 72
    1
 10
670
 20
224
 11
635
 21
224
 72
    1
 10
635
 20
224
 11
635
 21
122.4999999999997
 72
    1
 10
635
 20
122.4999999999997
 11
670
 21
122.4999999999997
 97
    0
 75
    0
 76
    1
 52
0.7853981633974483
 41
0.45
 77
    0
 78
    0
 98
    0
  0
HATCH
  5
1A8
100
AcDbEntity
  8
Section
  6
ByLayer
 62
  256
370
   -1
100
AcDbHatch
 10
0
 20
0
 30
0
210
0
220
0
230
1
  2
gost_wood1
 70
    0
 71
    0
 91
    1
 92
    0
 93
    8
 72
    1
 10
670
 20
0
 11
670
 21
8
 72
    1
 10
670
 20
8
 11
643
 21
8
 72
    1
 10
643
 20
8
 11
643
 21
65.0000000000001
 72
    1
 10
643
 20
65.00000000000009
 11
670
 21
65.0000000000001
 72
    1
 10
670
 20
65.0000000000001
 11
670
 21
77.5
 72
    1
 10
670
 20
77.5
 11
635
 21
77.5
 72
    1
 10
635
 20
77.5
 11
635
 21
0
 72
    1
 10
635
 20
0
 11
670
 21
0
 97
    0
 75
    0
 76
    1
 52
0.7853981633974483
 41
0.45
 77
    0
 78
    0
 98
    0
  0
LINE
  5
1A9
100
AcDbEntity
  8
Main
  6
ByLayer
 62
  256
370
   -1
100
AcDbLine
 10
0
 20
0
 11
200
 21
0
  0
LINE
  5
1AA
100
AcDbEntity
  8
Main
  6
ByLayer
 62
  256
370
   -1
100
AcDbLine
 10
200
 20
0
 11
200
 21
100
  0
LINE
  5
1AB
100
AcDbEntity
  8
Main
  6
ByLayer
 62
  256
370
   -1
100
AcDbLine
 10
200
 20
100
 11
200
 21
200
  0
LINE
  5
1AC
100
AcDbEntity
  8
Main
  6
ByLayer
 62
  256
370
   -1
100
AcDbLine
 10
0
 20
200
 11
0
 21
0
  0
LINE
  5
1AD
100
AcDbEntity
  8
Construction
  6
ByLayer
 62
  256
370
   -1
100
AcDbLine
 10
0
 20
200
 11
200
 21
0
  0
LINE
  5
1AE
100
AcDbEntity
  8
Construction
  6
ByLayer
 62
  256
370
   -1
100
AcDbLine
 10
200
 20
200
 11
0
 21
0
  0
CIRCLE
  5
1AF
100
AcDbEntity
  8
Main
  6
ByLayer
 62
  256
370
   -1
100
AcDbCircle
 10
100
 20
100
 40
35
  0
CIRCLE
  5
1B0
100
AcDbEntity
  8
Main
  6
ByLayer
 62
  256
370
   -1
100
AcDbCircle
 10
100
 20
100
 40
22.5
  0
LINE
  5
1B1
100
AcDbEntity
  8
Centerline
  6
ByLayer
 62
  256
370
   -1
100
AcDbLine
 10
-20
 20
100
 11
230
 21
100
  0
LINE
  5
1B2
100
AcDbEntity
  8
Main
  6
ByLayer
 62
  256
370
   -1
100
AcDbLine
 10
77.46366433168376
 20
73.22102364456448
 11
12.24264068711928
 21
8
  0
LINE
  5
1B3
100
AcDbEntity
  8
Main
  6
ByLayer
 62
  256
370
   -1
100
AcDbLine
 10
73.22102364456444
 20
77.46366433168372
 11
8
 21
12.24264068711929
  0
LINE
  5
1B4
100
AcDbEntity
  8
Main
  6
ByLayer
 62
  256
370
   -1
100
AcDbLine
 10
122.5363356683163
 20
73.22102364456444
 11
187.7573593128807
 21
8
  0
LINE
  5
1B5
100
AcDbEntity
  8
Main
  6
ByLayer
 62
  256
370
   -1
100
AcDbLine
 10
126.7789763554355
 20
77.46366433168374
 11
192
 21
12.24264068711928
  0
LINE
  5
1B6
100
AcDbEntity
  8
Main
  6
ByLayer
 62
  256
370
   -1
100
AcDbLine
 10
8
 20
187.7573593128807
 11
73.22102364456455
 21
122.5363356683162
  0
LINE
  5
1B7
100
AcDbEntity
  8
Main
  6
ByLayer
 62
  256
370
   -1
100
AcDbLine
 10
12.24264068711928
 20
192
 11
77.46366433168367
 21
126.7789763554356
  0
LINE
  5
1B8
100
AcDbEntity
  8
Main
  6
ByLayer
 62
  256
370
   -1
100
AcDbLine
 10
187.7573593128807
 20
192
 11
122.5363356683163
 21
126.7789763554356
  0
LINE
  5
1B9
100
AcDbEntity
  8
Main
  6
ByLayer
 62
  256
370
   -1
100
AcDbLine
 10
192
 20
187.7573593128807
 11
126.7789763554356
 21
122.5363356683163
  0
ARC
  5
1BA
100
AcDbEntity
  8
Main
  6
ByLayer
 62
  256
370
   -1
100
AcDbCircle
 10
10
 20
10
 40
2
100
AcDbArc
 50
180
 51
270
  0
LINE
  5
1BB
100
AcDbEntity
  8
Main
  6
ByLayer
 62
  256
370
   -1
100
AcDbLine
 10
10
 20
8
 11
190
 21
8
  0
LINE
  5
1BC
100
AcDbEntity
  8
Main
  6
ByLayer
 62
  256
370
   -1
100
AcDbLine
 10
192
 20
10
 11
192
 21
100
  0
ARC
  5
1BD
100
AcDbEntity
  8
Main
  6
ByLayer
 62
  256
370
   -1
100
AcDbCircle
 10
190
 20
10
 40
2
100
AcDbArc
 50
270
 51
0
  0
LINE
  5
1BE
100
AcDbEntity
  8
Main
  6
ByLayer
 62
  256
370
   -1
100
AcDbLine
 10
192
 20
100
 11
192
 21
190
  0
ARC
  5
1BF
100
AcDbEntity
  8
Main
  6
ByLayer
 62
  256
370
   -1
100
AcDbCircle
 10
190
 20
190
 40
2
100
AcDbArc
 50
0
 51
90
  0
LINE
  5
1C0
100
AcDbEntity
  8
Main
  6
ByLayer
 62
  256
370
   -1
100
AcDbLine
 10
190
 20
192
 11
10
 21
192
  0
LINE
  5
1C1
100
AcDbEntity
  8
Main
  6
ByLayer
 62
  256
370
   -1
100
AcDbLine
 10
8
 20
190
 11
8
 21
10
  0
ARC
  5
1C2
100
AcDbEntity
  8
Main
  6
ByLayer
 62
  256
370
   -1
100
AcDbCircle
 10
10
 20
190
 40
2
100
AcDbArc
 50
90
 51
180
  0
LINE
  5
1C3
100
AcDbEntity
  8
Centerline
  6
ByLayer
 62
  256
370
   -1
100
AcDbLine
 10
100
 20
100
 11
100
 21
230
  0
CIRCLE
  5
1C4
100
AcDbEntity
  8
Main
  6
ByLayer
 62
  256
370
   -1
100
AcDbCircle
 10
100
 20
230
 40
6
  0
LINE
  5
1C5
100
AcDbEntity
  8
Centerline
  6
ByLayer
 62
  256
370
   -1
100
AcDbLine
 10
100
 20
230
 11
100
 21
340
  0
CIRCLE
  5
1C6
100
AcDbEntity
  8
Main
  6
ByLayer
 62
  256
370
   -1
100
AcDbCircle
 10
100
 20
340
 40
10
  0
CIRCLE
  5
1C7
100
AcDbEntity
  8
Main
  6
ByLayer
 62
  256
370
   -1
100
AcDbCircle
 10
100
 20
340
 40
20
  0
LINE
  5
1C8
100
AcDbEntity
  8
Centerline
  6
ByLayer
 62
  256
370
   -1
100
AcDbLine
 10
100
 20
340
 11
100
 21
490
  0
CIRCLE
  5
1C9
100
AcDbEntity
  8
Main
  6
ByLayer
 62
  256
370
   -1
100
AcDbCircle
 10
100
 20
490
 40
28
  0
CIRCLE
  5
1CA
100
AcDbEntity
  8
Main
  6
ByLayer
 62
  256
370
   -1
100
AcDbCircle
 10
100
 20
490
 40
18
  0
LINE
  5
1CB
100
AcDbEntity
  8
Centerline
  6
ByLayer
 62
  256
370
   -1
100
AcDbLine
 10
50
 20
490
 11
160
 21
490
  0
LINE
  5
1CC
100
AcDbEntity
  8
Centerline
  6
ByLayer
 62
  256
370
   -1
100
AcDbLine
 10
60
 20
340
 11
150
 21
340
  0
LINE
  5
1CD
100
AcDbEntity
  8
Centerline
  6
ByLayer
 62
  256
370
   -1
100
AcDbLine
 10
60
 20
230
 11
140
 21
230
  0
LINE
  5
1CE
100
AcDbEntity
  8
Main
  6
ByLayer
 62
  256
370
   -1
100
AcDbLine
 10
113
 20
230
 11
113
 21
200
  0
LINE
  5
1CF
100
AcDbEntity
  8
Main
  6
ByLayer
 62
  256
370
   -1
100
AcDbLine
 10
87.00000000000001
 20
230
 11
87.00000000000001
 21
200
  0
ARC
  5
1D0
100
AcDbEntity
  8
Main
  6
ByLayer
 62
  256
370
   -1
100
AcDbCircle
 10
100
 20
230
 40
13
100
AcDbArc
 50
0
 51
180
  0
LINE
  5
1D1
100
AcDbEntity
  8
Main
  6
ByLayer
 62
  256
370
   -1
100
AcDbLine
 10
104
 20
242.3693168768525
 11
104
 21
320.4040820577353
  0
LINE
  5
1D2
100
AcDbEntity
  8
Main
  6
ByLayer
 62
  256
370
   -1
100
AcDbLine
 10
96.00000000000001
 20
242.3693168768529
 11
95.99999999999999
 21
320.4040820577349
  0
LINE
  5
1D3
100
AcDbEntity
  8
Main
  6
ByLayer
 62
  256
370
   -1
100
AcDbLine
 10
104
 20
359.5959179422646
 11
104
 21
462.2871870788978
  0
LINE
  5
1D4
100
AcDbEntity
  8
Main
  6
ByLayer
 62
  256
370
   -1
100
AcDbLine
 10
96
 20
359.5959179422643
 11
96.00000000000001
 21
462.2871870788986
  0
LINE
  5
1D5
100
AcDbEntity
  8
Main
  6
ByLayer
 62
  256
370
   -1
100
AcDbLine
 10
72.8069010127314
 20
496.673482409403
 11
0
 21
200
  0
LINE
  5
1D6
100
AcDbEntity
  8
Main
  6
ByLayer
 62
  256
370
   -1
100
AcDbLine
 10
127.1930989872686
 20
496.673482409403
 11
200
 21
200
  0
LINE
  5
1D7
100
AcDbEntity
  8
Main
  6
ByLayer
 62
  256
370
   -1
100
AcDbLine
 10
87.00000000000001
 20
200
 11
10.78755183277001
 21
200
  0
LINE
  5
1D8
100
AcDbEntity
  8
Main
  6
ByLayer
 62
  256
370
   -1
100
AcDbLine
 10
75.90589309181482
 20
475.7355682799157
 11
8.845187619393698
 21
202.4766773149574
  0
ARC
  5
1D9
100
AcDbEntity
  8
Main
  6
ByLayer
 62
  256
370
   -1
100
AcDbCircle
 10
10.78755183277002
 20
202
 40
2
100
AcDbArc
 50
166.2114926935817
 51
269.9999999999996
  0
LINE
  5
1DA
100
AcDbEntity
  8
Main
  6
ByLayer
 62
  256
370
   -1
100
AcDbLine
 10
189.21244816723
 20
200
 11
113
 21
200
  0
LINE
  5
1DB
100
AcDbEntity
  8
Main
  6
ByLayer
 62
  256
370
   -1
100
AcDbLine
 10
124.0941069081854
 20
475.7355682799149
 11
191.1548123806063
 21
202.4766773149573
  0
ARC
  5
1DC
100
AcDbEntity
  8
Main
  6
ByLayer
 62
  256
370
   -1
100
AcDbCircle
 10
189.21244816723
 20
202
 40
2
100
AcDbArc
 50
270
 51
13.78850730641675
  0
LINE
  5
1DD
100
AcDbEntity
  8
Centerline
  6
ByLayer
 62
  256
370
   -1
100
AcDbLine
 10
100
 20
490
 11
100
 21
580
  0
DIMENSION
  5
1DE
100
AcDbEntity
  8
Measurements
  6
ByLayer
 62
  256
370
   -1
100
AcDbDimension
  2
*D1
 10
200
 20
-40
 30
0
 11
100
 21
-38.125
 31
0
 70
   32
 71
    5
  3
Standard
 53
0
210
0
220
0
230
1
100
AcDbAlignedDimension
 13
0
 23
0
 33
0
 14
200
 24
0
 34
0
100
AcDbRotatedDimension
  0
DIMENSION
  5
1DF
100
AcDbEntity
  8
Measurements
  6
ByLayer
 62
  256
370
   -1
100
AcDbDimension
  2
*D2
 10
104
 20
410
 30
0
 11
100
 21
411.875
 31
0
 70
   32
 71
    5
  3
Standard
 53
0
210
0
220
0
230
1
100
AcDbAlignedDimension
 13
96
 23
410.9415525105815
 33
0
 14
104
 24
410.9415525105812
 34
0
100
AcDbRotatedDimension
  0
DIMENSION
  5
1E0
100
AcDbEntity
  8
Measurements
  6
ByLayer
 62
  256
370
   -1
100
AcDbDimension
  2
*D3
 10
250
 20
99.99999999999997
 30
0
 11
248.125
 21
50
 31
0
 70
   32
 71
    5
  3
Standard
 53
0
210
0
220
0
230
1
100
AcDbAlignedDimension
 13
200
 23
0
 33
0
 14
100
 24
100
 34
0
 50
90
100
AcDbRotatedDimension
  0
DIMENSION
  5
1E1
100
AcDbEntity
  8
Measurements
  6
ByLayer
 62
  256
370
   -1
100
AcDbDimension
  2
*D4
 10
250
 20
230
 30
0
 11
248.125
 21
165
 31
0
 70
   32
 71
    5
  3
Standard
 53
0
210
0
220
0
230
1
100
AcDbAlignedDimension
 13
100
 23
100
 33
0
 14
100
 24
230
 34
0
 50
90
100
AcDbRotatedDimension
  0
DIMENSION
  5
1E2
100
AcDbEntity
  8
Measurements
  6
ByLayer
 62
  256
370
   -1
100
AcDbDimension
  2
*D5
 10
-70
 20
200
 30
0
 11
-71.875
 21
100
 31
0
 70
   32
 71
    5
  3
Standard
 53
0
210
0
220
0
230
1
100
AcDbAlignedDimension
 13
0
 23
0
 33
0
 14
-1.318389841742373e-016
 24
200
 34
0
 50
90
100
AcDbRotatedDimension
  0
DIMENSION
  5
1E3
100
AcDbEntity
  8
Measurements
  6
ByLayer
 62
  256
370
   -1
100
AcDbDimension
  2
*D6
 10
8
 20
130
 30
0
 11
4
 21
131.875
 31
0
 70
   32
 71
    5
  3
Standard
 53
0
210
0
220
0
230
1
100
AcDbAlignedDimension
 13
0
 23
130
 33
0
 14
8
 24
130.092594180816
 34
0
100
AcDbRotatedDimension
  0
DIMENSION
  5
1E4
100
AcDbEntity
  8
Measurements
  6
ByLayer
 62
  256
370
   -1
100
AcDbDimension
  2
*D7
 10
80.64873188233028
 20
88.52052169138076
 30
0
 11
99.04337680761506
 21
101.6126056764725
 31
0
 70
   35
 71
    5
  3
Standard
 53
0
210
0
220
0
230
1
100
AcDbDiametricDimension
 15
119.3512681176697
 25
111.4794783086192
 35
0
 40
0
  0
DIMENSION
  5
1E5
100
AcDbEntity
  8
Measurements
  6
ByLayer
 62
  256
370
   -1
100
AcDbDimension
  2
*D8
 10
100
 20
100
 30
0
 11
116.4910013340609
 21
93.85081306187558
 31
0
 70
   36
 71
    5
  3
Standard
 53
0
210
0
220
0
230
1
100
AcDbRadialDimension
 15
131.304951684997
 25
84.34752415750147
 35
0
 40
0
  0
DIMENSION
  5
1E6
100
AcDbEntity
  8
Measurements
  6
ByLayer
 62
  256
370
   -1
100
AcDbDimension
  2
*D9
 10
70
 20
192
 30
0
 11
68.125
 21
196
 31
0
 70
   32
 71
    5
  3
Standard
 53
0
210
0
220
0
230
1
100
AcDbAlignedDimension
 13
67.87001685271635
 23
200
 33
0
 14
68.56970774810517
 24
192
 34
0
 50
90
100
AcDbRotatedDimension
  0
DIMENSION
  5
1E7
100
AcDbEntity
  8
Measurements
  6
ByLayer
 62
  256
370
   -1
100
AcDbDimension
  2
*D10
 10
10.78755183277002
 20
202
 30
0
 11
15.15807863385439
 21
208.2786196672077
 31
0
 70
   36
 71
    5
  3
Standard
 53
0
210
0
220
0
230
1
100
AcDbRadialDimension
 15
12.2976411106968
 25
203.3113467781981
 35
0
 40
0
  0
DIMENSION
  5
1E8
100
AcDbEntity
  8
Measurements
  6
ByLayer
 62
  256
370
   -1
100
AcDbDimension
  2
*D11
 10
100
 20
340
 30
0
 11
110.0664507043918
 21
352.7181011338414
 31
0
 70
   36
 71
    5
  3
Standard
 53
0
210
0
220
0
230
1
100
AcDbRadialDimension
 15
107.0710678118655
 25
347.0710678118655
 35
0
 40
0
  0
DIMENSION
  5
1E9
100
AcDbEntity
  8
Measurements
  6
ByLayer
 62
  256
370
   -1
100
AcDbDimension
  2
*D12
 10
100
 20
340
 30
0
 11
110
 21
341.875
 31
0
 70
   36
 71
    5
  3
Standard
 53
0
210
0
220
0
230
1
100
AcDbRadialDimension
 15
120
 25
340
 35
0
 40
0
  0
DIMENSION
  5
1EA
100
AcDbEntity
  8
Measurements
  6
ByLayer
 62
  256
370
   -1
100
AcDbDimension
  2
*D13
 10
100
 20
490
 30
0
 11
106.1415426741394
 21
496.8408390261521
 31
0
 70
   36
 71
    5
  3
Standard
 53
0
210
0
220
0
230
1
100
AcDbRadialDimension
 15
114.5039243375791
 25
500.6600271486419
 35
0
 40
0
  0
DIMENSION
  5
1EB
100
AcDbEntity
  8
Measurements
  6
ByLayer
 62
  256
370
   -1
100
AcDbDimension
  2
*D14
 10
100
 20
490
 30
0
 11
114
 21
491.875
 31
0
 70
   36
 71
    5
  3
Standard
 53
0
210
0
220
0
230
1
100
AcDbRadialDimension
 15
128
 25
490
 35
0
 40
0
  0
DIMENSION
  5
1EC
100
AcDbEntity
  8
Measurements
  6
ByLayer
 62
  256
370
   -1
100
AcDbDimension
  2
*D15
 10
100
 20
230
 30
0
 11
106.5669563057765
 21
239.5252815000819
 31
0
 70
   36
 71
    5
  3
Standard
 53
0
210
0
220
0
230
1
100
AcDbRadialDimension
 15
104.1611607128474
 25
234.3225850508528
 35
0
 40
0
  0
DIMENSION
  5
1ED
100
AcDbEntity
  8
Measurements
  6
ByLayer
 62
  256
370
   -1
100
AcDbDimension
  2
*D16
 10
100
 20
230
 30
0
 11
106.5
 21
231.875
 31
0
 70
   36
 71
    5
  3
Standard
 53
0
210
0
220
0
230
1
100
AcDbRadialDimension
 15
113
 25
230
 35
0
 40
0
  0
DIMENSION
  5
1EE
100
AcDbEntity
  8
Measurements
  6
ByLayer
 62
  256
370
   -1
100
AcDbDimension
  2
*D17
 10
250
 20
340
 30
0
 11
248.125
 21
285
 31
0
 70
   32
 71
    5
  3
Standard
 53
0
210
0
220
0
230
1
100
AcDbAlignedDimension
 13
100
 23
230
 33
0
 14
100
 24
340
 34
0
 50
90
100
AcDbRotatedDimension
  0
DIMENSION
  5
1EF
100
AcDbEntity
  8
Measurements
  6
ByLayer
 62
  256
370
   -1
100
AcDbDimension
  2
*D18
 10
250
 20
490
 30
0
 11
248.125
 21
415
 31
0
 70
   32
 71
    5
  3
Standard
 53
0
210
0
220
0
230
1
100
AcDbAlignedDimension
 13
100
 23
340
 33
0
 14
100
 24
490
 34
0
 50
90
100
AcDbRotatedDimension
  0
DIMENSION
  5
1F0
100
AcDbEntity
  8
Measurements
  6
ByLayer
 62
  256
370
   -1
100
AcDbDimension
  2
*D19
 10
300
 20
518
 30
0
 11
298.125
 21
259
 31
0
 70
   32
 71
    5
  3
Standard
 53
0
210
0
220
0
230
1
100
AcDbAlignedDimension
 13
100
 23
0
 33
0
 14
100
 24
518
 34
0
 50
90
100
AcDbRotatedDimension
  0
DIMENSION
  5
1F1
100
AcDbEntity
  8
Measurements
  6
ByLayer
 62
  256
370
   -1
100
AcDbDimension
  2
*D20
 10
28.73493982063523
 20
283.5256933190661
 30
0
 11
25.29355971666041
 21
286.2956308591276
 31
0
 70
   33
 71
    5
  3
Standard
 53
0
210
0
220
0
230
1
100
AcDbAlignedDimension
 13
20.86219320035836
 23
285.0092425492165
 33
0
 14
28.6340804480241
 24
283.1124366569137
 34
0
  0
DIMENSION
  5
1F2
100
AcDbEntity
  8
Measurements
  6
ByLayer
 62
  256
370
   -1
100
AcDbDimension
  2
*D21
 10
32.12366074397222
 20
172.1177921033636
 30
0
 11
28.67917732715783
 21
171.3107857688112
 31
0
 70
   33
 71
    5
  3
Standard
 53
0
210
0
220
0
230
1
100
AcDbAlignedDimension
 13
28.07374156418056
 23
167.6836177487002
 33
0
 14
32.30222366966257
 24
171.9404170174567
 34
0
  0
LINE
  5
1F3
100
AcDbEntity
  8
Centerline
  6
ByLayer
 62
  256
370
   -1
100
AcDbLine
 10
100
 20
100
 11
100
 21
-85
  0
LEADER
  5
1F4
100
AcDbEntity
  8
Main
  6
ByLayer
 62
  256
370
   -1
100
AcDbLeader
  3
Standard
 71
    1
 72
    0
 73
    3
 74
    0
 75
    0
 40
1
 41
10
 76
2
 76
2
 10
100
 20
552.6731451751441
 30
0
 10
160
 20
552.6731451751441
 30
0
  0
LEADER
  5
1F5
100
AcDbEntity
  8
Main
  6
ByLayer
 62
  256
370
   -1
100
AcDbLeader
  3
Standard
 71
    1
 72
    0
 73
    3
 74
    0
 75
    0
 40
1
 41
10
 76
2
 76
2
 10
100
 20
-67.17032595733278
 30
0
 10
150
 20
-67.17032595733278
 30
0
  0
MTEXT
  5
1F6
100
AcDbEntity
  8
Main
  6
ByLayer
 62
  256
370
   -1
100
AcDbMText
 10
160
 20
-67.17032595733278
 30
0
 40
10
 41
6.666666666666667
 71
    5
 72
    1
  1
A
  7
standard
210
0
220
0
230
1
 50
0
 73
    2
 44
1
  0
MTEXT
  5
1F7
100
AcDbEntity
  8
Main
  6
ByLayer
 62
  256
370
   -1
100
AcDbMText
 10
166
 20
553
 30
0
 40
10
 41
6.666666666666667
 71
    5
 72
    1
  1
A
  7
standard
210
0
220
0
230
1
 50
0
 73
    2
 44
1
  0
LINE
  5
1F8
100
AcDbEntity
  8
Main
  6
ByLayer
 62
  256
370
   -1
100
AcDbLine
 10
104.0000000000001
 20
518
 11
100
 21
518
  0
LINE
  5
1F9
100
AcDbEntity
  8
Main
  6
ByLayer
 62
  256
370
   -1
100
AcDbLine
 10
104.0000000000001
 20
518
 11
100
 21
518
  0
LINE
  5
1FA
100
AcDbEntity
  8
Construction
  6
ByLayer
 62
  256
370
   -1
100
AcDbLine
 10
72.00000000000072
 20
517.9999999999993
 11
100
 21
517.9999999999993
  0
LINE
  5
1FB
100
AcDbEntity
  8
Construction
  6
ByLayer
 62
  256
370
   -1
100
AcDbLine
 10
128.0000000000011
 20
461.9999999999989
 11
100
 21
461.9999999999989
  0
LINE
  5
1FC
100
AcDbEntity
  8
Construction
  6
ByLayer
 62
  256
370
   -1
100
AcDbLine
 10
82.00000000000101
 20
507.9999999999991
 11
100
 21
507.999999999999
  0
LINE
  5
1FD
100
AcDbEntity
  8
Construction
  6
ByLayer
 62
  256
370
   -1
100
AcDbLine
 10
118.0000000000017
 20
471.9999999999983
 11
100
 21
471.9999999999983
  0
LINE
  5
1FE
100
AcDbEntity
  8
Construction
  6
ByLayer
 62
  256
370
   -1
100
AcDbLine
 10
82.00000000000094
 20
489.9999999999991
 11
99.99999999999997
 21
489.999999999999
  0
LINE
  5
1FF
100
AcDbEntity
  8
Construction
  6
ByLayer
 62
  256
370
   -1
100
AcDbLine
 10
79.99999999999973
 20
360.0000000000003
 11
100
 21
360.0000000000003
  0
LINE
  5
200
100
AcDbEntity
  8
Construction
  6
ByLayer
 62
  256
370
   -1
100
AcDbLine
 10
90
 20
350
 11
100
 21
350
  0
LINE
  5
201
100
AcDbEntity
  8
Construction
  6
ByLayer
 62
  256
370
   -1
100
AcDbLine
 10
109.9999999999993
 20
330.0000000000007
 11
100
 21
330.0000000000007
  0
LINE
  5
202
100
AcDbEntity
  8
Construction
  6
ByLayer
 62
  256
370
   -1
100
AcDbLine
 10
120
 20
320
 11
100
 21
320
  0
LINE
  5
203
100
AcDbEntity
  8
Construction
  6
ByLayer
 62
  256
370
   -1
100
AcDbLine
 10
90
 20
340
 11
100
 21
340
  0
LINE
  5
204
100
AcDbEntity
  8
Construction
  6
ByLayer
 62
  256
370
   -1
100
AcDbLine
 10
89.99999999999999
 20
230
 11
99.99999999999999
 21
230
  0
LINE
  5
205
100
AcDbEntity
  8
Construction
  6
ByLayer
 62
  256
370
   -1
100
AcDbLine
 10
87.00000000000001
 20
243
 11
100
 21
243
  0
LINE
  5
206
100
AcDbEntity
  8
Construction
  6
ByLayer
 62
  256
370
   -1
100
AcDbLine
 10
93.99999999999832
 20
236.0000000000016
 11
100
 21
236.0000000000017
  0
LINE
  5
207
100
AcDbEntity
  8
Construction
  6
ByLayer
 62
  256
370
   -1
100
AcDbLine
 10
106
 20
224
 11
100
 21
224
  0
LINE
  5
208
100
AcDbEntity
  8
Construction
  6
ByLayer
 62
  256
370
   -1
100
AcDbLine
 10
65
 20
135
 11
100
 21
135
  0
LINE
  5
209
100
AcDbEntity
  8
Construction
  6
ByLayer
 62
  256
370
   -1
100
AcDbLine
 10
77.49999999999996
 20
122.5000000000001
 11
100
 21
122.5000000000001
  0
LINE
  5
20A
100
AcDbEntity
  8
Construction
  6
ByLayer
 62
  256
370
   -1
100
AcDbLine
 10
122.5
 20
77.5
 11
100
 21
77.5
  0
LINE
  5
20B
100
AcDbEntity
  8
Construction
  6
ByLayer
 62
  256
370
   -1
100
AcDbLine
 10
135.0000000000001
 20
64.99999999999989
 11
100
 21
64.99999999999987
  0
LINE
  5
20C
100
AcDbEntity
  8
Construction
  6
ByLayer
 62
  256
370
   -1
100
AcDbLine
 10
65
 20
100
 11
100
 21
100
  0
LINE
  5
20D
100
AcDbEntity
  8
Construction
  6
ByLayer
 62
  256
370
   -1
100
AcDbLine
 10
190
 20
192
 11
10
 21
192
  0
LINE
  5
20E
100
AcDbEntity
  8
Construction
  6
ByLayer
 62
  256
370
   -1
100
AcDbLine
 10
189.21244816723
 20
200
 11
113
 21
200
  0
LINE
  5
20F
100
AcDbEntity
  8
Construction
  6
ByLayer
 62
  256
370
   -1
100
AcDbLine
 10
10
 20
8
 11
190
 21
8
  0
LINE
  5
210
100
AcDbEntity
  8
Construction
  6
ByLayer
 62
  256
370
   -1
100
AcDbLine
 10
0
 20
0
 11
200
 21
0
  0
LINE
  5
211
100
AcDbEntity
  8
Main
  6
ByLayer
 62
  256
370
   -1
100
AcDbLine
 10
72.00000000000072
 20
517.9999999999993
 11
100
 21
517.9999999999993
  0
LINE
  5
212
100
AcDbEntity
  8
Main
  6
ByLayer
 62
  256
370
   -1
100
AcDbLine
 10
670
 20
0
 11
670
 21
8
  0
LINE
  5
213
100
AcDbEntity
  8
Main
  6
ByLayer
 62
  256
370
   -1
100
AcDbLine
 10
670
 20
8
 11
643
 21
8
  0
LINE
  5
214
100
AcDbEntity
  8
Main
  6
ByLayer
 62
  256
370
   -1
100
AcDbLine
 10
643
 20
8
 11
643
 21
65.0000000000001
  0
LINE
  5
215
100
AcDbEntity
  8
Main
  6
ByLayer
 62
  256
370
   -1
100
AcDbLine
 10
670
 20
8
 11
670
 21
65.0000000000001
  0
LINE
  5
216
100
AcDbEntity
  8
Main
  6
ByLayer
 62
  256
370
   -1
100
AcDbLine
 10
670
 20
65.0000000000001
 11
643
 21
65.00000000000009
  0
LINE
  5
217
100
AcDbEntity
  8
Main
  6
ByLayer
 62
  256
370
   -1
100
AcDbLine
 10
670
 20
65.0000000000001
 11
670
 21
77.5
  0
LINE
  5
218
100
AcDbEntity
  8
Main
  6
ByLayer
 62
  256
370
   -1
100
AcDbLine
 10
670
 20
77.5
 11
670
 21
122.4999999999997
  0
LINE
  5
219
100
AcDbEntity
  8
Main
  6
ByLayer
 62
  256
370
   -1
100
AcDbLine
 10
670
 20
122.4999999999997
 11
670
 21
135
  0
LINE
  5
21A
100
AcDbEntity
  8
Main
  6
ByLayer
 62
  256
370
   -1
100
AcDbLine
 10
670
 20
135
 11
643
 21
135
  0
LINE
  5
21B
100
AcDbEntity
  8
Main
  6
ByLayer
 62
  256
370
   -1
100
AcDbLine
 10
643
 20
135
 11
643
 21
192
  0
LINE
  5
21C
100
AcDbEntity
  8
Main
  6
ByLayer
 62
  256
370
   -1
100
AcDbLine
 10
658
 20
135
 11
658
 21
192
  0
LINE
  5
21D
100
AcDbEntity
  8
Main
  6
ByLayer
 62
  256
370
   -1
100
AcDbLine
 10
670
 20
135
 11
670
 21
192
  0
LINE
  5
21E
100
AcDbEntity
  8
Main
  6
ByLayer
 62
  256
370
   -1
100
AcDbLine
 10
643
 20
192
 11
670
 21
192
  0
LINE
  5
21F
100
AcDbEntity
  8
Main
  6
ByLayer
 62
  256
370
   -1
100
AcDbLine
 10
670
 20
0
 11
635
 21
0
  0
LINE
  5
220
100
AcDbEntity
  8
Main
  6
ByLayer
 62
  256
370
   -1
100
AcDbLine
 10
635
 20
224
 11
670
 21
224
  0
LINE
  5
221
100
AcDbEntity
  8
Main
  6
ByLayer
 62
  256
370
   -1
100
AcDbLine
 10
670
 20
192
 11
670
 21
224
  0
LINE
  5
222
100
AcDbEntity
  8
Main
  6
ByLayer
 62
  256
370
   -1
100
AcDbLine
 10
670
 20
224
 11
670
 21
236.0000000000044
  0
LINE
  5
223
100
AcDbEntity
  8
Main
  6
ByLayer
 62
  256
370
   -1
100
AcDbLine
 10
670
 20
236.0000000000044
 11
670
 21
243
  0
LINE
  5
224
100
AcDbEntity
  8
Main
  6
ByLayer
 62
  256
370
   -1
100
AcDbLine
 10
670
 20
236.0000000000044
 11
635
 21
236.0000000000044
  0
LINE
  5
225
100
AcDbEntity
  8
Main
  6
ByLayer
 62
  256
370
   -1
100
AcDbLine
 10
635
 20
224
 11
635
 21
236.0000000000044
  0
LINE
  5
226
100
AcDbEntity
  8
Main
  6
ByLayer
 62
  256
370
   -1
100
AcDbLine
 10
635
 20
77.5
 11
670
 21
77.5
  0
LINE
  5
227
100
AcDbEntity
  8
Main
  6
ByLayer
 62
  256
370
   -1
100
AcDbLine
 10
635
 20
122.4999999999997
 11
670
 21
122.4999999999997
  0
LINE
  5
228
100
AcDbEntity
  8
Main
  6
ByLayer
 62
  256
370
   -1
100
AcDbLine
 10
635
 20
0
 11
635
 21
77.5
  0
LINE
  5
229
100
AcDbEntity
  8
Main
  6
ByLayer
 62
  256
370
   -1
100
AcDbLine
 10
635
 20
77.5
 11
635
 21
122.4999999999997
  0
LINE
  5
22A
100
AcDbEntity
  8
Main
  6
ByLayer
 62
  256
370
   -1
100
AcDbLine
 10
635
 20
122.4999999999997
 11
635
 21
224
  0
LINE
  5
22B
100
AcDbEntity
  8
Centerline
  6
ByLayer
 62
  256
370
   -1
100
AcDbLine
 10
619.3410852714588
 20
100
 11
700
 21
100
  0
LINE
  5
22C
100
AcDbEntity
  8
Centerline
  6
ByLayer
 62
  256
370
   -1
100
AcDbLine
 10
620
 20
230
 11
690
 21
230
  0
LINE
  5
22D
100
AcDbEntity
  8
Main
  6
ByLayer
 62
  256
370
   -1
100
AcDbLine
 10
670
 20
243
 11
658
 21
243
  0
LINE
  5
22E
100
AcDbEntity
  8
Main
  6
ByLayer
 62
  256
370
   -1
100
AcDbLine
 10
658
 20
243
 11
658
 21
320
  0
LINE
  5
22F
100
AcDbEntity
  8
Main
  6
ByLayer
 62
  256
370
   -1
100
AcDbLine
 10
670
 20
243
 11
670
 21
320
  0
LINE
  5
230
100
AcDbEntity
  8
Main
  6
ByLayer
 62
  256
370
   -1
100
AcDbLine
 10
670
 20
320
 11
658
 21
320
  0
LINE
  5
231
100
AcDbEntity
  8
Main
  6
ByLayer
 62
  256
370
   -1
100
AcDbLine
 10
670
 20
320
 11
675
 21
320
  0
LINE
  5
232
100
AcDbEntity
  8
Main
  6
ByLayer
 62
  256
370
   -1
100
AcDbLine
 10
635
 20
330.0000000000007
 11
675
 21
330.0000000000007
  0
LINE
  5
233
100
AcDbEntity
  8
Main
  6
ByLayer
 62
  256
370
   -1
100
AcDbLine
 10
635
 20
350
 11
675
 21
350
  0
LINE
  5
234
100
AcDbEntity
  8
Centerline
  6
ByLayer
 62
  256
370
   -1
100
AcDbLine
 10
620
 20
340
 11
695
 21
340
  0
LINE
  5
235
100
AcDbEntity
  8
Main
  6
ByLayer
 62
  256
370
   -1
100
AcDbLine
 10
635
 20
330.0000000000007
 11
635
 21
243
  0
LINE
  5
236
100
AcDbEntity
  8
Main
  6
ByLayer
 62
  256
370
   -1
100
AcDbLine
 10
635
 20
243
 11
635
 21
236.0000000000042
  0
LINE
  5
237
100
AcDbEntity
  8
Main
  6
ByLayer
 62
  256
370
   -1
100
AcDbLine
 10
675
 20
320
 11
675
 21
330.0000000000007
  0
LINE
  5
238
100
AcDbEntity
  8
Main
  6
ByLayer
 62
  256
370
   -1
100
AcDbLine
 10
635
 20
360.0000000000003
 11
635
 21
471.9999999999983
  0
LINE
  5
239
100
AcDbEntity
  8
Main
  6
ByLayer
 62
  256
370
   -1
100
AcDbLine
 10
635
 20
471.9999999999983
 11
685
 21
471.9999999999983
  0
LINE
  5
23A
100
AcDbEntity
  8
Main
  6
ByLayer
 62
  256
370
   -1
100
AcDbLine
 10
685
 20
471.9999999999983
 11
685
 21
461.9999999999983
  0
LINE
  5
23B
100
AcDbEntity
  8
Main
  6
ByLayer
 62
  256
370
   -1
100
AcDbLine
 10
685
 20
471.9999999999984
 11
685
 21
507.9999999999972
  0
LINE
  5
23C
100
AcDbEntity
  8
Main
  6
ByLayer
 62
  256
370
   -1
100
AcDbLine
 10
685
 20
507.9999999999972
 11
685
 21
517.9999999999993
  0
LINE
  5
23D
100
AcDbEntity
  8
Main
  6
ByLayer
 62
  256
370
   -1
100
AcDbLine
 10
635
 20
471.9999999999983
 11
635
 21
507.9999999999973
  0
LINE
  5
23E
100
AcDbEntity
  8
Main
  6
ByLayer
 62
  256
370
   -1
100
AcDbLine
 10
635
 20
507.9999999999973
 11
635
 21
517.9999999999993
  0
LINE
  5
23F
100
AcDbEntity
  8
Main
  6
ByLayer
 62
  256
370
   -1
100
AcDbLine
 10
635
 20
517.9999999999993
 11
685
 21
517.9999999999993
  0
LINE
  5
240
100
AcDbEntity
  8
Main
  6
ByLayer
 62
  256
370
   -1
100
AcDbLine
 10
635
 20
507.9999999999974
 11
685
 21
507.9999999999972
  0
LINE
  5
241
100
AcDbEntity
  8
Centerline
  6
ByLayer
 62
  256
370
   -1
100
AcDbLine
 10
612.9999999999724
 20
489.9999999999974
 11
720
 21
490
  0
LINE
  5
242
100
AcDbEntity
  8
Hidden
  6
ByLayer
 62
  256
370
   -1
100
AcDbLine
 10
670
 20
320
 11
670
 21
360.0000000000003
  0
LINE
  5
243
100
AcDbEntity
  8
Main
  6
ByLayer
 62
  256
370
   -1
100
AcDbLine
 10
670
 20
360.0000000000003
 11
670
 21
461.9999999999989
  0
LINE
  5
244
100
AcDbEntity
  8
Hidden
  6
ByLayer
 62
  256
370
   -1
100
AcDbLine
 10
670
 20
461.9999999999989
 11
670
 21
471.9999999999983
  0
LINE
  5
245
100
AcDbEntity
  8
Main
  6
ByLayer
 62
  256
370
   -1
100
AcDbLine
 10
658
 20
360.0000000000003
 11
658
 21
461.9999999999989
  0
LINE
  5
246
100
AcDbEntity
  8
Main
  6
ByLayer
 62
  256
370
   -1
100
AcDbLine
 10
658
 20
461.9999999999989
 11
685
 21
461.9999999999983
  0
LINE
  5
247
100
AcDbEntity
  8
Hidden
  6
ByLayer
 62
  256
370
   -1
100
AcDbLine
 10
643
 20
135
 11
643
 21
65.0000000000001
  0
LINE
  5
248
100
AcDbEntity
  8
Hidden
  6
ByLayer
 62
  256
370
   -1
100
AcDbLine
 10
635
 20
200
 11
670
 21
200
  0
LINE
  5
249
100
AcDbEntity
  8
Hidden
  6
ByLayer
 62
  256
370
   -1
100
AcDbLine
 10
643
 20
192
 11
643
 21
461.9999999999989
  0
LINE
  5
24A
100
AcDbEntity
  8
Main
  6
ByLayer
 62
  256
370
   -1
100
AcDbLine
 10
675
 20
360.0000000000003
 11
658
 21
360.0000000000003
  0
LINE
  5
24B
100
AcDbEntity
  8
Main
  6
ByLayer
 62
  256
370
   -1
100
AcDbLine
 10
635
 20
360.0000000000003
 11
635
 21
350
  0
LINE
  5
24C
100
AcDbEntity
  8
Main
  6
ByLayer
 62
  256
370
   -1
100
AcDbLine
 10
635
 20
350
 11
635
 21
330.0000000000007
  0
LINE
  5
24D
100
AcDbEntity
  8
Main
  6
ByLayer
 62
  256
370
   -1
100
AcDbLine
 10
675
 20
330.0000000000007
 11
675
 21
350
  0
LINE
  5
24E
100
AcDbEntity
  8
Main
  6
ByLayer
 62
  256
370
   -1
100
AcDbLine
 10
675
 20
350
 11
675
 21
360
  0
LINE
  5
24F
100
AcDbEntity
  8
Hidden
  6
ByLayer
 62
  256
370
   -1
100
AcDbLine
 10
670
 20
470
 11
670
 21
490
  0
LINE
  5
250
100
AcDbEntity
  8
Hidden
  6
ByLayer
 62
  256
370
   -1
100
AcDbLine
 10
643
 20
461.9999999999989
 11
643
 21
471.9999999999983
  0
MTEXT
  5
251
100
AcDbEntity
  8
Main
  6
ByLayer
 62
  256
370
   -1
100
AcDbMText
 10
550
 20
520
 30
0
 40
10
 41
73.05555343553453
 71
    5
 72
    1
  1
Section AA
  7
standard
210
0
220
0
230
1
 50
0
 73
    2
 44
1
  0
DIMENSION
  5
252
100
AcDbEntity
  8
Measurements
  6
ByLayer
 62
  256
370
   -1
100
AcDbDimension
  2
*D24
 10
670
 20
-30
 30
0
 11
652.5
 21
-28.125
 31
0
 70
   32
 71
    5
  3
Standard
 53
0
210
0
220
0
230
1
100
AcDbAlignedDimension
 13
635
 23
-0
 33
0
 14
670
 24
0
 34
0
100
AcDbRotatedDimension
  0
LINE
  5
253
100
AcDbEntity
  8
Main
  6
ByLayer
 62
  256
370
   -1
100
AcDbLine
 10
658
 20
7.999999999999996
 11
658
 21
65.0000000000001
  0
DIMENSION
  5
254
100
AcDbEntity
  8
Measurements
  6
ByLayer
 62
  256
370
   -1
100
AcDbDimension
  2
*D25
 10
670
 20
30.30911952698479
 30
0
 11
656.5
 21
32.18411952698479
 31
0
 70
   32
 71
    5
  3
Standard
 53
0
210
0
220
0
230
1
100
AcDbAlignedDimension
 13
643
 23
31.93282235878755
 33
0
 14
670
 24
30
 34
0
100
AcDbRotatedDimension
  0
DIMENSION
  5
255
100
AcDbEntity
  8
Measurements
  6
ByLayer
 62
  256
370
   -1
100
AcDbDimension
  2
*D26
 10
658
 20
47.08738212227995
 30
0
 11
650.5
 21
48.96238212227995
 31
0
 70
   32
 71
    5
  3
Standard
 53
0
210
0
220
0
230
1
100
AcDbAlignedDimension
 13
643
 23
47.62861639954753
 33
0
 14
658
 24
47.08738212227995
 34
0
100
AcDbRotatedDimension
  0
DIMENSION
  5
256
100
AcDbEntity
  8
Measurements
  6
ByLayer
 62
  256
370
   -1
100
AcDbDimension
  2
*D27
 10
643
 20
84.25546796513866
 30
0
 11
639
 21
86.13046796513866
 31
0
 70
   32
 71
    5
  3
Standard
 53
0
210
0
220
0
230
1
100
AcDbAlignedDimension
 13
635
 23
77.5
 33
0
 14
643
 24
77.5
 34
0
100
AcDbRotatedDimension
  0
DIMENSION
  5
257
100
AcDbEntity
  8
Measurements
  6
ByLayer
 62
  256
370
   -1
100
AcDbDimension
  2
*D28
 10
635
 20
373.1993609303333
 30
0
 11
655
 21
375.0743609303333
 31
0
 70
   32
 71
    5
  3
Standard
 53
0
210
0
220
0
230
1
100
AcDbAlignedDimension
 13
675
 23
360.0000000000003
 33
0
 14
635
 24
360.0000000000003
 34
0
100
AcDbRotatedDimension
  0
DIMENSION
  5
258
100
AcDbEntity
  8
Measurements
  6
ByLayer
 62
  256
370
   -1
100
AcDbDimension
  2
*D29
 10
635
 20
530
 30
0
 11
660
 21
531.875
 31
0
 70
   32
 71
    5
  3
Standard
 53
0
210
0
220
0
230
1
100
AcDbAlignedDimension
 13
685
 23
517.9999999999993
 33
0
 14
635
 24
517.9999999999993
 34
0
100
AcDbRotatedDimension
  0
INSERT
  5
259
100
AcDbEntity
  8
0
  6
ByLayer
 62
  256
370
   -1
100
AcDbBlockReference
  2
A4-frame-large-no-layers
 10
163.0000000000001
 20
63.00000000000006
 30
0
 41
1.21
 42
1.21
 43
0
 50
0
 70
    1
 71
    1
 44
0
 45
0
  0
MTEXT
  5
25A
100
AcDbEntity
  8
0
  6
ByLayer
 62
  256
370
   -1
100
AcDbMText
 10
840
 20
-200
 30
0
 40
10
 41
49.99999787997852
 71
    4
 72
    1
  1
Support
  7
standard
210
0
220
0
230
1
 50
0
 73
    2
 44
1
  0
ENDSEC
  0
SECTION
  2
OBJECTS
  0
DICTIONARY
  5
C
330
0
100
AcDbDictionary
281
    1
  3
ACAD_GROUP
350
D
  0
DICTIONARY
  5
D
330
C
100
AcDbDictionary
281
    1
  0
ENDSEC
  0
EOF
