999
dxfrw 0.6.3
  0
SECTION
  2
HEADER
  9
$ACADVER
  1
AC1021
  9
$DWGCODEPAGE
  3
ANSI_1252
  9
$INSBASE
 10
0
 20
0
 30
0
  9
$EXTMIN
 10
10000000000
 20
10000000000
 30
0
  9
$EXTMAX
 10
-10000000000
 20
-10000000000
 30
0
  9
$LIMMIN
 10
0
 20
0
  9
$LIMMAX
 10
420
 20
297
  9
$ORTHOMODE
 70
    0
  9
$REGENMODE
 70
    1
  9
$FILLMODE
 70
    1
  9
$QTEXTMODE
 70
    0
  9
$MIRRTEXT
 70
    0
  9
$LTSCALE
 40
1
  9
$ATTMODE
 70
    0
  9
$TEXTSIZE
 40
2.5
  9
$TRACEWID
 40
15.68
  9
$TEXTSTYLE
  7
STANDARD
  9
$CLAYER
  8
ConstructionX
  9
$CELTYPE
  6
BYLAYER
  9
$CECOLOR
 62
  256
  9
$CELTSCALE
 40
1
  9
$DISPSILH
 70
    0
  9
$DIMSCALE
 40
2.5
  9
$DIMASZ
 40
2.5
  9
$DIMEXO
 40
0.625
  9
$DIMDLI
 40
3.75
  9
$DIMRND
 40
0
  9
$DIMDLE
 40
0
  9
$DIMEXE
 40
1.25
  9
$DIMTP
 40
0
  9
$DIMTM
 40
0
  9
$DIMTXT
 40
2.5
  9
$DIMCEN
 40
2.5
  9
$DIMTSZ
 40
0
  9
$DIMTOL
 70
    0
  9
$DIMLIM
 70
    0
  9
$DIMTIH
 70
    0
  9
$DIMTOH
 70
    0
  9
$DIMSE1
 70
    0
  9
$DIMSE2
 70
    0
  9
$DIMTAD
 70
    1
  9
$DIMZIN
 70
    1
  9
$DIMBLK
  1

  9
$DIMASO
 70
    1
  9
$DIMSHO
 70
    1
  9
$DIMPOST
  1

  9
$DIMAPOST
  1

  9
$DIMALT
 70
    0
  9
$DIMALTD
 70
    3
  9
$DIMALTF
 40
0.03937
  9
$DIMLFAC
 40
1
  9
$DIMTOFL
 70
    1
  9
$DIMTVP
 40
0
  9
$DIMTIX
 70
    0
  9
$DIMSOXD
 70
    0
  9
$DIMSAH
 70
    0
  9
$DIMBLK1
  1

  9
$DIMBLK2
  1

  9
$DIMSTYLE
  2
STANDARD
  9
$DIMCLRD
 70
    0
  9
$DIMCLRE
 70
    0
  9
$DIMCLRT
 70
    0
  9
$DIMTFAC
 40
1
  9
$DIMGAP
 40
0.625
  9
$DIMJUST
 70
    0
  9
$DIMSD1
 70
    0
  9
$DIMSD2
 70
    0
  9
$DIMTOLJ
 70
    0
  9
$DIMTZIN
 70
    8
  9
$DIMALTZ
 70
    0
  9
$DIMALTTZ
 70
    0
  9
$DIMUPT
 70
    0
  9
$DIMDEC
 70
    2
  9
$DIMTDEC
 70
    2
  9
$DIMALTU
 70
    2
  9
$DIMALTTD
 70
    3
  9
$DIMTXSTY
  7
standard
  9
$DIMAUNIT
 70
    0
  9
$DIMADEC
 70
    2
  9
$DIMALTRND
 40
0
  9
$DIMAZIN
 70
    0
  9
$DIMDSEP
 70
   44
  9
$DIMATFIT
 70
    3
  9
$DIMFRAC
 70
    0
  9
$DIMLDRBLK
  1
STANDARD
  9
$DIMLUNIT
 70
    2
  9
$DIMLWD
 70
   -2
  9
$DIMLWE
 70
   -2
  9
$DIMTMOVE
 70
    0
  9
$DIMFXL
 40
1
  9
$DIMFXLON
 70
    0
  9
$DIMJOGANG
 40
0.7854
  9
$DIMTFILL
 70
    0
  9
$DIMTFILLCLR
 70
    0
  9
$DIMARCSYM
 70
    0
  9
$DIMLTYPE
  6

  9
$DIMLTEX1
  6

  9
$DIMLTEX2
  6

  9
$LUNITS
 70
    2
  9
$LUPREC
 70
    2
  9
$SKETCHINC
 40
1
  9
$FILLETRAD
 40
0
  9
$AUNITS
 70
    0
  9
$AUPREC
 70
    2
  9
$MENU
  1
.
  9
$ELEVATION
 40
0
  9
$PELEVATION
 40
0
  9
$THICKNESS
 40
0
  9
$LIMCHECK
 70
    0
  9
$CHAMFERA
 40
0
  9
$CHAMFERB
 40
0
  9
$CHAMFERC
 40
0
  9
$CHAMFERD
 40
0
  9
$SKPOLY
 70
    0
  9
$USRTIMER
 70
    1
  9
$ANGBASE
 50
0
  9
$ANGDIR
 70
    0
  9
$PDMODE
 70
   34
  9
$PDSIZE
 40
0
  9
$PLINEWID
 40
0
  9
$SPLFRAME
 70
    0
  9
$SPLINETYPE
 70
    2
  9
$SPLINESEGS
 70
    8
  9
$HANDSEED
  5
20000
  9
$SURFTAB1
 70
    6
  9
$SURFTAB2
 70
    6
  9
$SURFTYPE
 70
    6
  9
$SURFU
 70
    6
  9
$SURFV
 70
    6
  9
$UCSBASE
  2

  9
$UCSNAME
  2

  9
$UCSORG
 10
0
 20
0
 30
0
  9
$UCSXDIR
 10
1
 20
0
 30
0
  9
$UCSYDIR
 10
0
 20
1
 30
0
  9
$UCSORTHOREF
  2

  9
$UCSORTHOVIEW
 70
    0
  9
$UCSORGTOP
 10
0
 20
0
 30
0
  9
$UCSORGBOTTOM
 10
0
 20
0
 30
0
  9
$UCSORGLEFT
 10
0
 20
0
 30
0
  9
$UCSORGRIGHT
 10
0
 20
0
 30
0
  9
$UCSORGFRONT
 10
0
 20
0
 30
0
  9
$UCSORGBACK
 10
0
 20
0
 30
0
  9
$PUCSBASE
  2

  9
$PUCSNAME
  2

  9
$PUCSORG
 10
0
 20
0
 30
0
  9
$PUCSXDIR
 10
1
 20
0
 30
0
  9
$PUCSYDIR
 10
0
 20
1
 30
0
  9
$PUCSORTHOREF
  2

  9
$PUCSORTHOVIEW
 70
    0
  9
$PUCSORGTOP
 10
0
 20
0
 30
0
  9
$PUCSORGBOTTOM
 10
0
 20
0
 30
0
  9
$PUCSORGLEFT
 10
0
 20
0
 30
0
  9
$PUCSORGRIGHT
 10
0
 20
0
 30
0
  9
$PUCSORGFRONT
 10
0
 20
0
 30
0
  9
$PUCSORGBACK
 10
0
 20
0
 30
0
  9
$USERI1
 70
    0
  9
$USERI2
 70
    0
  9
$USERI3
 70
    0
  9
$USERI4
 70
    0
  9
$USERI5
 70
    0
  9
$USERR1
 40
0
  9
$USERR2
 40
0
  9
$USERR3
 40
0
  9
$USERR4
 40
0
  9
$USERR5
 40
0
  9
$WORLDVIEW
 70
    1
  9
$SHADEDGE
 70
    3
  9
$SHADEDIF
 70
   70
  9
$TILEMODE
 70
    1
  9
$MAXACTVP
 70
   64
  9
$PINSBASE
 10
0
 20
0
 30
0
  9
$PLIMCHECK
 70
    0
  9
$PEXTMIN
 10
0
 20
0
 30
0
  9
$PEXTMAX
 10
0
 20
0
 30
0
  9
$GRIDMODE
 70
    1
  9
$SNAPSTYLE
 70
    0
  9
$GRIDUNIT
 10
0
 20
0
  9
$PLIMMIN
 10
0
 20
0
  9
$PLIMMAX
 10
297
 20
210
  9
$UNITMODE
 70
    0
  9
$VISRETAIN
 70
    1
  9
$PLINEGEN
 70
    0
  9
$PSLTSCALE
 70
    1
  9
$TREEDEPTH
 70
 3020
  9
$CMLSTYLE
  2
Standard
  9
$CMLJUST
 70
    0
  9
$CMLSCALE
 40
20
  9
$PROXYGRAPHICS
 70
    1
  9
$MEASUREMENT
 70
    1
  9
$CELWEIGHT
370
   -1
  9
$ENDCAPS
280
    0
  9
$JOINSTYLE
280
    0
  9
$LWDISPLAY
290
    0
  9
$INSUNITS
 70
    4
  9
$HYPERLINKBASE
  1

  9
$STYLESHEET
  1

  9
$XEDIT
290
    1
  9
$CEPSNTYPE
380
    0
  9
$PSTYLEMODE
290
    1
  9
$EXTNAMES
290
    1
  9
$PSVPSCALE
 40
1
  9
$OLESTARTUP
290
    0
  9
$SORTENTS
280
  127
  9
$INDEXCTL
280
    0
  9
$HIDETEXT
280
    1
  9
$XCLIPFRAME
290
    0
  9
$HALOGAP
280
    0
  9
$OBSCOLOR
 70
  257
  9
$OBSLTYPE
280
    0
  9
$INTERSECTIONDISPLAY
280
    0
  9
$INTERSECTIONCOLOR
 70
  257
  9
$DIMASSOC
280
    1
  9
$PROJECTNAME
  1

  9
$CAMERADISPLAY
290
    0
  9
$LENSLENGTH
 40
50
  9
$CAMERAHEIGHT
 40
0
  9
$STEPSPERSEC
 40
2
  9
$STEPSIZE
 40
50
  9
$3DDWFPREC
 40
2
  9
$PSOLWIDTH
 40
5
  9
$PSOLHEIGHT
 40
80
  9
$LOFTANG1
 40
1.570796326794897
  9
$LOFTANG2
 40
1.570796326794897
  9
$LOFTMAG1
 40
0
  9
$LOFTMAG2
 40
0
  9
$LOFTPARAM
 70
    7
  9
$LOFTNORMALS
280
    1
  9
$LATITUDE
 40
1
  9
$LONGITUDE
 40
1
  9
$NORTHDIRECTION
 40
0
  9
$TIMEZONE
 70
-8000
  9
$LIGHTGLYPHDISPLAY
280
    1
  9
$TILEMODELIGHTSYNCH
280
    1
  9
$SOLIDHIST
280
    1
  9
$SHOWHIST
280
    1
  9
$DWFFRAME
280
    2
  9
$DGNFRAME
280
    0
  9
$REALWORLDSCALE
290
    1
  9
$INTERFERECOLOR
 62
    1
  9
$CSHADOW
280
    0
  9
$SHADOWPLANELOCATION
 40
0
  0
ENDSEC
  0
SECTION
  2
CLASSES
  0
ENDSEC
  0
SECTION
  2
TABLES
  0
TABLE
  2
VPORT
  5
8
330
0
100
AcDbSymbolTable
 70
    1
  0
VPORT
  5
31
330
2
100
AcDbSymbolTableRecord
100
AcDbViewportTableRecord
  2
*ACTIVE
 70
    0
 10
0
 20
0
 11
1
 21
1
 12
84.60711667265535
 22
-55.98693152659663
 13
0
 23
0
 14
10
 24
10
 15
10
 25
10
 16
0
 26
0
 36
1
 17
0
 27
0
 37
0
 40
181.3308080786786
 41
1.186635944700461
 42
50
 43
0
 44
0
 50
0
 51
0
 71
    0
 72
  100
 73
    1
 74
    3
 75
    0
 76
    1
 77
    0
 78
    0
281
    0
 65
    1
110
0
120
0
130
0
111
1
121
0
131
0
112
0
122
1
132
0
 79
    0
146
0
348
10020
 60
    7
 61
    5
292
1
282
    1
141
0
142
0
 63
  250
421
3358443
  0
ENDTAB
  0
TABLE
  2
LTYPE
  5
5
330
0
100
AcDbSymbolTable
 70
    4
  0
LTYPE
  5
14
330
5
100
AcDbSymbolTableRecord
100
AcDbLinetypeTableRecord
  2
ByBlock
 70
    0
  3

 72
   65
 73
    0
 40
0
  0
LTYPE
  5
15
330
5
100
AcDbSymbolTableRecord
100
AcDbLinetypeTableRecord
  2
ByLayer
 70
    0
  3

 72
   65
 73
    0
 40
0
  0
LTYPE
  5
16
330
5
100
AcDbSymbolTableRecord
100
AcDbLinetypeTableRecord
  2
Continuous
 70
    0
  3
Solid line
 72
   65
 73
    0
 40
0
  0
LTYPE
  5
32
330
5
100
AcDbSymbolTableRecord
100
AcDbLinetypeTableRecord
  2
DOT
 70
    0
  3
Dot . . . . . . . . . . . . . . . . . . . . . .
 72
   65
 73
    2
 40
6.35
 49
0
 74
    0
 49
-6.35
 74
    0
  0
LTYPE
  5
33
330
5
100
AcDbSymbolTableRecord
100
AcDbLinetypeTableRecord
  2
DOTTINY
 70
    0
  3
Dot (.15x) .....................................
 72
   65
 73
    2
 40
0.9525
 49
0
 74
    0
 49
-0.9525
 74
    0
  0
LTYPE
  5
34
330
5
100
AcDbSymbolTableRecord
100
AcDbLinetypeTableRecord
  2
DOT2
 70
    0
  3
Dot (.5x) .....................................
 72
   65
 73
    2
 40
3.175
 49
0
 74
    0
 49
-3.175
 74
    0
  0
LTYPE
  5
35
330
5
100
AcDbSymbolTableRecord
100
AcDbLinetypeTableRecord
  2
DOTX2
 70
    0
  3
Dot (2x) .  .  .  .  .  .  .  .  .  .  .  .  .
 72
   65
 73
    2
 40
12.7
 49
0
 74
    0
 49
-12.7
 74
    0
  0
LTYPE
  5
36
330
5
100
AcDbSymbolTableRecord
100
AcDbLinetypeTableRecord
  2
DASHED
 70
    0
  3
Dashed _ _ _ _ _ _ _ _ _ _ _ _ _ _ _ _ _
 72
   65
 73
    2
 40
19.05
 49
12.7
 74
    0
 49
-6.35
 74
    0
  0
LTYPE
  5
37
330
5
100
AcDbSymbolTableRecord
100
AcDbLinetypeTableRecord
  2
DASHEDTINY
 70
    0
  3
Dashed (.15x) _ _ _ _ _ _ _ _ _ _ _ _ _ _ _ _ _
 72
   65
 73
    2
 40
2.8575
 49
1.905
 74
    0
 49
-0.9525
 74
    0
  0
LTYPE
  5
38
330
5
100
AcDbSymbolTableRecord
100
AcDbLinetypeTableRecord
  2
DASHED2
 70
    0
  3
Dashed (.5x) _ _ _ _ _ _ _ _ _ _ _ _ _ _ _ _ _
 72
   65
 73
    2
 40
9.524999999999999
 49
6.35
 74
    0
 49
-3.175
 74
    0
  0
LTYPE
  5
39
330
5
100
AcDbSymbolTableRecord
100
AcDbLinetypeTableRecord
  2
DASHEDX2
 70
    0
  3
Dashed (2x) ____  ____  ____  ____  ____  ___
 72
   65
 73
    2
 40
38.09999999999999
 49
25.4
 74
    0
 49
-12.7
 74
    0
  0
LTYPE
  5
3A
330
5
100
AcDbSymbolTableRecord
100
AcDbLinetypeTableRecord
  2
DASHDOT
 70
    0
  3
Dash dot __ . __ . __ . __ . __ . __ . __ . __
 72
   65
 73
    4
 40
25.4
 49
12.7
 74
    0
 49
-6.35
 74
    0
 49
0
 74
    0
 49
-6.35
 74
    0
  0
LTYPE
  5
3B
330
5
100
AcDbSymbolTableRecord
100
AcDbLinetypeTableRecord
  2
DASHDOTTINY
 70
    0
  3
Dash dot (.15x) _._._._._._._._._._._._._._._.
 72
   65
 73
    4
 40
3.81
 49
1.905
 74
    0
 49
-0.9525
 74
    0
 49
0
 74
    0
 49
-0.9525
 74
    0
  0
LTYPE
  5
3C
330
5
100
AcDbSymbolTableRecord
100
AcDbLinetypeTableRecord
  2
DASHDOT2
 70
    0
  3
Dash dot (.5x) _._._._._._._._._._._._._._._.
 72
   65
 73
    4
 40
12.7
 49
6.35
 74
    0
 49
-3.175
 74
    0
 49
0
 74
    0
 49
-3.175
 74
    0
  0
LTYPE
  5
3D
330
5
100
AcDbSymbolTableRecord
100
AcDbLinetypeTableRecord
  2
DASHDOTX2
 70
    0
  3
Dash dot (2x) ____  .  ____  .  ____  .  ___
 72
   65
 73
    4
 40
50.8
 49
25.4
 74
    0
 49
-12.7
 74
    0
 49
0
 74
    0
 49
-12.7
 74
    0
  0
LTYPE
  5
3E
330
5
100
AcDbSymbolTableRecord
100
AcDbLinetypeTableRecord
  2
DIVIDE
 70
    0
  3
Divide ____ . . ____ . . ____ . . ____ . . ____
 72
   65
 73
    6
 40
31.75
 49
12.7
 74
    0
 49
-6.35
 74
    0
 49
0
 74
    0
 49
-6.35
 74
    0
 49
0
 74
    0
 49
-6.35
 74
    0
  0
LTYPE
  5
3F
330
5
100
AcDbSymbolTableRecord
100
AcDbLinetypeTableRecord
  2
DIVIDETINY
 70
    0
  3
Divide (.15x) __..__..__..__..__..__..__..__.._
 72
   65
 73
    6
 40
4.7625
 49
1.905
 74
    0
 49
-0.9525
 74
    0
 49
0
 74
    0
 49
-0.9525
 74
    0
 49
0
 74
    0
 49
-0.9525
 74
    0
  0
LTYPE
  5
40
330
5
100
AcDbSymbolTableRecord
100
AcDbLinetypeTableRecord
  2
DIVIDE2
 70
    0
  3
Divide (.5x) __..__..__..__..__..__..__..__.._
 72
   65
 73
    6
 40
15.875
 49
6.35
 74
    0
 49
-3.175
 74
    0
 49
0
 74
    0
 49
-3.175
 74
    0
 49
0
 74
    0
 49
-3.175
 74
    0
  0
LTYPE
  5
41
330
5
100
AcDbSymbolTableRecord
100
AcDbLinetypeTableRecord
  2
DIVIDEX2
 70
    0
  3
Divide (2x) ________  .  .  ________  .  .  _
 72
   65
 73
    6
 40
63.5
 49
25.4
 74
    0
 49
-12.7
 74
    0
 49
0
 74
    0
 49
-12.7
 74
    0
 49
0
 74
    0
 49
-12.7
 74
    0
  0
LTYPE
  5
42
330
5
100
AcDbSymbolTableRecord
100
AcDbLinetypeTableRecord
  2
BORDER
 70
    0
  3
Border __ __ . __ __ . __ __ . __ __ . __ __ .
 72
   65
 73
    6
 40
44.45
 49
12.7
 74
    0
 49
-6.35
 74
    0
 49
12.7
 74
    0
 49
-6.35
 74
    0
 49
0
 74
    0
 49
-6.35
 74
    0
  0
LTYPE
  5
43
330
5
100
AcDbSymbolTableRecord
100
AcDbLinetypeTableRecord
  2
BORDERTINY
 70
    0
  3
Border (.15x) __.__.__.__.__.__.__.__.__.__.__.
 72
   65
 73
    6
 40
6.6675
 49
1.905
 74
    0
 49
-0.9525
 74
    0
 49
1.905
 74
    0
 49
-0.9525
 74
    0
 49
0
 74
    0
 49
-0.9525
 74
    0
  0
LTYPE
  5
44
330
5
100
AcDbSymbolTableRecord
100
AcDbLinetypeTableRecord
  2
BORDER2
 70
    0
  3
Border (.5x) __.__.__.__.__.__.__.__.__.__.__.
 72
   65
 73
    6
 40
22.225
 49
6.35
 74
    0
 49
-3.175
 74
    0
 49
6.35
 74
    0
 49
-3.175
 74
    0
 49
0
 74
    0
 49
-3.175
 74
    0
  0
LTYPE
  5
45
330
5
100
AcDbSymbolTableRecord
100
AcDbLinetypeTableRecord
  2
BORDERX2
 70
    0
  3
Border (2x) ____  ____  .  ____  ____  .  ___
 72
   65
 73
    6
 40
88.89999999999999
 49
25.4
 74
    0
 49
-12.7
 74
    0
 49
25.4
 74
    0
 49
-12.7
 74
    0
 49
0
 74
    0
 49
-12.7
 74
    0
  0
LTYPE
  5
46
330
5
100
AcDbSymbolTableRecord
100
AcDbLinetypeTableRecord
  2
CENTER
 70
    0
  3
Center ____ _ ____ _ ____ _ ____ _ ____ _ ____
 72
   65
 73
    4
 40
50.8
 49
31.75
 74
    0
 49
-6.35
 74
    0
 49
6.35
 74
    0
 49
-6.35
 74
    0
  0
LTYPE
  5
47
330
5
100
AcDbSymbolTableRecord
100
AcDbLinetypeTableRecord
  2
CENTERTINY
 70
    0
  3
Center (.15x) ___ _ ___ _ ___ _ ___ _ ___ _ ___
 72
   65
 73
    4
 40
7.62
 49
4.7625
 74
    0
 49
-0.9525
 74
    0
 49
0.9525
 74
    0
 49
-0.9525
 74
    0
  0
LTYPE
  5
48
330
5
100
AcDbSymbolTableRecord
100
AcDbLinetypeTableRecord
  2
CENTER2
 70
    0
  3
Center (.5x) ___ _ ___ _ ___ _ ___ _ ___ _ ___
 72
   65
 73
    4
 40
28.575
 49
19.05
 74
    0
 49
-3.175
 74
    0
 49
3.175
 74
    0
 49
-3.175
 74
    0
  0
LTYPE
  5
49
330
5
100
AcDbSymbolTableRecord
100
AcDbLinetypeTableRecord
  2
CENTERX2
 70
    0
  3
Center (2x) ________  __  ________  __  _____
 72
   65
 73
    4
 40
101.6
 49
63.5
 74
    0
 49
-12.7
 74
    0
 49
12.7
 74
    0
 49
-12.7
 74
    0
  0
ENDTAB
  0
TABLE
  2
LAYER
  5
2
330
0
100
AcDbSymbolTable
 70
    1
  0
LAYER
  5
10
330
2
100
AcDbSymbolTableRecord
100
AcDbLayerTableRecord
  2
0
 70
    0
 62
    7
  6
CONTINUOUS
370
    0
390
F
  0
LAYER
  5
4A
330
2
100
AcDbSymbolTableRecord
100
AcDbLayerTableRecord
  2
Centerlines
 70
    0
 62
    3
  6
DASHDOT2
370
   18
390
F
  0
LAYER
  5
4B
330
2
100
AcDbSymbolTableRecord
100
AcDbLayerTableRecord
  2
ConstructionX
 70
    1
 62
   40
420
16755200
  6
CONTINUOUS
370
    0
390
F
1001
LibreCad
1070
    1
  0
LAYER
  5
4C
330
2
100
AcDbSymbolTableRecord
100
AcDbLayerTableRecord
  2
ConstructionY
 70
    1
 62
    6
  6
CONTINUOUS
370
    0
390
F
1001
LibreCad
1070
    1
  0
LAYER
  5
4D
330
2
100
AcDbSymbolTableRecord
100
AcDbLayerTableRecord
  2
Hidden
 70
    0
 62
    2
  6
DASHED2
370
   25
390
F
  0
LAYER
  5
4E
330
2
100
AcDbSymbolTableRecord
100
AcDbLayerTableRecord
  2
Main
 70
    0
 62
    7
  6
CONTINUOUS
370
   35
390
F
  0
LAYER
  5
4F
330
2
100
AcDbSymbolTableRecord
100
AcDbLayerTableRecord
  2
Measurements
 70
    0
 62
    4
  6
CONTINUOUS
370
   18
390
F
  0
ENDTAB
  0
TABLE
  2
STYLE
  5
3
330
0
100
AcDbSymbolTable
 70
    3
  0
STYLE
  5
50
330
2
100
AcDbSymbolTableRecord
100
AcDbTextStyleTableRecord
  2
Standard
 70
    0
 40
0
 41
1
 50
0
 71
    0
 42
1
  3
txt
  4

  0
ENDTAB
  0
TABLE
  2
VIEW
  5
6
330
0
100
AcDbSymbolTable
 70
    0
  0
ENDTAB
  0
TABLE
  2
UCS
  5
7
330
0
100
AcDbSymbolTable
 70
    0
  0
ENDTAB
  0
TABLE
  2
APPID
  5
9
330
0
100
AcDbSymbolTable
 70
    1
  0
APPID
  5
12
330
9
100
AcDbSymbolTableRecord
100
AcDbRegAppTableRecord
  2
ACAD
 70
    0
  0
APPID
  5
51
330
9
100
AcDbSymbolTableRecord
100
AcDbRegAppTableRecord
  2
LibreCad
 70
    0
  0
ENDTAB
  0
TABLE
  2
DIMSTYLE
  5
A
330
0
100
AcDbSymbolTable
 70
    1
100
AcDbDimStyleTable
 71
    1
  0
DIMSTYLE
105
52
330
A
100
AcDbSymbolTableRecord
100
AcDbDimStyleTableRecord
  2
Standard
 70
    0
 40
2.5
 41
2.5
 42
0.625
 43
0.38
 44
1.25
 45
0
 46
0
 47
0
 48
0
 49
1
140
2.5
141
0.09
142
0
143
25.4
144
1
145
0
146
1
147
0.625
148
0
 71
    0
 72
    0
 73
    0
 74
    1
 75
    0
 76
    0
 77
    0
 78
    1
 79
    0
170
    0
171
    2
172
    0
173
    0
174
    0
175
    0
176
    0
177
    0
178
    0
179
    2
271
    2
272
    4
273
    2
274
    2
275
    0
276
    0
277
    2
278
   44
279
    0
280
    0
281
    0
282
    0
283
    1
284
    0
285
    0
286
    0
288
    0
289
    3
340
standard
341

371
   -2
372
   -2
  0
ENDTAB
  0
TABLE
  2
BLOCK_RECORD
  5
1
330
0
100
AcDbSymbolTable
 70
    2
  0
BLOCK_RECORD
  5
1F
330
1
100
AcDbSymbolTableRecord
100
AcDbBlockTableRecord
  2
*Model_Space
 70
    0
280
    1
281
    0
  0
BLOCK_RECORD
  5
1E
330
1
100
AcDbSymbolTableRecord
100
AcDbBlockTableRecord
  2
*Paper_Space
 70
    0
280
    1
281
    0
  0
BLOCK_RECORD
  5
53
330
1
100
AcDbSymbolTableRecord
100
AcDbBlockTableRecord
  2
*D19
 70
    0
280
    1
281
    0
  0
BLOCK_RECORD
  5
56
330
1
100
AcDbSymbolTableRecord
100
AcDbBlockTableRecord
  2
*D6
 70
    0
280
    1
281
    0
  0
BLOCK_RECORD
  5
59
330
1
100
AcDbSymbolTableRecord
100
AcDbBlockTableRecord
  2
*D7
 70
    0
280
    1
281
    0
  0
BLOCK_RECORD
  5
5C
330
1
100
AcDbSymbolTableRecord
100
AcDbBlockTableRecord
  2
*D2
 70
    0
280
    1
281
    0
  0
BLOCK_RECORD
  5
5F
330
1
100
AcDbSymbolTableRecord
100
AcDbBlockTableRecord
  2
*D14
 70
    0
280
    1
281
    0
  0
BLOCK_RECORD
  5
62
330
1
100
AcDbSymbolTableRecord
100
AcDbBlockTableRecord
  2
*D16
 70
    0
280
    1
281
    0
  0
BLOCK_RECORD
  5
65
330
1
100
AcDbSymbolTableRecord
100
AcDbBlockTableRecord
  2
*D8
 70
    0
280
    1
281
    0
  0
BLOCK_RECORD
  5
68
330
1
100
AcDbSymbolTableRecord
100
AcDbBlockTableRecord
  2
*D13
 70
    0
280
    1
281
    0
  0
BLOCK_RECORD
  5
6B
330
1
100
AcDbSymbolTableRecord
100
AcDbBlockTableRecord
  2
*D22
 70
    0
280
    1
281
    0
  0
BLOCK_RECORD
  5
6E
330
1
100
AcDbSymbolTableRecord
100
AcDbBlockTableRecord
  2
*D23
 70
    0
280
    1
281
    0
  0
BLOCK_RECORD
  5
71
330
1
100
AcDbSymbolTableRecord
100
AcDbBlockTableRecord
  2
*D10
 70
    0
280
    1
281
    0
  0
BLOCK_RECORD
  5
74
330
1
100
AcDbSymbolTableRecord
100
AcDbBlockTableRecord
  2
*D11
 70
    0
280
    1
281
    0
  0
BLOCK_RECORD
  5
77
330
1
100
AcDbSymbolTableRecord
100
AcDbBlockTableRecord
  2
*D18
 70
    0
280
    1
281
    0
  0
BLOCK_RECORD
  5
7A
330
1
100
AcDbSymbolTableRecord
100
AcDbBlockTableRecord
  2
*D17
 70
    0
280
    1
281
    0
  0
BLOCK_RECORD
  5
7D
330
1
100
AcDbSymbolTableRecord
100
AcDbBlockTableRecord
  2
*D21
 70
    0
280
    1
281
    0
  0
BLOCK_RECORD
  5
80
330
1
100
AcDbSymbolTableRecord
100
AcDbBlockTableRecord
  2
*D3
 70
    0
280
    1
281
    0
  0
BLOCK_RECORD
  5
83
330
1
100
AcDbSymbolTableRecord
100
AcDbBlockTableRecord
  2
*D25
 70
    0
280
    1
281
    0
  0
BLOCK_RECORD
  5
86
330
1
100
AcDbSymbolTableRecord
100
AcDbBlockTableRecord
  2
*D1
 70
    0
280
    1
281
    0
  0
BLOCK_RECORD
  5
89
330
1
100
AcDbSymbolTableRecord
100
AcDbBlockTableRecord
  2
*D12
 70
    0
280
    1
281
    0
  0
BLOCK_RECORD
  5
8C
330
1
100
AcDbSymbolTableRecord
100
AcDbBlockTableRecord
  2
*D24
 70
    0
280
    1
281
    0
  0
BLOCK_RECORD
  5
8F
330
1
100
AcDbSymbolTableRecord
100
AcDbBlockTableRecord
  2
*D4
 70
    0
280
    1
281
    0
  0
BLOCK_RECORD
  5
92
330
1
100
AcDbSymbolTableRecord
100
AcDbBlockTableRecord
  2
*D20
 70
    0
280
    1
281
    0
  0
BLOCK_RECORD
  5
95
330
1
100
AcDbSymbolTableRecord
100
AcDbBlockTableRecord
  2
*D5
 70
    0
280
    1
281
    0
  0
BLOCK_RECORD
  5
98
330
1
100
AcDbSymbolTableRecord
100
AcDbBlockTableRecord
  2
*D15
 70
    0
280
    1
281
    0
  0
BLOCK_RECORD
  5
9B
330
1
100
AcDbSymbolTableRecord
100
AcDbBlockTableRecord
  2
*D9
 70
    0
280
    1
281
    0
  0
ENDTAB
  0
ENDSEC
  0
SECTION
  2
BLOCKS
  0
BLOCK
  5
20
330
1F
100
AcDbEntity
  8
0
100
AcDbBlockBegin
  2
*Model_Space
 70
    0
 10
0
 20
0
 30
0
  3
*Model_Space
  1

  0
ENDBLK
  5
21
330
1F
100
AcDbEntity
  8
0
100
AcDbBlockEnd
  0
BLOCK
  5
1C
330
1B
100
AcDbEntity
  8
0
100
AcDbBlockBegin
  2
*Paper_Space
 70
    0
 10
0
 20
0
 30
0
  3
*Paper_Space
  1

  0
ENDBLK
  5
1D
330
1F
100
AcDbEntity
  8
0
100
AcDbBlockEnd
  0
BLOCK
  5
54
330
53
100
AcDbEntity
  8
0
100
AcDbBlockBegin
  2
*D19
 70
    1
 10
0
 20
0
  3
*D19
  1

  0
LINE
  5
9E
100
AcDbEntity
  8
Measurements
  6
ByBlock
 62
    0
370
   -2
100
AcDbLine
 10
470
 20
-65
 11
470
 21
-100
  0
SOLID
  5
9F
100
AcDbEntity
  8
Measurements
  6
ByBlock
 62
    0
370
   -2
100
AcDbTrace
 10
470
 20
-65
 30
0
 11
471.0407116444321
 21
-71.25
 31
0
 12
468.9592883555679
 22
-71.25
 32
0
 13
468.9592883555679
 23
-71.25
 33
0
  0
SOLID
  5
A0
100
AcDbEntity
  8
Measurements
  6
ByBlock
 62
    0
370
   -2
100
AcDbTrace
 10
470
 20
-100
 30
0
 11
468.9592883555679
 21
-93.75
 31
0
 12
471.0407116444321
 22
-93.75
 32
0
 13
471.0407116444321
 23
-93.75
 33
0
  0
MTEXT
  5
A1
100
AcDbEntity
  8
Measurements
  6
CONTINUOUS
 62
    0
370
   -2
100
AcDbMText
 10
465.3125
 20
-82.5
 30
0
 40
6.25
 41
19.79166666666744
 71
    5
 72
    1
  1
35,00
  7
standard
210
0
220
0
230
1
 50
90
 73
    2
 44
1
  0
LINE
  5
A2
100
AcDbEntity
  8
Measurements
  6
ByBlock
 62
    0
370
   -2
100
AcDbLine
 10
441.5625
 20
-65
 11
473.125
 21
-65
  0
LINE
  5
A3
100
AcDbEntity
  8
Measurements
  6
ByBlock
 62
    0
370
   -2
100
AcDbLine
 10
441.5625
 20
-100
 11
473.125
 21
-100
  0
ENDBLK
  5
55
330
53
100
AcDbEntity
  8
0
100
AcDbBlockEnd
  0
BLOCK
  5
57
330
56
100
AcDbEntity
  8
0
100
AcDbBlockBegin
  2
*D6
 70
    1
 10
0
 20
0
  3
*D6
  1

  0
SOLID
  5
A4
100
AcDbEntity
  8
Measurements
  6
ByBlock
 62
    0
370
   -2
100
AcDbTrace
 10
4.393398282201785
 20
4.393398282201789
 30
0
 11
0.7098751608235988
 21
-0.7619133612518703
 31
0
 12
-0.7619133612518842
 22
0.7098751608236151
 32
0
 13
-0.7619133612518842
 23
0.7098751608236151
 33
0
  0
LINE
  5
A5
100
AcDbEntity
  8
Measurements
  6
ByBlock
 62
    0
370
   -2
100
AcDbLine
 10
15
 20
15
 11
-17.45816544196612
 21
-17.45816544196608
  0
MTEXT
  5
A6
100
AcDbEntity
  8
Measurements
  6
CONTINUOUS
 62
    0
370
   -2
100
AcDbMText
 10
-9.846946616694108
 20
-3.2178205430702
 30
0
 40
6.25
 41
18.40277777777816
 71
    5
 72
    1
  1
15,00
  7
standard
210
0
220
0
230
1
 50
44.99999999999995
 73
    2
 44
1
  0
ENDBLK
  5
58
330
56
100
AcDbEntity
  8
0
100
AcDbBlockEnd
  0
BLOCK
  5
5A
330
59
100
AcDbEntity
  8
0
100
AcDbBlockBegin
  2
*D7
 70
    1
 10
0
 20
0
  3
*D7
  1

  0
SOLID
  5
A7
100
AcDbEntity
  8
Measurements
  6
ByBlock
 62
    0
370
   -2
100
AcDbTrace
 10
16.58359213500126
 20
23.29179606750063
 30
0
 11
11.45884258763694
 21
19.56587030285559
 31
0
 12
10.52800179486663
 22
21.4275518883962
 32
0
 13
10.52800179486663
 23
21.4275518883962
 33
0
  0
LINE
  5
A8
100
AcDbEntity
  8
Measurements
  6
ByBlock
 62
    0
370
   -2
100
AcDbLine
 10
30
 20
30
 11
-11.05669258687148
 21
9.471653706564261
  0
MTEXT
  5
A9
100
AcDbEntity
  8
Measurements
  6
CONTINUOUS
 62
    0
370
   -2
100
AcDbMText
 10
0.6671360451588355
 20
20.57435234484455
 30
0
 40
6.25
 41
18.40277777777816
 71
    5
 72
    1
  1
15,00
  7
standard
210
0
220
0
230
1
 50
26.56505117707799
 73
    2
 44
1
  0
ENDBLK
  5
5B
330
59
100
AcDbEntity
  8
0
100
AcDbBlockEnd
  0
BLOCK
  5
5D
330
5C
100
AcDbEntity
  8
0
100
AcDbBlockBegin
  2
*D2
 70
    1
 10
0
 20
0
  3
*D2
  1

  0
LINE
  5
AA
100
AcDbEntity
  8
Measurements
  6
ByBlock
 62
    0
370
   -2
100
AcDbLine
 10
0
 20
160
 11
170
 21
160
  0
SOLID
  5
AB
100
AcDbEntity
  8
Measurements
  6
ByBlock
 62
    0
370
   -2
100
AcDbTrace
 10
0
 20
160
 30
0
 11
6.25
 21
161.0407116444321
 31
0
 12
6.25
 22
158.9592883555679
 32
0
 13
6.25
 23
158.9592883555679
 33
0
  0
SOLID
  5
AC
100
AcDbEntity
  8
Measurements
  6
ByBlock
 62
    0
370
   -2
100
AcDbTrace
 10
170
 20
160
 30
0
 11
163.75
 21
158.9592883555679
 31
0
 12
163.75
 22
161.0407116444321
 32
0
 13
163.75
 23
161.0407116444321
 33
0
  0
MTEXT
  5
AD
100
AcDbEntity
  8
Measurements
  6
CONTINUOUS
 62
    0
370
   -2
100
AcDbMText
 10
85
 20
164.6875
 30
0
 40
6.25
 41
23.26388888888889
 71
    5
 72
    1
  1
170,00
  7
standard
210
0
220
0
230
1
 50
0
 73
    2
 44
1
  0
LINE
  5
AE
100
AcDbEntity
  8
Measurements
  6
ByBlock
 62
    0
370
   -2
100
AcDbLine
 10
1.115689775266736e-015
 20
116.5624985992025
 11
1.913447427847464e-016
 21
163.125
  0
LINE
  5
AF
100
AcDbEntity
  8
Measurements
  6
ByBlock
 62
    0
370
   -2
100
AcDbLine
 10
170
 20
116.5624962106878
 11
170
 21
163.125
  0
ENDBLK
  5
5E
330
5C
100
AcDbEntity
  8
0
100
AcDbBlockEnd
  0
BLOCK
  5
60
330
5F
100
AcDbEntity
  8
0
100
AcDbBlockBegin
  2
*D14
 70
    1
 10
0
 20
0
  3
*D14
  1

  0
LINE
  5
B0
100
AcDbEntity
  8
Measurements
  6
ByBlock
 62
    0
370
   -2
100
AcDbLine
 10
200
 20
-235
 11
200
 21
-210
  0
SOLID
  5
B1
100
AcDbEntity
  8
Measurements
  6
ByBlock
 62
    0
370
   -2
100
AcDbTrace
 10
200
 20
-235
 30
0
 11
198.9592883555679
 21
-228.75
 31
0
 12
201.0407116444321
 22
-228.75
 32
0
 13
201.0407116444321
 23
-228.75
 33
0
  0
SOLID
  5
B2
100
AcDbEntity
  8
Measurements
  6
ByBlock
 62
    0
370
   -2
100
AcDbTrace
 10
200
 20
-210
 30
0
 11
201.0407116444321
 21
-216.25
 31
0
 12
198.9592883555679
 22
-216.25
 32
0
 13
198.9592883555679
 23
-216.25
 33
0
  0
MTEXT
  5
B3
100
AcDbEntity
  8
Measurements
  6
CONTINUOUS
 62
    0
370
   -2
100
AcDbMText
 10
195.3125
 20
-222.5
 30
0
 40
6.25
 41
19.79166666666706
 71
    5
 72
    1
  1
25,00
  7
standard
210
0
220
0
230
1
 50
90
 73
    2
 44
1
  0
LINE
  5
B4
100
AcDbEntity
  8
Measurements
  6
ByBlock
 62
    0
370
   -2
100
AcDbLine
 10
131.5625
 20
-235
 11
203.125
 21
-235
  0
LINE
  5
B5
100
AcDbEntity
  8
Measurements
  6
ByBlock
 62
    0
370
   -2
100
AcDbLine
 10
131.5625
 20
-210
 11
203.125
 21
-210
  0
ENDBLK
  5
61
330
5F
100
AcDbEntity
  8
0
100
AcDbBlockEnd
  0
BLOCK
  5
63
330
62
100
AcDbEntity
  8
0
100
AcDbBlockBegin
  2
*D16
 70
    1
 10
0
 20
0
  3
*D16
  1

  0
LINE
  5
B6
100
AcDbEntity
  8
Measurements
  6
ByBlock
 62
    0
370
   -2
100
AcDbLine
 10
40
 20
-280
 11
130
 21
-280
  0
SOLID
  5
B7
100
AcDbEntity
  8
Measurements
  6
ByBlock
 62
    0
370
   -2
100
AcDbTrace
 10
40
 20
-280
 30
0
 11
46.25
 21
-278.9592883555679
 31
0
 12
46.25
 22
-281.0407116444321
 32
0
 13
46.25
 23
-281.0407116444321
 33
0
  0
SOLID
  5
B8
100
AcDbEntity
  8
Measurements
  6
ByBlock
 62
    0
370
   -2
100
AcDbTrace
 10
130
 20
-280
 30
0
 11
123.75
 21
-281.0407116444321
 31
0
 12
123.75
 22
-278.9592883555679
 32
0
 13
123.75
 23
-278.9592883555679
 33
0
  0
MTEXT
  5
B9
100
AcDbEntity
  8
Measurements
  6
CONTINUOUS
 62
    0
370
   -2
100
AcDbMText
 10
85
 20
-275.3125
 30
0
 40
6.25
 41
19.79166666666706
 71
    5
 72
    1
  1
90,00
  7
standard
210
0
220
0
230
1
 50
0
 73
    2
 44
1
  0
LINE
  5
BA
100
AcDbEntity
  8
Measurements
  6
ByBlock
 62
    0
370
   -2
100
AcDbLine
 10
39.99999999999999
 20
-236.5625
 11
40
 21
-283.125
  0
LINE
  5
BB
100
AcDbEntity
  8
Measurements
  6
ByBlock
 62
    0
370
   -2
100
AcDbLine
 10
130
 20
-236.5625
 11
130
 21
-283.125
  0
ENDBLK
  5
64
330
62
100
AcDbEntity
  8
0
100
AcDbBlockEnd
  0
BLOCK
  5
66
330
65
100
AcDbEntity
  8
0
100
AcDbBlockBegin
  2
*D8
 70
    1
 10
0
 20
0
  3
*D8
  1

  0
SOLID
  5
BC
100
AcDbEntity
  8
Measurements
  6
ByBlock
 62
    0
370
   -2
100
AcDbTrace
 10
21.05572809000084
 20
60.52786404500042
 30
0
 11
15.93097854263652
 21
56.80193828035538
 31
0
 12
15.00013774986621
 22
58.663619865896
 32
0
 13
15.00013774986621
 23
58.663619865896
 33
0
  0
LINE
  5
BD
100
AcDbEntity
  8
Measurements
  6
ByBlock
 62
    0
370
   -2
100
AcDbLine
 10
30
 20
65
 11
-6.584556631871564
 21
46.70772168406423
  0
MTEXT
  5
BE
100
AcDbEntity
  8
Measurements
  6
CONTINUOUS
 62
    0
370
   -2
100
AcDbMText
 10
5.139272000158586
 20
57.81042032234443
 30
0
 40
6.25
 41
18.40277777777778
 71
    5
 72
    1
  1
10,00
  7
standard
210
0
220
0
230
1
 50
26.56505117707799
 73
    2
 44
1
  0
ENDBLK
  5
67
330
65
100
AcDbEntity
  8
0
100
AcDbBlockEnd
  0
BLOCK
  5
69
330
68
100
AcDbEntity
  8
0
100
AcDbBlockBegin
  2
*D13
 70
    1
 10
0
 20
0
  3
*D13
  1

  0
LINE
  5
BF
100
AcDbEntity
  8
Measurements
  6
ByBlock
 62
    0
370
   -2
100
AcDbLine
 10
200
 20
-222.5
 11
200
 21
-187.5
  0
SOLID
  5
C0
100
AcDbEntity
  8
Measurements
  6
ByBlock
 62
    0
370
   -2
100
AcDbTrace
 10
200
 20
-210
 30
0
 11
201.0407116444321
 21
-216.25
 31
0
 12
198.9592883555679
 22
-216.25
 32
0
 13
198.9592883555679
 23
-216.25
 33
0
  0
SOLID
  5
C1
100
AcDbEntity
  8
Measurements
  6
ByBlock
 62
    0
370
   -2
100
AcDbTrace
 10
200
 20
-200
 30
0
 11
198.9592883555679
 21
-193.75
 31
0
 12
201.0407116444321
 22
-193.75
 32
0
 13
201.0407116444321
 23
-193.75
 33
0
  0
MTEXT
  5
C2
100
AcDbEntity
  8
Measurements
  6
CONTINUOUS
 62
    0
370
   -2
100
AcDbMText
 10
195.3125
 20
-189.2361111111111
 30
0
 40
6.25
 41
18.40277777777778
 71
    5
 72
    1
  1
10,00
  7
standard
210
0
220
0
230
1
 50
90
 73
    2
 44
1
  0
LINE
  5
C3
100
AcDbEntity
  8
Measurements
  6
ByBlock
 62
    0
370
   -2
100
AcDbLine
 10
131.5625
 20
-210
 11
203.125
 21
-210
  0
LINE
  5
C4
100
AcDbEntity
  8
Measurements
  6
ByBlock
 62
    0
370
   -2
100
AcDbLine
 10
131.5625
 20
-200
 11
203.125
 21
-200
  0
ENDBLK
  5
6A
330
68
100
AcDbEntity
  8
0
100
AcDbBlockEnd
  0
BLOCK
  5
6C
330
6B
100
AcDbEntity
  8
0
100
AcDbBlockBegin
  2
*D22
 70
    1
 10
0
 20
0
  3
*D22
  1

  0
LINE
  5
C5
100
AcDbEntity
  8
Measurements
  6
ByBlock
 62
    0
370
   -2
100
AcDbLine
 10
310
 20
-22.14555931933535
 11
440
 21
-22.14555931933535
  0
SOLID
  5
C6
100
AcDbEntity
  8
Measurements
  6
ByBlock
 62
    0
370
   -2
100
AcDbTrace
 10
310
 20
-22.14555931933535
 30
0
 11
316.25
 21
-21.10484767490325
 31
0
 12
316.25
 22
-23.18627096376745
 32
0
 13
316.25
 23
-23.18627096376745
 33
0
  0
SOLID
  5
C7
100
AcDbEntity
  8
Measurements
  6
ByBlock
 62
    0
370
   -2
100
AcDbTrace
 10
440
 20
-22.14555931933535
 30
0
 11
433.75
 21
-23.18627096376745
 31
0
 12
433.75
 22
-21.10484767490325
 32
0
 13
433.75
 23
-21.10484767490325
 33
0
  0
MTEXT
  5
C8
100
AcDbEntity
  8
Measurements
  6
CONTINUOUS
 62
    0
370
   -2
100
AcDbMText
 10
375
 20
-17.45805931933535
 30
0
 40
6.25
 41
23.26388888888928
 71
    5
 72
    1
  1
130,00
  7
standard
210
0
220
0
230
1
 50
0
 73
    2
 44
1
  0
LINE
  5
C9
100
AcDbEntity
  8
Measurements
  6
ByBlock
 62
    0
370
   -2
100
AcDbLine
 10
310
 20
-98.4375
 11
310
 21
-19.02055931933535
  0
LINE
  5
CA
100
AcDbEntity
  8
Measurements
  6
ByBlock
 62
    0
370
   -2
100
AcDbLine
 10
440
 20
-98.4375
 11
440
 21
-19.02055931933535
  0
ENDBLK
  5
6D
330
6B
100
AcDbEntity
  8
0
100
AcDbBlockEnd
  0
BLOCK
  5
6F
330
6E
100
AcDbEntity
  8
0
100
AcDbBlockBegin
  2
*D23
 70
    1
 10
0
 20
0
  3
*D23
  1

  0
SOLID
  5
CB
100
AcDbEntity
  8
Measurements
  6
ByBlock
 62
    0
370
   -2
100
AcDbTrace
 10
96.92377070544421
 20
-70.832354360037
 30
0
 11
101.2605314988915
 21
-66.21303768467529
 31
0
 12
102.5233874143983
 22
-67.86758228791084
 32
0
 13
102.5233874143983
 23
-67.86758228791084
 33
0
  0
LINE
  5
CC
100
AcDbEntity
  8
Measurements
  6
ByBlock
 62
    0
370
   -2
100
AcDbLine
 10
85
 20
-79.93335069526384
 11
121.4887039752701
 21
-52.08280162319173
  0
MTEXT
  5
CD
100
AcDbEntity
  8
Measurements
  6
CONTINUOUS
 62
    0
370
   -2
100
AcDbMText
 10
106.3622040600492
 20
-57.73143642821386
 30
0
 40
6.25
 41
18.40277777777816
 71
    5
 72
    1
  1
15,00
  7
standard
210
0
220
0
230
1
 50
37.35322534813226
 73
    2
 44
1
  0
ENDBLK
  5
70
330
6E
100
AcDbEntity
  8
0
100
AcDbBlockEnd
  0
BLOCK
  5
72
330
71
100
AcDbEntity
  8
0
100
AcDbBlockBegin
  2
*D10
 70
    1
 10
0
 20
0
  3
*D10
  1

  0
SOLID
  5
CE
100
AcDbEntity
  8
Measurements
  6
ByBlock
 62
    0
370
   -2
100
AcDbTrace
 10
68.7253305758653
 20
42.21546280621142
 30
0
 11
65.93945376406995
 21
36.52472725477718
 31
0
 12
64.24572996617195
 22
37.73452996756147
 32
0
 13
64.24572996617195
 23
37.73452996756147
 33
0
  0
LINE
  5
CF
100
AcDbEntity
  8
Measurements
  6
ByBlock
 62
    0
370
   -2
100
AcDbLine
 10
85
 20
65
 11
49.95618057035281
 21
15.93865279849394
  0
MTEXT
  5
D0
100
AcDbEntity
  8
Measurements
  6
CONTINUOUS
 62
    0
370
   -2
100
AcDbMText
 10
55.52637992682749
 20
31.80161183541095
 30
0
 40
6.25
 41
19.79166666666666
 71
    5
 72
    1
  1
28,00
  7
standard
210
0
220
0
230
1
 50
54.46232220802562
 73
    2
 44
1
  0
ENDBLK
  5
73
330
71
100
AcDbEntity
  8
0
100
AcDbBlockEnd
  0
BLOCK
  5
75
330
74
100
AcDbEntity
  8
0
100
AcDbBlockBegin
  2
*D11
 70
    1
 10
0
 20
0
  3
*D11
  1

  0
LINE
  5
D1
100
AcDbEntity
  8
Measurements
  6
ByBlock
 62
    0
370
   -2
100
AcDbLine
 10
110
 20
142.5
 11
110
 21
102.5
  0
SOLID
  5
D2
100
AcDbEntity
  8
Measurements
  6
ByBlock
 62
    0
370
   -2
100
AcDbTrace
 10
110
 20
130
 30
0
 11
108.9592883555679
 21
136.25
 31
0
 12
111.0407116444321
 22
136.25
 32
0
 13
111.0407116444321
 23
136.25
 33
0
  0
SOLID
  5
D3
100
AcDbEntity
  8
Measurements
  6
ByBlock
 62
    0
370
   -2
100
AcDbTrace
 10
110
 20
115
 30
0
 11
111.0407116444321
 21
108.75
 31
0
 12
108.9592883555679
 22
108.75
 32
0
 13
108.9592883555679
 23
108.75
 33
0
  0
MTEXT
  5
D4
100
AcDbEntity
  8
Measurements
  6
CONTINUOUS
 62
    0
370
   -2
100
AcDbMText
 10
105.3125
 20
140.7638888888891
 30
0
 40
6.25
 41
18.40277777777816
 71
    5
 72
    1
  1
15,00
  7
standard
210
0
220
0
230
1
 50
90
 73
    2
 44
1
  0
LINE
  5
D5
100
AcDbEntity
  8
Measurements
  6
ByBlock
 62
    0
370
   -2
100
AcDbLine
 10
101.5625
 20
130
 11
113.125
 21
130
  0
LINE
  5
D6
100
AcDbEntity
  8
Measurements
  6
ByBlock
 62
    0
370
   -2
100
AcDbLine
 10
101.5625
 20
115
 11
113.125
 21
115
  0
ENDBLK
  5
76
330
74
100
AcDbEntity
  8
0
100
AcDbBlockEnd
  0
BLOCK
  5
78
330
77
100
AcDbEntity
  8
0
100
AcDbBlockBegin
  2
*D18
 70
    1
 10
0
 20
0
  3
*D18
  1

  0
LINE
  5
D7
100
AcDbEntity
  8
Measurements
  6
ByBlock
 62
    0
370
   -2
100
AcDbLine
 10
50
 20
-127.3664052500012
 11
50
 21
-87.36640525000121
  0
SOLID
  5
D8
100
AcDbEntity
  8
Measurements
  6
ByBlock
 62
    0
370
   -2
100
AcDbTrace
 10
50
 20
-114.8664052500012
 30
0
 11
51.0407116444321
 21
-121.1164052500012
 31
0
 12
48.9592883555679
 22
-121.1164052500012
 32
0
 13
48.9592883555679
 23
-121.1164052500012
 33
0
  0
SOLID
  5
D9
100
AcDbEntity
  8
Measurements
  6
ByBlock
 62
    0
370
   -2
100
AcDbTrace
 10
50
 20
-99.86640525000121
 30
0
 11
48.9592883555679
 21
-93.61640525000121
 31
0
 12
51.0407116444321
 22
-93.61640525000121
 32
0
 13
51.0407116444321
 23
-93.61640525000121
 33
0
  0
MTEXT
  5
DA
100
AcDbEntity
  8
Measurements
  6
CONTINUOUS
 62
    0
370
   -2
100
AcDbMText
 10
45.3125
 20
-89.10251636111212
 30
0
 40
6.25
 41
18.40277777777816
 71
    5
 72
    1
  1
15,00
  7
standard
210
0
220
0
230
1
 50
90
 73
    2
 44
1
  0
LINE
  5
DB
100
AcDbEntity
  8
Measurements
  6
ByBlock
 62
    0
370
   -2
100
AcDbLine
 10
55.4375
 20
-114.8664052500012
 11
46.875
 21
-114.8664052500012
  0
LINE
  5
DC
100
AcDbEntity
  8
Measurements
  6
ByBlock
 62
    0
370
   -2
100
AcDbLine
 10
55.4375
 20
-99.86640525000121
 11
46.875
 21
-99.86640525000121
  0
ENDBLK
  5
79
330
77
100
AcDbEntity
  8
0
100
AcDbBlockEnd
  0
BLOCK
  5
7B
330
7A
100
AcDbEntity
  8
0
100
AcDbBlockBegin
  2
*D17
 70
    1
 10
0
 20
0
  3
*D17
  1

  0
LINE
  5
DD
100
AcDbEntity
  8
Measurements
  6
ByBlock
 62
    0
370
   -2
100
AcDbLine
 10
65
 20
-250
 11
105
 21
-250
  0
SOLID
  5
DE
100
AcDbEntity
  8
Measurements
  6
ByBlock
 62
    0
370
   -2
100
AcDbTrace
 10
65
 20
-250
 30
0
 11
71.25
 21
-248.9592883555679
 31
0
 12
71.25
 22
-251.0407116444321
 32
0
 13
71.25
 23
-251.0407116444321
 33
0
  0
SOLID
  5
DF
100
AcDbEntity
  8
Measurements
  6
ByBlock
 62
    0
370
   -2
100
AcDbTrace
 10
105
 20
-250
 30
0
 11
98.75
 21
-251.0407116444321
 31
0
 12
98.75
 22
-248.9592883555679
 32
0
 13
98.75
 23
-248.9592883555679
 33
0
  0
MTEXT
  5
E0
100
AcDbEntity
  8
Measurements
  6
CONTINUOUS
 62
    0
370
   -2
100
AcDbMText
 10
85
 20
-245.3125
 30
0
 40
6.25
 41
20.48611111111111
 71
    5
 72
    1
  1
40,00
  7
standard
210
0
220
0
230
1
 50
0
 73
    2
 44
1
  0
LINE
  5
E1
100
AcDbEntity
  8
Measurements
  6
ByBlock
 62
    0
370
   -2
100
AcDbLine
 10
65
 20
-236.4289052500012
 11
65
 21
-253.125
  0
LINE
  5
E2
100
AcDbEntity
  8
Measurements
  6
ByBlock
 62
    0
370
   -2
100
AcDbLine
 10
105
 20
-236.4289052500012
 11
105
 21
-253.125
  0
ENDBLK
  5
7C
330
7A
100
AcDbEntity
  8
0
100
AcDbBlockEnd
  0
BLOCK
  5
7E
330
7D
100
AcDbEntity
  8
0
100
AcDbBlockBegin
  2
*D21
 70
    1
 10
0
 20
0
  3
*D21
  1

  0
LINE
  5
E3
100
AcDbEntity
  8
Measurements
  6
ByBlock
 62
    0
370
   -2
100
AcDbLine
 10
412.5
 20
-52.93328812914303
 11
452.5
 21
-52.93328812914303
  0
SOLID
  5
E4
100
AcDbEntity
  8
Measurements
  6
ByBlock
 62
    0
370
   -2
100
AcDbTrace
 10
425
 20
-52.93328812914303
 30
0
 11
418.75
 21
-53.97399977357513
 31
0
 12
418.75
 22
-51.89257648471093
 32
0
 13
418.75
 23
-51.89257648471093
 33
0
  0
SOLID
  5
E5
100
AcDbEntity
  8
Measurements
  6
ByBlock
 62
    0
370
   -2
100
AcDbTrace
 10
440
 20
-52.93328812914303
 30
0
 11
446.25
 21
-51.89257648471093
 31
0
 12
446.25
 22
-53.97399977357513
 32
0
 13
446.25
 23
-53.97399977357513
 33
0
  0
MTEXT
  5
E6
100
AcDbEntity
  8
Measurements
  6
CONTINUOUS
 62
    0
370
   -2
100
AcDbMText
 10
450.7638888888891
 20
-48.24578812914303
 30
0
 40
6.25
 41
18.40277777777816
 71
    5
 72
    1
  1
15,00
  7
standard
210
0
220
0
230
1
 50
0
 73
    2
 44
1
  0
LINE
  5
E7
100
AcDbEntity
  8
Measurements
  6
ByBlock
 62
    0
370
   -2
100
AcDbLine
 10
425
 20
-63.4375
 11
425
 21
-49.80828812914303
  0
LINE
  5
E8
100
AcDbEntity
  8
Measurements
  6
ByBlock
 62
    0
370
   -2
100
AcDbLine
 10
440
 20
-63.4375
 11
440
 21
-49.80828812914303
  0
ENDBLK
  5
7F
330
7D
100
AcDbEntity
  8
0
100
AcDbBlockEnd
  0
BLOCK
  5
81
330
80
100
AcDbEntity
  8
0
100
AcDbBlockBegin
  2
*D3
 70
    1
 10
0
 20
0
  3
*D3
  1

  0
LINE
  5
E9
100
AcDbEntity
  8
Measurements
  6
ByBlock
 62
    0
370
   -2
100
AcDbLine
 10
200
 20
130
 11
200
 21
0
  0
SOLID
  5
EA
100
AcDbEntity
  8
Measurements
  6
ByBlock
 62
    0
370
   -2
100
AcDbTrace
 10
200
 20
130
 30
0
 11
201.0407116444321
 21
123.75
 31
0
 12
198.9592883555679
 22
123.75
 32
0
 13
198.9592883555679
 23
123.75
 33
0
  0
SOLID
  5
EB
100
AcDbEntity
  8
Measurements
  6
ByBlock
 62
    0
370
   -2
100
AcDbTrace
 10
200
 20
0
 30
0
 11
198.9592883555679
 21
6.25
 31
0
 12
201.0407116444321
 22
6.25
 32
0
 13
201.0407116444321
 23
6.25
 33
0
  0
MTEXT
  5
EC
100
AcDbEntity
  8
Measurements
  6
CONTINUOUS
 62
    0
370
   -2
100
AcDbMText
 10
195.3125
 20
65
 30
0
 40
6.25
 41
23.26388888888928
 71
    5
 72
    1
  1
130,00
  7
standard
210
0
220
0
230
1
 50
90
 73
    2
 44
1
  0
LINE
  5
ED
100
AcDbEntity
  8
Measurements
  6
ByBlock
 62
    0
370
   -2
100
AcDbLine
 10
151.5625
 20
130
 11
203.125
 21
130
  0
LINE
  5
EE
100
AcDbEntity
  8
Measurements
  6
ByBlock
 62
    0
370
   -2
100
AcDbLine
 10
151.5625
 20
0
 11
203.125
 21
0
  0
ENDBLK
  5
82
330
80
100
AcDbEntity
  8
0
100
AcDbBlockEnd
  0
BLOCK
  5
84
330
83
100
AcDbEntity
  8
0
100
AcDbBlockBegin
  2
*D25
 70
    1
 10
0
 20
0
  3
*D25
  1

  0
LINE
  5
EF
100
AcDbEntity
  8
Measurements
  6
ByBlock
 62
    0
370
   -2
100
AcDbLine
 10
200
 20
-100
 11
200
 21
-120
  0
SOLID
  5
F0
100
AcDbEntity
  8
Measurements
  6
ByBlock
 62
    0
370
   -2
100
AcDbTrace
 10
200
 20
-100
 30
0
 11
201.0407116444321
 21
-106.25
 31
0
 12
198.9592883555679
 22
-106.25
 32
0
 13
198.9592883555679
 23
-106.25
 33
0
  0
SOLID
  5
F1
100
AcDbEntity
  8
Measurements
  6
ByBlock
 62
    0
370
   -2
100
AcDbTrace
 10
200
 20
-120
 30
0
 11
198.9592883555679
 21
-113.75
 31
0
 12
201.0407116444321
 22
-113.75
 32
0
 13
201.0407116444321
 23
-113.75
 33
0
  0
MTEXT
  5
F2
100
AcDbEntity
  8
Measurements
  6
CONTINUOUS
 62
    0
370
   -2
100
AcDbMText
 10
195.3125
 20
-110
 30
0
 40
6.25
 41
19.79166666666666
 71
    5
 72
    1
  1
20,00
  7
standard
210
0
220
0
230
1
 50
90
 73
    2
 44
1
  0
LINE
  5
F3
100
AcDbEntity
  8
Measurements
  6
ByBlock
 62
    0
370
   -2
100
AcDbLine
 10
171.5625
 20
-100
 11
203.125
 21
-100
  0
LINE
  5
F4
100
AcDbEntity
  8
Measurements
  6
ByBlock
 62
    0
370
   -2
100
AcDbLine
 10
171.5625
 20
-120
 11
203.125
 21
-120
  0
ENDBLK
  5
85
330
83
100
AcDbEntity
  8
0
100
AcDbBlockEnd
  0
BLOCK
  5
87
330
86
100
AcDbEntity
  8
0
100
AcDbBlockBegin
  2
*D1
 70
    1
 10
0
 20
0
  3
*D1
  1

  0
LINE
  5
F5
100
AcDbEntity
  8
Measurements
  6
ByBlock
 62
    0
370
   -2
100
AcDbLine
 10
70
 20
150
 11
100
 21
150
  0
SOLID
  5
F6
100
AcDbEntity
  8
Measurements
  6
ByBlock
 62
    0
370
   -2
100
AcDbTrace
 10
70
 20
150
 30
0
 11
76.25
 21
151.0407116444321
 31
0
 12
76.25
 22
148.9592883555679
 32
0
 13
76.25
 23
148.9592883555679
 33
0
  0
SOLID
  5
F7
100
AcDbEntity
  8
Measurements
  6
ByBlock
 62
    0
370
   -2
100
AcDbTrace
 10
100
 20
150
 30
0
 11
93.75
 21
148.9592883555679
 31
0
 12
93.75
 22
151.0407116444321
 32
0
 13
93.75
 23
151.0407116444321
 33
0
  0
MTEXT
  5
F8
100
AcDbEntity
  8
Measurements
  6
CONTINUOUS
 62
    0
370
   -2
100
AcDbMText
 10
85
 20
154.6875
 30
0
 40
6.25
 41
19.79166666666706
 71
    5
 72
    1
  1
30,00
  7
standard
210
0
220
0
230
1
 50
0
 73
    2
 44
1
  0
LINE
  5
F9
100
AcDbEntity
  8
Measurements
  6
ByBlock
 62
    0
370
   -2
100
AcDbLine
 10
70
 20
131.5625
 11
70
 21
153.125
  0
LINE
  5
FA
100
AcDbEntity
  8
Measurements
  6
ByBlock
 62
    0
370
   -2
100
AcDbLine
 10
100
 20
131.5625
 11
100
 21
153.125
  0
ENDBLK
  5
88
330
86
100
AcDbEntity
  8
0
100
AcDbBlockEnd
  0
BLOCK
  5
8A
330
89
100
AcDbEntity
  8
0
100
AcDbBlockBegin
  2
*D12
 70
    1
 10
0
 20
0
  3
*D12
  1

  0
LINE
  5
FB
100
AcDbEntity
  8
Measurements
  6
ByBlock
 62
    0
370
   -2
100
AcDbLine
 10
200
 20
-200
 11
200
 21
-120
  0
SOLID
  5
FC
100
AcDbEntity
  8
Measurements
  6
ByBlock
 62
    0
370
   -2
100
AcDbTrace
 10
200
 20
-200
 30
0
 11
198.9592883555679
 21
-193.75
 31
0
 12
201.0407116444321
 22
-193.75
 32
0
 13
201.0407116444321
 23
-193.75
 33
0
  0
SOLID
  5
FD
100
AcDbEntity
  8
Measurements
  6
ByBlock
 62
    0
370
   -2
100
AcDbTrace
 10
200
 20
-120
 30
0
 11
201.0407116444321
 21
-126.25
 31
0
 12
198.9592883555679
 22
-126.25
 32
0
 13
198.9592883555679
 23
-126.25
 33
0
  0
MTEXT
  5
FE
100
AcDbEntity
  8
Measurements
  6
CONTINUOUS
 62
    0
370
   -2
100
AcDbMText
 10
195.3125
 20
-160
 30
0
 40
6.25
 41
19.79166666666666
 71
    5
 72
    1
  1
80,00
  7
standard
210
0
220
0
230
1
 50
90
 73
    2
 44
1
  0
LINE
  5
FF
100
AcDbEntity
  8
Measurements
  6
ByBlock
 62
    0
370
   -2
100
AcDbLine
 10
131.5625
 20
-200
 11
203.125
 21
-200
  0
LINE
  5
100
100
AcDbEntity
  8
Measurements
  6
ByBlock
 62
    0
370
   -2
100
AcDbLine
 10
171.5625
 20
-120
 11
203.125
 21
-120
  0
ENDBLK
  5
8B
330
89
100
AcDbEntity
  8
0
100
AcDbBlockEnd
  0
BLOCK
  5
8D
330
8C
100
AcDbEntity
  8
0
100
AcDbBlockBegin
  2
*D24
 70
    1
 10
0
 20
0
  3
*D24
  1

  0
SOLID
  5
101
100
AcDbEntity
  8
Measurements
  6
ByBlock
 62
    0
370
   -2
100
AcDbTrace
 10
94.99990040831798
 20
-79.88872084290271
 30
0
 11
101.2451934828126
 21
-78.82012590536722
 31
0
 12
101.2544828442209
 22
-80.9015284649868
 32
0
 13
101.2544828442209
 23
-80.9015284649868
 33
0
  0
LINE
  5
102
100
AcDbEntity
  8
Measurements
  6
ByBlock
 62
    0
370
   -2
100
AcDbLine
 10
85
 20
-79.93335069526384
 11
125.902370420134
 21
-79.75080220192562
  0
MTEXT
  5
103
100
AcDbEntity
  8
Measurements
  6
CONTINUOUS
 62
    0
370
   -2
100
AcDbMText
 10
110.4302151709317
 20
-75.13230820601511
 30
0
 40
6.25
 41
18.40277777777778
 71
    5
 72
    1
  1
10,00
  7
standard
210
0
220
0
230
1
 50
0.2557110669488559
 73
    2
 44
1
  0
ENDBLK
  5
8E
330
8C
100
AcDbEntity
  8
0
100
AcDbBlockEnd
  0
BLOCK
  5
90
330
8F
100
AcDbEntity
  8
0
100
AcDbBlockBegin
  2
*D4
 70
    1
 10
0
 20
0
  3
*D4
  1

  0
LINE
  5
104
100
AcDbEntity
  8
Measurements
  6
ByBlock
 62
    0
370
   -2
100
AcDbLine
 10
62.25075000000005
 20
30
 11
62.25075000000005
 21
-2.291553613531509e-015
  0
SOLID
  5
105
100
AcDbEntity
  8
Measurements
  6
ByBlock
 62
    0
370
   -2
100
AcDbTrace
 10
62.25075000000005
 20
30
 30
0
 11
63.29146164443215
 21
23.75
 31
0
 12
61.21003835556795
 22
23.75
 32
0
 13
61.21003835556795
 23
23.75
 33
0
  0
SOLID
  5
106
100
AcDbEntity
  8
Measurements
  6
ByBlock
 62
    0
370
   -2
100
AcDbTrace
 10
62.25075000000005
 20
-2.291553613531509e-015
 30
0
 11
61.21003835556795
 21
6.249999999999998
 31
0
 12
63.29146164443215
 22
6.249999999999997
 32
0
 13
63.29146164443215
 23
6.249999999999997
 33
0
  0
MTEXT
  5
107
100
AcDbEntity
  8
Measurements
  6
CONTINUOUS
 62
    0
370
   -2
100
AcDbMText
 10
57.56325000000005
 20
15
 30
0
 40
6.25
 41
19.79166666666706
 71
    5
 72
    1
  1
30,00
  7
standard
210
0
220
0
230
1
 50
90
 73
    2
 44
1
  0
LINE
  5
108
100
AcDbEntity
  8
Measurements
  6
ByBlock
 62
    0
370
   -2
100
AcDbLine
 10
31.5625
 20
30
 11
65.37575000000005
 21
30
  0
LINE
  5
109
100
AcDbEntity
  8
Measurements
  6
ByBlock
 62
    0
370
   -2
100
AcDbLine
 10
31.5625
 20
-3.826894855694929e-016
 11
65.37575000000005
 21
-3.056932584670494e-015
  0
ENDBLK
  5
91
330
8F
100
AcDbEntity
  8
0
100
AcDbBlockEnd
  0
BLOCK
  5
93
330
92
100
AcDbEntity
  8
0
100
AcDbBlockBegin
  2
*D20
 70
    1
 10
0
 20
0
  3
*D20
  1

  0
LINE
  5
10A
100
AcDbEntity
  8
Measurements
  6
ByBlock
 62
    0
370
   -2
100
AcDbLine
 10
470
 20
-100
 11
470
 21
-120
  0
SOLID
  5
10B
100
AcDbEntity
  8
Measurements
  6
ByBlock
 62
    0
370
   -2
100
AcDbTrace
 10
470
 20
-100
 30
0
 11
471.0407116444321
 21
-106.25
 31
0
 12
468.9592883555679
 22
-106.25
 32
0
 13
468.9592883555679
 23
-106.25
 33
0
  0
SOLID
  5
10C
100
AcDbEntity
  8
Measurements
  6
ByBlock
 62
    0
370
   -2
100
AcDbTrace
 10
470
 20
-120
 30
0
 11
468.9592883555679
 21
-113.75
 31
0
 12
471.0407116444321
 22
-113.75
 32
0
 13
471.0407116444321
 23
-113.75
 33
0
  0
MTEXT
  5
10D
100
AcDbEntity
  8
Measurements
  6
CONTINUOUS
 62
    0
370
   -2
100
AcDbMText
 10
465.3125
 20
-110
 30
0
 40
6.25
 41
19.79166666666666
 71
    5
 72
    1
  1
20,00
  7
standard
210
0
220
0
230
1
 50
90
 73
    2
 44
1
  0
LINE
  5
10E
100
AcDbEntity
  8
Measurements
  6
ByBlock
 62
    0
370
   -2
100
AcDbLine
 10
441.5625
 20
-100
 11
473.125
 21
-100
  0
LINE
  5
10F
100
AcDbEntity
  8
Measurements
  6
ByBlock
 62
    0
370
   -2
100
AcDbLine
 10
441.5625
 20
-120
 11
473.125
 21
-120
  0
ENDBLK
  5
94
330
92
100
AcDbEntity
  8
0
100
AcDbBlockEnd
  0
BLOCK
  5
96
330
95
100
AcDbEntity
  8
0
100
AcDbBlockBegin
  2
*D5
 70
    1
 10
0
 20
0
  3
*D5
  1

  0
LINE
  5
110
100
AcDbEntity
  8
Measurements
  6
ByBlock
 62
    0
370
   -2
100
AcDbLine
 10
30
 20
140
 11
-3.944304526105059e-031
 21
140
  0
SOLID
  5
111
100
AcDbEntity
  8
Measurements
  6
ByBlock
 62
    0
370
   -2
100
AcDbTrace
 10
30
 20
140
 30
0
 11
23.75
 21
138.9592883555679
 31
0
 12
23.75
 22
141.0407116444321
 32
0
 13
23.75
 23
141.0407116444321
 33
0
  0
SOLID
  5
112
100
AcDbEntity
  8
Measurements
  6
ByBlock
 62
    0
370
   -2
100
AcDbTrace
 10
-3.944304526105059e-031
 20
140
 30
0
 11
6.25
 21
141.0407116444321
 31
0
 12
6.25
 22
138.9592883555679
 32
0
 13
6.25
 23
138.9592883555679
 33
0
  0
MTEXT
  5
113
100
AcDbEntity
  8
Measurements
  6
CONTINUOUS
 62
    0
370
   -2
100
AcDbMText
 10
15
 20
144.6875
 30
0
 40
6.25
 41
19.79166666666706
 71
    5
 72
    1
  1
30,00
  7
standard
210
0
220
0
230
1
 50
360
 73
    2
 44
1
  0
LINE
  5
114
100
AcDbEntity
  8
Measurements
  6
ByBlock
 62
    0
370
   -2
100
AcDbLine
 10
30
 20
101.5625
 11
30
 21
143.125
  0
LINE
  5
115
100
AcDbEntity
  8
Measurements
  6
ByBlock
 62
    0
370
   -2
100
AcDbLine
 10
9.567237139237322e-017
 20
101.5625
 11
1.913447427847461e-016
 21
143.125
  0
ENDBLK
  5
97
330
95
100
AcDbEntity
  8
0
100
AcDbBlockEnd
  0
BLOCK
  5
99
330
98
100
AcDbEntity
  8
0
100
AcDbBlockBegin
  2
*D15
 70
    1
 10
0
 20
0
  3
*D15
  1

  0
LINE
  5
116
100
AcDbEntity
  8
Measurements
  6
ByBlock
 62
    0
370
   -2
100
AcDbLine
 10
45
 20
-260
 11
125
 21
-260
  0
SOLID
  5
117
100
AcDbEntity
  8
Measurements
  6
ByBlock
 62
    0
370
   -2
100
AcDbTrace
 10
45
 20
-260
 30
0
 11
51.25
 21
-258.9592883555679
 31
0
 12
51.25
 22
-261.0407116444321
 32
0
 13
51.25
 23
-261.0407116444321
 33
0
  0
SOLID
  5
118
100
AcDbEntity
  8
Measurements
  6
ByBlock
 62
    0
370
   -2
100
AcDbTrace
 10
125
 20
-260
 30
0
 11
118.75
 21
-261.0407116444321
 31
0
 12
118.75
 22
-258.9592883555679
 32
0
 13
118.75
 23
-258.9592883555679
 33
0
  0
MTEXT
  5
119
100
AcDbEntity
  8
Measurements
  6
CONTINUOUS
 62
    0
370
   -2
100
AcDbMText
 10
85
 20
-255.3125
 30
0
 40
6.25
 41
19.79166666666666
 71
    5
 72
    1
  1
80,00
  7
standard
210
0
220
0
230
1
 50
0
 73
    2
 44
1
  0
LINE
  5
11A
100
AcDbEntity
  8
Measurements
  6
ByBlock
 62
    0
370
   -2
100
AcDbLine
 10
45
 20
-211.5625
 11
45
 21
-263.125
  0
LINE
  5
11B
100
AcDbEntity
  8
Measurements
  6
ByBlock
 62
    0
370
   -2
100
AcDbLine
 10
125
 20
-211.5625
 11
125
 21
-263.125
  0
ENDBLK
  5
9A
330
98
100
AcDbEntity
  8
0
100
AcDbBlockEnd
  0
BLOCK
  5
9C
330
9B
100
AcDbEntity
  8
0
100
AcDbBlockBegin
  2
*D9
 70
    1
 10
0
 20
0
  3
*D9
  1

  0
SOLID
  5
11C
100
AcDbEntity
  8
Measurements
  6
ByBlock
 62
    0
370
   -2
100
AcDbTrace
 10
66.25625276293275
 20
58.02347224524021
 30
0
 11
60.76185943495334
 21
54.86796552138238
 31
0
 12
60.03580406774512
 22
56.81864912237317
 32
0
 13
60.03580406774512
 23
56.81864912237317
 33
0
  0
LINE
  5
11D
100
AcDbEntity
  8
Measurements
  6
ByBlock
 62
    0
370
   -2
100
AcDbLine
 10
85
 20
65
 11
35.99291086975123
 21
46.75928680786765
  0
MTEXT
  5
11E
100
AcDbEntity
  8
Measurements
  6
CONTINUOUS
 62
    0
370
   -2
100
AcDbMText
 10
49.48945812382017
 20
56.78444528524157
 30
0
 40
6.25
 41
19.79166666666666
 71
    5
 72
    1
  1
20,00
  7
standard
210
0
220
0
230
1
 50
20.41554854157148
 73
    2
 44
1
  0
ENDBLK
  5
9D
330
9B
100
AcDbEntity
  8
0
100
AcDbBlockEnd
  0
ENDSEC
  0
SECTION
  2
ENTITIES
  0
CIRCLE
  5
11F
100
AcDbEntity
  8
Main
  6
ByLayer
 62
  256
370
   -1
100
AcDbCircle
 10
30
 20
30
 40
15
  0
CIRCLE
  5
120
100
AcDbEntity
  8
Main
  6
ByLayer
 62
  256
370
   -1
100
AcDbCircle
 10
30
 20
65
 40
10
  0
CIRCLE
  5
121
100
AcDbEntity
  8
Main
  6
ByLayer
 62
  256
370
   -1
100
AcDbCircle
 10
30
 20
100
 40
15
  0
LINE
  5
122
100
AcDbEntity
  8
ConstructionY
  6
ByLayer
 62
  256
370
   -1
100
AcDbLine
 10
85
 20
0
 11
85
 21
130
  0
CIRCLE
  5
123
100
AcDbEntity
  8
Main
  6
ByLayer
 62
  256
370
   -1
100
AcDbCircle
 10
140
 20
30
 40
15
  0
CIRCLE
  5
124
100
AcDbEntity
  8
Main
  6
ByLayer
 62
  256
370
   -1
100
AcDbCircle
 10
140
 20
65
 40
10
  0
CIRCLE
  5
125
100
AcDbEntity
  8
Main
  6
ByLayer
 62
  256
370
   -1
100
AcDbCircle
 10
140
 20
100
 40
15
  0
CIRCLE
  5
126
100
AcDbEntity
  8
Main
  6
ByLayer
 62
  256
370
   -1
100
AcDbCircle
 10
85
 20
65
 40
20
  0
CIRCLE
  5
127
100
AcDbEntity
  8
Main
  6
ByLayer
 62
  256
370
   -1
100
AcDbCircle
 10
85
 20
65
 40
28
  0
LINE
  5
128
100
AcDbEntity
  8
Main
  6
ByLayer
 62
  256
370
   -1
100
AcDbLine
 10
70
 20
130
 11
70
 21
115
  0
LINE
  5
129
100
AcDbEntity
  8
Main
  6
ByLayer
 62
  256
370
   -1
100
AcDbLine
 10
100
 20
130
 11
100
 21
115
  0
LINE
  5
12A
100
AcDbEntity
  8
Main
  6
ByLayer
 62
  256
370
   -1
100
AcDbLine
 10
70
 20
115
 11
100
 21
115
  0
ARC
  5
12B
100
AcDbEntity
  8
Main
  6
ByLayer
 62
  256
370
   -1
100
AcDbCircle
 10
155
 20
115
 40
15
100
AcDbArc
 50
0
 51
90
  0
LINE
  5
12C
100
AcDbEntity
  8
Main
  6
ByLayer
 62
  256
370
   -1
100
AcDbLine
 10
155
 20
130
 11
15
 21
130
  0
ARC
  5
12D
100
AcDbEntity
  8
Main
  6
ByLayer
 62
  256
370
   -1
100
AcDbCircle
 10
15
 20
115
 40
15
100
AcDbArc
 50
90
 51
180
  0
LINE
  5
12E
100
AcDbEntity
  8
Main
  6
ByLayer
 62
  256
370
   -1
100
AcDbLine
 10
0
 20
115
 11
0
 21
15
  0
ARC
  5
12F
100
AcDbEntity
  8
Main
  6
ByLayer
 62
  256
370
   -1
100
AcDbCircle
 10
15
 20
15
 40
15
100
AcDbArc
 50
180
 51
270
  0
LINE
  5
130
100
AcDbEntity
  8
Main
  6
ByLayer
 62
  256
370
   -1
100
AcDbLine
 10
15
 20
0
 11
155
 21
0
  0
LINE
  5
131
100
AcDbEntity
  8
Main
  6
ByLayer
 62
  256
370
   -1
100
AcDbLine
 10
170
 20
15
 11
170
 21
115
  0
ARC
  5
132
100
AcDbEntity
  8
Main
  6
ByLayer
 62
  256
370
   -1
100
AcDbCircle
 10
155
 20
15
 40
15
100
AcDbArc
 50
270
 51
0
  0
LINE
  5
133
100
AcDbEntity
  8
Centerlines
  6
ByLayer
 62
  256
370
   -1
100
AcDbLine
 10
-10
 20
65
 11
180
 21
65
  0
LINE
  5
134
100
AcDbEntity
  8
Centerlines
  6
ByLayer
 62
  256
370
   -1
100
AcDbLine
 10
140
 20
140
 11
140
 21
-10
  0
LINE
  5
135
100
AcDbEntity
  8
Centerlines
  6
ByLayer
 62
  256
370
   -1
100
AcDbLine
 10
30
 20
140
 11
30
 21
-10
  0
LINE
  5
136
100
AcDbEntity
  8
Centerlines
  6
ByLayer
 62
  256
370
   -1
100
AcDbLine
 10
85
 20
140
 11
85
 21
-10
  0
LINE
  5
137
100
AcDbEntity
  8
Centerlines
  6
ByLayer
 62
  256
370
   -1
100
AcDbLine
 10
5
 20
100
 11
55
 21
100
  0
LINE
  5
138
100
AcDbEntity
  8
Centerlines
  6
ByLayer
 62
  256
370
   -1
100
AcDbLine
 10
5
 20
30.00000000000001
 11
55
 21
29.99999999999999
  0
LINE
  5
139
100
AcDbEntity
  8
Centerlines
  6
ByLayer
 62
  256
370
   -1
100
AcDbLine
 10
165
 20
30.00000000000003
 11
115
 21
30
  0
LINE
  5
13A
100
AcDbEntity
  8
Centerlines
  6
ByLayer
 62
  256
370
   -1
100
AcDbLine
 10
165
 20
100
 11
115
 21
100
  0
DIMENSION
  5
13B
100
AcDbEntity
  8
Measurements
  6
ByLayer
 62
  256
370
   -1
100
AcDbDimension
  2
*D1
 10
100
 20
150
 30
0
 11
85
 21
154.6875
 31
0
 70
   32
 71
    5
  3
Standard
 53
0
210
0
220
0
230
1
100
AcDbAlignedDimension
 13
70
 23
130
 33
0
 14
100
 24
130
 34
0
100
AcDbRotatedDimension
  0
DIMENSION
  5
13C
100
AcDbEntity
  8
Measurements
  6
ByLayer
 62
  256
370
   -1
100
AcDbDimension
  2
*D2
 10
170
 20
160
 30
0
 11
85
 21
164.6875
 31
0
 70
   32
 71
    5
  3
Standard
 53
0
210
0
220
0
230
1
100
AcDbAlignedDimension
 13
1.020017403874363e-015
 23
114.9999985992025
 33
0
 14
170
 24
114.9999962106878
 34
0
100
AcDbRotatedDimension
  0
DIMENSION
  5
13D
100
AcDbEntity
  8
Measurements
  6
ByLayer
 62
  256
370
   -1
100
AcDbDimension
  2
*D3
 10
200
 20
-6.123031769111886e-015
 30
0
 11
195.3125
 21
65
 31
0
 70
   32
 71
    5
  3
Standard
 53
0
210
0
220
0
230
1
100
AcDbAlignedDimension
 13
150
 23
130
 33
0
 14
150
 24
0
 34
0
 50
90
100
AcDbRotatedDimension
  0
DIMENSION
  5
13E
100
AcDbEntity
  8
Measurements
  6
ByLayer
 62
  256
370
   -1
100
AcDbDimension
  2
*D4
 10
62.25075000000005
 20
-3.949447336553709e-015
 30
0
 11
57.56325000000005
 21
15
 31
0
 70
   32
 71
    5
  3
Standard
 53
0
210
0
220
0
230
1
100
AcDbAlignedDimension
 13
30
 23
30
 33
0
 14
30
 24
0
 34
0
 50
90
100
AcDbRotatedDimension
  0
DIMENSION
  5
13F
100
AcDbEntity
  8
Measurements
  6
ByLayer
 62
  256
370
   -1
100
AcDbDimension
  2
*D5
 10
2.449212707644755e-015
 20
140
 30
0
 11
15
 21
144.6875
 31
0
 70
   32
 71
    5
  3
Standard
 53
0
210
0
220
0
230
1
100
AcDbAlignedDimension
 13
30
 23
100
 33
0
 14
0
 24
100
 34
0
100
AcDbRotatedDimension
  0
DIMENSION
  5
140
100
AcDbEntity
  8
Measurements
  6
ByLayer
 62
  256
370
   -1
100
AcDbDimension
  2
*D6
 10
15
 20
15
 30
0
 11
-9.846946616694108
 21
-3.2178205430702
 31
0
 70
   36
 71
    5
  3
Standard
 53
0
210
0
220
0
230
1
100
AcDbRadialDimension
 15
4.393398282201785
 25
4.393398282201789
 35
0
 40
0
  0
DIMENSION
  5
141
100
AcDbEntity
  8
Measurements
  6
ByLayer
 62
  256
370
   -1
100
AcDbDimension
  2
*D7
 10
30
 20
30
 30
0
 11
0.6671360451588355
 21
20.57435234484455
 31
0
 70
   36
 71
    5
  3
Standard
 53
0
210
0
220
0
230
1
100
AcDbRadialDimension
 15
16.58359213500126
 25
23.29179606750063
 35
0
 40
0
  0
DIMENSION
  5
142
100
AcDbEntity
  8
Measurements
  6
ByLayer
 62
  256
370
   -1
100
AcDbDimension
  2
*D8
 10
30
 20
65
 30
0
 11
5.139272000158586
 21
57.81042032234443
 31
0
 70
   36
 71
    5
  3
Standard
 53
0
210
0
220
0
230
1
100
AcDbRadialDimension
 15
21.05572809000084
 25
60.52786404500042
 35
0
 40
0
  0
DIMENSION
  5
143
100
AcDbEntity
  8
Measurements
  6
ByLayer
 62
  256
370
   -1
100
AcDbDimension
  2
*D9
 10
85
 20
65
 30
0
 11
49.48945812382017
 21
56.78444528524157
 31
0
 70
   36
 71
    5
  3
Standard
 53
0
210
0
220
0
230
1
100
AcDbRadialDimension
 15
66.25625276293275
 25
58.02347224524021
 35
0
 40
0
  0
DIMENSION
  5
144
100
AcDbEntity
  8
Measurements
  6
ByLayer
 62
  256
370
   -1
100
AcDbDimension
  2
*D10
 10
85
 20
65
 30
0
 11
55.52637992682749
 21
31.80161183541095
 31
0
 70
   36
 71
    5
  3
Standard
 53
0
210
0
220
0
230
1
100
AcDbRadialDimension
 15
68.7253305758653
 25
42.21546280621142
 35
0
 40
0
  0
LINE
  5
145
100
AcDbEntity
  8
ConstructionY
  6
ByLayer
 62
  256
370
   -1
100
AcDbLine
 10
170
 20
-2.081830801498041e-014
 11
170
 21
130
  0
LINE
  5
146
100
AcDbEntity
  8
ConstructionY
  6
ByLayer
 62
  256
370
   -1
100
AcDbLine
 10
0
 20
2.081830801498041e-014
 11
0
 21
130
  0
LINE
  5
147
100
AcDbEntity
  8
ConstructionY
  6
ByLayer
 62
  256
370
   -1
100
AcDbLine
 10
30
 20
1.347066989204615e-014
 11
30
 21
130
  0
LINE
  5
148
100
AcDbEntity
  8
ConstructionY
  6
ByLayer
 62
  256
370
   -1
100
AcDbLine
 10
140
 20
-1.347066989204615e-014
 11
140
 21
130
  0
LINE
  5
149
100
AcDbEntity
  8
ConstructionY
  6
ByLayer
 62
  256
370
   -1
100
AcDbLine
 10
105
 20
-4.898425415289509e-015
 11
105
 21
130
  0
LINE
  5
14A
100
AcDbEntity
  8
ConstructionY
  6
ByLayer
 62
  256
370
   -1
100
AcDbLine
 10
113
 20
-6.857795581405313e-015
 11
113
 21
130
  0
LINE
  5
14B
100
AcDbEntity
  8
ConstructionY
  6
ByLayer
 62
  256
370
   -1
100
AcDbLine
 10
150
 20
-1.59198825996909e-014
 11
150
 21
130
  0
LINE
  5
14C
100
AcDbEntity
  8
ConstructionY
  6
ByLayer
 62
  256
370
   -1
100
AcDbLine
 10
155
 20
-1.714448895351328e-014
 11
155
 21
130
  0
LINE
  5
14D
100
AcDbEntity
  8
ConstructionY
  6
ByLayer
 62
  256
370
   -1
100
AcDbLine
 10
65
 20
4.898425415289509e-015
 11
65
 21
130
  0
LINE
  5
14E
100
AcDbEntity
  8
ConstructionY
  6
ByLayer
 62
  256
370
   -1
100
AcDbLine
 10
57
 20
-7.353059133796691e-015
 11
57
 21
130
  0
LINE
  5
14F
100
AcDbEntity
  8
ConstructionY
  6
ByLayer
 62
  256
370
   -1
100
AcDbLine
 10
20
 20
-1.25018268307131e-014
 11
20
 21
129.9999999999999
  0
LINE
  5
150
100
AcDbEntity
  8
ConstructionY
  6
ByLayer
 62
  256
370
   -1
100
AcDbLine
 10
15
 20
-1.838264783449173e-014
 11
15
 21
129.9999999999999
  0
DIMENSION
  5
151
100
AcDbEntity
  8
Measurements
  6
ByLayer
 62
  256
370
   -1
100
AcDbDimension
  2
*D11
 10
110
 20
115
 30
0
 11
105.3125
 21
122.5
 31
0
 70
   32
 71
    5
  3
Standard
 53
0
210
0
220
0
230
1
100
AcDbAlignedDimension
 13
100
 23
130
 33
0
 14
100
 24
115
 34
0
 50
90
100
AcDbRotatedDimension
  0
LINE
  5
152
100
AcDbEntity
  8
Hidden
  6
ByLayer
 62
  256
370
   -1
100
AcDbLine
 10
90
 20
115
 11
90
 21
130
  0
LINE
  5
153
100
AcDbEntity
  8
Hidden
  6
ByLayer
 62
  256
370
   -1
100
AcDbLine
 10
80
 20
115
 11
80
 21
130
  0
LINE
  5
154
100
AcDbEntity
  8
ConstructionY
  6
ByLayer
 62
  256
370
   -1
100
AcDbLine
 10
130
 20
-1.10214571844014e-014
 11
130
 21
130
  0
LINE
  5
155
100
AcDbEntity
  8
ConstructionY
  6
ByLayer
 62
  256
370
   -1
100
AcDbLine
 10
125
 20
-9.796850830579018e-015
 11
125
 21
130
  0
LINE
  5
156
100
AcDbEntity
  8
ConstructionY
  6
ByLayer
 62
  256
370
   -1
100
AcDbLine
 10
45
 20
9.796850830579018e-015
 11
45
 21
130
  0
LINE
  5
157
100
AcDbEntity
  8
Main
  6
ByLayer
 62
  256
370
   -1
100
AcDbLine
 10
0
 20
-99.86640525000121
 11
170
 21
-99.86640525000121
  0
LINE
  5
158
100
AcDbEntity
  8
Main
  6
ByLayer
 62
  256
370
   -1
100
AcDbLine
 10
170
 20
-100
 11
170
 21
-120
  0
LINE
  5
159
100
AcDbEntity
  8
Main
  6
ByLayer
 62
  256
370
   -1
100
AcDbLine
 10
0
 20
-100
 11
0
 21
-120
  0
LINE
  5
15A
100
AcDbEntity
  8
Main
  6
ByLayer
 62
  256
370
   -1
100
AcDbLine
 10
0
 20
-120
 11
170
 21
-120
  0
LINE
  5
15B
100
AcDbEntity
  8
Centerlines
  6
ByLayer
 62
  256
370
   -1
100
AcDbLine
 10
140
 20
-87.09029241525116
 11
140
 21
-132.6565213582518
  0
LINE
  5
15C
100
AcDbEntity
  8
Centerlines
  6
ByLayer
 62
  256
370
   -1
100
AcDbLine
 10
30
 20
-77.53608312075103
 11
30
 21
-134.4938692995018
  0
LINE
  5
15D
100
AcDbEntity
  8
Hidden
  6
ByLayer
 62
  256
370
   -1
100
AcDbLine
 10
150
 20
-100
 11
150
 21
-120
  0
LINE
  5
15E
100
AcDbEntity
  8
Hidden
  6
ByLayer
 62
  256
370
   -1
100
AcDbLine
 10
155
 20
-120
 11
155
 21
-99.86640525000121
  0
LINE
  5
15F
100
AcDbEntity
  8
Hidden
  6
ByLayer
 62
  256
370
   -1
100
AcDbLine
 10
130
 20
-100
 11
130
 21
-120
  0
LINE
  5
160
100
AcDbEntity
  8
Hidden
  6
ByLayer
 62
  256
370
   -1
100
AcDbLine
 10
125
 20
-99.86640525000121
 11
125
 21
-120
  0
LINE
  5
161
100
AcDbEntity
  8
Hidden
  6
ByLayer
 62
  256
370
   -1
100
AcDbLine
 10
45
 20
-99.86640525000121
 11
45
 21
-120
  0
LINE
  5
162
100
AcDbEntity
  8
Hidden
  6
ByLayer
 62
  256
370
   -1
100
AcDbLine
 10
40
 20
-120
 11
40
 21
-100
  0
LINE
  5
163
100
AcDbEntity
  8
Hidden
  6
ByLayer
 62
  256
370
   -1
100
AcDbLine
 10
20
 20
-100
 11
20
 21
-120
  0
LINE
  5
164
100
AcDbEntity
  8
Hidden
  6
ByLayer
 62
  256
370
   -1
100
AcDbLine
 10
15
 20
-120
 11
15
 21
-99.86640525000121
  0
LINE
  5
165
100
AcDbEntity
  8
Main
  6
ByLayer
 62
  256
370
   -1
100
AcDbLine
 10
40
 20
-120
 11
39.99999999999999
 21
-200
  0
LINE
  5
166
100
AcDbEntity
  8
Main
  6
ByLayer
 62
  256
370
   -1
100
AcDbLine
 10
130
 20
-120
 11
130
 21
-200
  0
LINE
  5
167
100
AcDbEntity
  8
Main
  6
ByLayer
 62
  256
370
   -1
100
AcDbLine
 10
40
 20
-200
 11
130
 21
-200
  0
LINE
  5
168
100
AcDbEntity
  8
Main
  6
ByLayer
 62
  256
370
   -1
100
AcDbLine
 10
125
 20
-200
 11
125
 21
-210
  0
LINE
  5
169
100
AcDbEntity
  8
Main
  6
ByLayer
 62
  256
370
   -1
100
AcDbLine
 10
45
 20
-200
 11
45
 21
-210
  0
LINE
  5
16A
100
AcDbEntity
  8
Main
  6
ByLayer
 62
  256
370
   -1
100
AcDbLine
 10
45
 20
-210
 11
125
 21
-210
  0
LINE
  5
16B
100
AcDbEntity
  8
Main
  6
ByLayer
 62
  256
370
   -1
100
AcDbLine
 10
39.99999999999999
 20
-235
 11
130
 21
-235
  0
LINE
  5
16C
100
AcDbEntity
  8
Main
  6
ByLayer
 62
  256
370
   -1
100
AcDbLine
 10
125
 20
-210
 11
130
 21
-210
  0
LINE
  5
16D
100
AcDbEntity
  8
Main
  6
ByLayer
 62
  256
370
   -1
100
AcDbLine
 10
45
 20
-210
 11
40
 21
-210
  0
LINE
  5
16E
100
AcDbEntity
  8
ConstructionY
  6
ByLayer
 62
  256
370
   -1
100
AcDbLine
 10
40
 20
1.10214571844014e-014
 11
40
 21
-200
  0
LINE
  5
16F
100
AcDbEntity
  8
Main
  6
ByLayer
 62
  256
370
   -1
100
AcDbLine
 10
130
 20
-210
 11
130
 21
-235
  0
LINE
  5
170
100
AcDbEntity
  8
Main
  6
ByLayer
 62
  256
370
   -1
100
AcDbLine
 10
40
 20
-210
 11
39.99999999999999
 21
-235
  0
DIMENSION
  5
171
100
AcDbEntity
  8
Measurements
  6
ByLayer
 62
  256
370
   -1
100
AcDbDimension
  2
*D12
 10
200
 20
-120
 30
0
 11
195.3125
 21
-160
 31
0
 70
   32
 71
    5
  3
Standard
 53
0
210
0
220
0
230
1
100
AcDbAlignedDimension
 13
130
 23
-200
 33
0
 14
170
 24
-120
 34
0
 50
90
100
AcDbRotatedDimension
  0
DIMENSION
  5
172
100
AcDbEntity
  8
Measurements
  6
ByLayer
 62
  256
370
   -1
100
AcDbDimension
  2
*D13
 10
200
 20
-200
 30
0
 11
195.3125
 21
-205
 31
0
 70
   32
 71
    5
  3
Standard
 53
0
210
0
220
0
230
1
100
AcDbAlignedDimension
 13
130
 23
-210
 33
0
 14
130
 24
-200
 34
0
 50
90
100
AcDbRotatedDimension
  0
DIMENSION
  5
173
100
AcDbEntity
  8
Measurements
  6
ByLayer
 62
  256
370
   -1
100
AcDbDimension
  2
*D14
 10
200
 20
-210
 30
0
 11
195.3125
 21
-222.5
 31
0
 70
   32
 71
    5
  3
Standard
 53
0
210
0
220
0
230
1
100
AcDbAlignedDimension
 13
130
 23
-235
 33
0
 14
130
 24
-210
 34
0
 50
90
100
AcDbRotatedDimension
  0
DIMENSION
  5
174
100
AcDbEntity
  8
Measurements
  6
ByLayer
 62
  256
370
   -1
100
AcDbDimension
  2
*D15
 10
125
 20
-260
 30
0
 11
85
 21
-255.3125
 31
0
 70
   32
 71
    5
  3
Standard
 53
0
210
0
220
0
230
1
100
AcDbAlignedDimension
 13
45
 23
-210
 33
0
 14
125
 24
-210
 34
0
100
AcDbRotatedDimension
  0
DIMENSION
  5
175
100
AcDbEntity
  8
Measurements
  6
ByLayer
 62
  256
370
   -1
100
AcDbDimension
  2
*D16
 10
130
 20
-280
 30
0
 11
85
 21
-275.3125
 31
0
 70
   32
 71
    5
  3
Standard
 53
0
210
0
220
0
230
1
100
AcDbAlignedDimension
 13
39.99999999999999
 23
-235
 33
0
 14
130
 24
-235
 34
0
100
AcDbRotatedDimension
  0
LINE
  5
176
100
AcDbEntity
  8
Hidden
  6
ByLayer
 62
  256
370
   -1
100
AcDbLine
 10
57
 20
-114.8664052500012
 11
113.5
 21
-114.8664052500012
  0
LINE
  5
177
100
AcDbEntity
  8
Hidden
  6
ByLayer
 62
  256
370
   -1
100
AcDbLine
 10
113
 20
-114.8664052500012
 11
113
 21
-99.86640525000121
  0
LINE
  5
178
100
AcDbEntity
  8
Hidden
  6
ByLayer
 62
  256
370
   -1
100
AcDbLine
 10
57
 20
-114.8664052500012
 11
57
 21
-99.86640525000121
  0
LINE
  5
179
100
AcDbEntity
  8
Hidden
  6
ByLayer
 62
  256
370
   -1
100
AcDbLine
 10
105
 20
-114.8664052500012
 11
105
 21
-224.8664052500012
  0
LINE
  5
17A
100
AcDbEntity
  8
Hidden
  6
ByLayer
 62
  256
370
   -1
100
AcDbLine
 10
65
 20
-114.8664052500012
 11
65
 21
-224.8664052500012
  0
LINE
  5
17B
100
AcDbEntity
  8
Hidden
  6
ByLayer
 62
  256
370
   -1
100
AcDbLine
 10
105
 20
-224.8664052500012
 11
105
 21
-234.8664052500012
  0
LINE
  5
17C
100
AcDbEntity
  8
Hidden
  6
ByLayer
 62
  256
370
   -1
100
AcDbLine
 10
65
 20
-224.8664052500012
 11
65
 21
-234.8664052500012
  0
DIMENSION
  5
17D
100
AcDbEntity
  8
Measurements
  6
ByLayer
 62
  256
370
   -1
100
AcDbDimension
  2
*D17
 10
105
 20
-250
 30
0
 11
85
 21
-245.3125
 31
0
 70
   32
 71
    5
  3
Standard
 53
0
210
0
220
0
230
1
100
AcDbAlignedDimension
 13
65
 23
-234.8664052500012
 33
0
 14
105
 24
-234.8664052500012
 34
0
100
AcDbRotatedDimension
  0
DIMENSION
  5
17E
100
AcDbEntity
  8
Measurements
  6
ByLayer
 62
  256
370
   -1
100
AcDbDimension
  2
*D18
 10
50
 20
-99.86640525000121
 30
0
 11
45.3125
 21
-107.3664052500012
 31
0
 70
   32
 71
    5
  3
Standard
 53
0
210
0
220
0
230
1
100
AcDbAlignedDimension
 13
57
 23
-114.8664052500012
 33
0
 14
57
 24
-99.86640525000121
 34
0
 50
90
100
AcDbRotatedDimension
  0
LINE
  5
17F
100
AcDbEntity
  8
ConstructionY
  6
ByLayer
 62
  256
370
   -1
100
AcDbLine
 10
100
 20
140
 11
100
 21
-10
  0
LINE
  5
180
100
AcDbEntity
  8
ConstructionY
  6
ByLayer
 62
  256
370
   -1
100
AcDbLine
 10
70
 20
140
 11
70
 21
-9.999999999999995
  0
LINE
  5
181
100
AcDbEntity
  8
Centerlines
  6
ByLayer
 62
  256
370
   -1
100
AcDbLine
 10
85
 20
-39.86640525000121
 11
85
 21
-245
  0
LINE
  5
182
100
AcDbEntity
  8
ConstructionY
  6
ByLayer
 62
  256
370
   -1
100
AcDbLine
 10
90
 20
-1.22461e-015
 11
90
 21
130
  0
LINE
  5
183
100
AcDbEntity
  8
ConstructionY
  6
ByLayer
 62
  256
370
   -1
100
AcDbLine
 10
80
 20
6.12303e-016
 11
80
 21
130
  0
LINE
  5
184
100
AcDbEntity
  8
ConstructionY
  6
ByLayer
 62
  256
370
   -1
100
AcDbLine
 10
230
 20
-200
 11
230
 21
-120
  0
LINE
  5
185
100
AcDbEntity
  8
Main
  6
ByLayer
 62
  256
370
   -1
100
AcDbLine
 10
420
 20
-120
 11
420
 21
-200
  0
LINE
  5
186
100
AcDbEntity
  8
Main
  6
ByLayer
 62
  256
370
   -1
100
AcDbLine
 10
330
 20
-120
 11
330
 21
-200
  0
LINE
  5
187
100
AcDbEntity
  8
Main
  6
ByLayer
 62
  256
370
   -1
100
AcDbLine
 10
420
 20
-200
 11
330
 21
-200
  0
LINE
  5
188
100
AcDbEntity
  8
Main
  6
ByLayer
 62
  256
370
   -1
100
AcDbLine
 10
335
 20
-200
 11
335
 21
-210
  0
LINE
  5
189
100
AcDbEntity
  8
Main
  6
ByLayer
 62
  256
370
   -1
100
AcDbLine
 10
415
 20
-200
 11
415
 21
-210
  0
LINE
  5
18A
100
AcDbEntity
  8
Main
  6
ByLayer
 62
  256
370
   -1
100
AcDbLine
 10
415
 20
-210
 11
335
 21
-210
  0
LINE
  5
18B
100
AcDbEntity
  8
Main
  6
ByLayer
 62
  256
370
   -1
100
AcDbLine
 10
420
 20
-235
 11
330
 21
-235
  0
LINE
  5
18C
100
AcDbEntity
  8
Main
  6
ByLayer
 62
  256
370
   -1
100
AcDbLine
 10
335
 20
-210
 11
330
 21
-210
  0
LINE
  5
18D
100
AcDbEntity
  8
Main
  6
ByLayer
 62
  256
370
   -1
100
AcDbLine
 10
415
 20
-210
 11
420
 21
-210
  0
LINE
  5
18E
100
AcDbEntity
  8
Main
  6
ByLayer
 62
  256
370
   -1
100
AcDbLine
 10
330
 20
-210
 11
330
 21
-235
  0
LINE
  5
18F
100
AcDbEntity
  8
Main
  6
ByLayer
 62
  256
370
   -1
100
AcDbLine
 10
420
 20
-210
 11
420
 21
-235
  0
LINE
  5
190
100
AcDbEntity
  8
Hidden
  6
ByLayer
 62
  256
370
   -1
100
AcDbLine
 10
403
 20
-114.866
 11
403
 21
-99.8664
  0
LINE
  5
191
100
AcDbEntity
  8
Hidden
  6
ByLayer
 62
  256
370
   -1
100
AcDbLine
 10
403
 20
-114.866
 11
346.5
 21
-114.866
  0
LINE
  5
192
100
AcDbEntity
  8
Hidden
  6
ByLayer
 62
  256
370
   -1
100
AcDbLine
 10
347
 20
-114.866
 11
347
 21
-99.8664
  0
LINE
  5
193
100
AcDbEntity
  8
Hidden
  6
ByLayer
 62
  256
370
   -1
100
AcDbLine
 10
355
 20
-114.866
 11
355
 21
-224.866
  0
LINE
  5
194
100
AcDbEntity
  8
Hidden
  6
ByLayer
 62
  256
370
   -1
100
AcDbLine
 10
395
 20
-114.866
 11
395
 21
-224.866
  0
LINE
  5
195
100
AcDbEntity
  8
Hidden
  6
ByLayer
 62
  256
370
   -1
100
AcDbLine
 10
355
 20
-224.866
 11
355
 21
-234.866
  0
LINE
  5
196
100
AcDbEntity
  8
Hidden
  6
ByLayer
 62
  256
370
   -1
100
AcDbLine
 10
395
 20
-224.866
 11
395
 21
-234.866
  0
LINE
  5
197
100
AcDbEntity
  8
ConstructionY
  6
ByLayer
 62
  256
370
   -1
100
AcDbLine
 10
440
 20
-114.866
 11
440
 21
-224.866
  0
LINE
  5
198
100
AcDbEntity
  8
ConstructionY
  6
ByLayer
 62
  256
370
   -1
100
AcDbLine
 10
310
 20
-114.866
 11
310
 21
-224.866
  0
LINE
  5
199
100
AcDbEntity
  8
Main
  6
ByLayer
 62
  256
370
   -1
100
AcDbLine
 10
420
 20
-120
 11
440
 21
-120
  0
LINE
  5
19A
100
AcDbEntity
  8
Main
  6
ByLayer
 62
  256
370
   -1
100
AcDbLine
 10
440
 20
-120
 11
440
 21
-100
  0
LINE
  5
19B
100
AcDbEntity
  8
Main
  6
ByLayer
 62
  256
370
   -1
100
AcDbLine
 10
440
 20
-100
 11
310
 21
-100
  0
LINE
  5
19C
100
AcDbEntity
  8
Main
  6
ByLayer
 62
  256
370
   -1
100
AcDbLine
 10
310
 20
-100
 11
310
 21
-120
  0
LINE
  5
19D
100
AcDbEntity
  8
Main
  6
ByLayer
 62
  256
370
   -1
100
AcDbLine
 10
310
 20
-120
 11
330
 21
-120
  0
LINE
  5
19E
100
AcDbEntity
  8
Main
  6
ByLayer
 62
  256
370
   -1
100
AcDbLine
 10
440
 20
-100
 11
440
 21
-65
  0
LINE
  5
19F
100
AcDbEntity
  8
Main
  6
ByLayer
 62
  256
370
   -1
100
AcDbLine
 10
440
 20
-65
 11
425
 21
-65
  0
LINE
  5
1A0
100
AcDbEntity
  8
Main
  6
ByLayer
 62
  256
370
   -1
100
AcDbLine
 10
425
 20
-65
 11
425
 21
-100
  0
LINE
  5
1A1
100
AcDbEntity
  8
Centerlines
  6
ByLayer
 62
  256
370
   -1
100
AcDbLine
 10
375
 20
-39.8664
 11
375
 21
-245
  0
LINE
  5
1A2
100
AcDbEntity
  8
ConstructionX
  6
ByLayer
 62
  256
370
   -1
100
AcDbLine
 10
35
 20
-64.93320262500059
 11
135
 21
-64.93320262500062
  0
DIMENSION
  5
1A3
100
AcDbEntity
  8
Measurements
  6
ByLayer
 62
  256
370
   -1
100
AcDbDimension
  2
*D19
 10
470
 20
-100
 30
0
 11
465.3125
 21
-82.5
 31
0
 70
   32
 71
    5
  3
Standard
 53
0
210
0
220
0
230
1
100
AcDbAlignedDimension
 13
440
 23
-65
 33
0
 14
440
 24
-100
 34
0
 50
90
100
AcDbRotatedDimension
  0
DIMENSION
  5
1A4
100
AcDbEntity
  8
Measurements
  6
ByLayer
 62
  256
370
   -1
100
AcDbDimension
  2
*D20
 10
470
 20
-120
 30
0
 11
465.3125
 21
-110
 31
0
 70
   32
 71
    5
  3
Standard
 53
0
210
0
220
0
230
1
100
AcDbAlignedDimension
 13
440
 23
-100
 33
0
 14
440
 24
-120
 34
0
 50
90
100
AcDbRotatedDimension
  0
DIMENSION
  5
1A5
100
AcDbEntity
  8
Measurements
  6
ByLayer
 62
  256
370
   -1
100
AcDbDimension
  2
*D21
 10
440
 20
-52.93328812914303
 30
0
 11
432.5
 21
-48.24578812914303
 31
0
 70
   32
 71
    5
  3
Standard
 53
0
210
0
220
0
230
1
100
AcDbAlignedDimension
 13
425
 23
-65
 33
0
 14
440
 24
-65
 34
0
100
AcDbRotatedDimension
  0
DIMENSION
  5
1A6
100
AcDbEntity
  8
Measurements
  6
ByLayer
 62
  256
370
   -1
100
AcDbDimension
  2
*D22
 10
440
 20
-22.14555931933535
 30
0
 11
375
 21
-17.45805931933535
 31
0
 70
   32
 71
    5
  3
Standard
 53
0
210
0
220
0
230
1
100
AcDbAlignedDimension
 13
310
 23
-100
 33
0
 14
440
 24
-100
 34
0
100
AcDbRotatedDimension
  0
LINE
  5
1A7
100
AcDbEntity
  8
Main
  6
ByLayer
 62
  256
370
   -1
100
AcDbLine
 10
100
 20
-99.86640525000121
 11
100
 21
-79.86640525000121
  0
LINE
  5
1A8
100
AcDbEntity
  8
Main
  6
ByLayer
 62
  256
370
   -1
100
AcDbLine
 10
70
 20
-100
 11
70
 21
-80
  0
CIRCLE
  5
1A9
100
AcDbEntity
  8
Main
  6
ByLayer
 62
  256
370
   -1
100
AcDbCircle
 10
85
 20
-79.93335069526384
 40
10
  0
ARC
  5
1AA
100
AcDbEntity
  8
Main
  6
ByLayer
 62
  256
370
   -1
100
AcDbCircle
 10
85
 20
-79.93335069526384
 40
15.00014807026323
100
AcDbArc
 50
359.745420084107
 51
180.254579915893
  0
DIMENSION
  5
1AB
100
AcDbEntity
  8
Measurements
  6
ByLayer
 62
  256
370
   -1
100
AcDbDimension
  2
*D23
 10
85
 20
-79.93335069526384
 30
0
 11
106.3622040600492
 21
-57.73143642821386
 31
0
 70
   36
 71
    5
  3
Standard
 53
0
210
0
220
0
230
1
100
AcDbRadialDimension
 15
96.92377070544421
 25
-70.832354360037
 35
0
 40
0
  0
DIMENSION
  5
1AC
100
AcDbEntity
  8
Measurements
  6
ByLayer
 62
  256
370
   -1
100
AcDbDimension
  2
*D24
 10
85
 20
-79.93335069526384
 30
0
 11
110.4302151709317
 21
-75.13230820601511
 31
0
 70
   36
 71
    5
  3
Standard
 53
0
210
0
220
0
230
1
100
AcDbRadialDimension
 15
94.99990040831798
 25
-79.88872084290271
 35
0
 40
0
  0
LINE
  5
1AD
100
AcDbEntity
  8
Measurements
  6
ByLayer
 62
  256
370
   -1
100
AcDbLine
 10
85
 20
-69.93335069526384
 11
85
 21
-69.93335069526384
  0
LINE
  5
1AE
100
AcDbEntity
  8
ConstructionX
  6
ByLayer
 62
  256
370
   -1
100
AcDbLine
 10
34.99999999999999
 20
-79.93320262500059
 11
135
 21
-79.93320262500062
  0
LINE
  5
1AF
100
AcDbEntity
  8
ConstructionX
  6
ByLayer
 62
  256
370
   -1
100
AcDbLine
 10
34.99999999999999
 20
-89.93320262500059
 11
135
 21
-89.93320262500062
  0
LINE
  5
1B0
100
AcDbEntity
  8
ConstructionX
  6
ByLayer
 62
  256
370
   -1
100
AcDbLine
 10
34.99999999999999
 20
-69.93320262500059
 11
135
 21
-69.93320262500062
  0
LINE
  5
1B1
100
AcDbEntity
  8
Hidden
  6
ByLayer
 62
  256
370
   -1
100
AcDbLine
 10
418.416000000019
 20
-69.9332026250007
 11
447.4095000000203
 21
-69.9332026250007
  0
LINE
  5
1B2
100
AcDbEntity
  8
Hidden
  6
ByLayer
 62
  256
370
   -1
100
AcDbLine
 10
420
 20
-90
 11
447.6937500000204
 21
-89.9332026250007
  0
LINE
  5
1B3
100
AcDbEntity
  8
Centerlines
  6
ByLayer
 62
  256
370
   -1
100
AcDbLine
 10
420
 20
-80
 11
448.8307500000204
 21
-79.9332026250007
  0
LINE
  5
1B4
100
AcDbEntity
  8
Centerlines
  6
ByLayer
 62
  256
370
   -1
100
AcDbLine
 10
35
 20
-79.93335069526383
 11
135
 21
-79.93335069526385
  0
DIMENSION
  5
1B5
100
AcDbEntity
  8
Measurements
  6
ByLayer
 62
  256
370
   -1
100
AcDbDimension
  2
*D25
 10
200
 20
-120
 30
0
 11
195.3125
 21
-110
 31
0
 70
   32
 71
    5
 72
    0
  3
Standard
 53
0
210
0
220
0
230
1
100
AcDbAlignedDimension
 13
170
 23
-100
 33
0
 14
170
 24
-120
 34
0
 50
90
100
AcDbRotatedDimension
  0
ENDSEC
  0
SECTION
  2
OBJECTS
  0
DICTIONARY
  5
C
330
0
100
AcDbDictionary
281
    1
  3
ACAD_GROUP
350
D
  0
DICTIONARY
  5
D
330
C
100
AcDbDictionary
281
    1
  0
ENDSEC
  0
EOF
