999
dxfrw 0.6.3
  0
SECTION
  2
HEADER
  9
$ACADVER
  1
AC1021
  9
$DWGCODEPAGE
  3
ANSI_1252
  9
$INSBASE
 10
0
 20
0
 30
0
  9
$EXTMIN
 10
10000000000
 20
10000000000
 30
0
  9
$EXTMAX
 10
-10000000000
 20
-10000000000
 30
0
  9
$LIMMIN
 10
0
 20
0
  9
$LIMMAX
 10
420
 20
297
  9
$ORTHOMODE
 70
    0
  9
$REGENMODE
 70
    1
  9
$FILLMODE
 70
    1
  9
$QTEXTMODE
 70
    0
  9
$MIRRTEXT
 70
    0
  9
$LTSCALE
 40
1
  9
$ATTMODE
 70
    0
  9
$TEXTSIZE
 40
2.5
  9
$TRACEWID
 40
15.68
  9
$TEXTSTYLE
  7
STANDARD
  9
$CLAYER
  8
main
  9
$CELTYPE
  6
BYLAYER
  9
$CECOLOR
 62
  256
  9
$CELTSCALE
 40
1
  9
$DISPSILH
 70
    0
  9
$DIMSCALE
 40
1
  9
$DIMASZ
 40
2.5
  9
$DIMEXO
 40
0.625
  9
$DIMDLI
 40
3.75
  9
$DIMRND
 40
0
  9
$DIMDLE
 40
0
  9
$DIMEXE
 40
1.25
  9
$DIMTP
 40
0
  9
$DIMTM
 40
0
  9
$DIMTXT
 40
2.5
  9
$DIMCEN
 40
2.5
  9
$DIMTSZ
 40
0
  9
$DIMTOL
 70
    0
  9
$DIMLIM
 70
    0
  9
$DIMTIH
 70
    0
  9
$DIMTOH
 70
    0
  9
$DIMSE1
 70
    0
  9
$DIMSE2
 70
    0
  9
$DIMTAD
 70
    1
  9
$DIMZIN
 70
    1
  9
$DIMBLK
  1

  9
$DIMASO
 70
    1
  9
$DIMSHO
 70
    1
  9
$DIMPOST
  1

  9
$DIMAPOST
  1

  9
$DIMALT
 70
    0
  9
$DIMALTD
 70
    3
  9
$DIMALTF
 40
0.03937
  9
$DIMLFAC
 40
1
  9
$DIMTOFL
 70
    1
  9
$DIMTVP
 40
0
  9
$DIMTIX
 70
    0
  9
$DIMSOXD
 70
    0
  9
$DIMSAH
 70
    0
  9
$DIMBLK1
  1

  9
$DIMBLK2
  1

  9
$DIMSTYLE
  2
STANDARD
  9
$DIMCLRD
 70
    0
  9
$DIMCLRE
 70
    0
  9
$DIMCLRT
 70
    0
  9
$DIMTFAC
 40
1
  9
$DIMGAP
 40
0.625
  9
$DIMJUST
 70
    0
  9
$DIMSD1
 70
    0
  9
$DIMSD2
 70
    0
  9
$DIMTOLJ
 70
    0
  9
$DIMTZIN
 70
    8
  9
$DIMALTZ
 70
    0
  9
$DIMALTTZ
 70
    0
  9
$DIMUPT
 70
    0
  9
$DIMDEC
 70
    1
  9
$DIMTDEC
 70
    2
  9
$DIMALTU
 70
    2
  9
$DIMALTTD
 70
    3
  9
$DIMTXSTY
  7
standard
  9
$DIMAUNIT
 70
    0
  9
$DIMADEC
 70
    1
  9
$DIMALTRND
 40
0
  9
$DIMAZIN
 70
    0
  9
$DIMDSEP
 70
    0
  9
$DIMATFIT
 70
    3
  9
$DIMFRAC
 70
    0
  9
$DIMLDRBLK
  1
STANDARD
  9
$DIMLUNIT
 70
    2
  9
$DIMLWD
 70
   -2
  9
$DIMLWE
 70
   -2
  9
$DIMTMOVE
 70
    0
  9
$DIMFXL
 40
1
  9
$DIMFXLON
 70
    0
  9
$DIMJOGANG
 40
0.7854
  9
$DIMTFILL
 70
    0
  9
$DIMTFILLCLR
 70
    0
  9
$DIMARCSYM
 70
    0
  9
$DIMLTYPE
  6

  9
$DIMLTEX1
  6

  9
$DIMLTEX2
  6

  9
$LUNITS
 70
    2
  9
$LUPREC
 70
    4
  9
$SKETCHINC
 40
1
  9
$FILLETRAD
 40
0
  9
$AUNITS
 70
    0
  9
$AUPREC
 70
    2
  9
$MENU
  1
.
  9
$ELEVATION
 40
0
  9
$PELEVATION
 40
0
  9
$THICKNESS
 40
0
  9
$LIMCHECK
 70
    0
  9
$CHAMFERA
 40
0
  9
$CHAMFERB
 40
0
  9
$CHAMFERC
 40
0
  9
$CHAMFERD
 40
0
  9
$SKPOLY
 70
    0
  9
$USRTIMER
 70
    1
  9
$ANGBASE
 50
0
  9
$ANGDIR
 70
    0
  9
$PDMODE
 70
   34
  9
$PDSIZE
 40
0
  9
$PLINEWID
 40
0
  9
$SPLFRAME
 70
    0
  9
$SPLINETYPE
 70
    2
  9
$SPLINESEGS
 70
    8
  9
$HANDSEED
  5
20000
  9
$SURFTAB1
 70
    6
  9
$SURFTAB2
 70
    6
  9
$SURFTYPE
 70
    6
  9
$SURFU
 70
    6
  9
$SURFV
 70
    6
  9
$UCSBASE
  2

  9
$UCSNAME
  2

  9
$UCSORG
 10
0
 20
0
 30
0
  9
$UCSXDIR
 10
1
 20
0
 30
0
  9
$UCSYDIR
 10
0
 20
1
 30
0
  9
$UCSORTHOREF
  2

  9
$UCSORTHOVIEW
 70
    0
  9
$UCSORGTOP
 10
0
 20
0
 30
0
  9
$UCSORGBOTTOM
 10
0
 20
0
 30
0
  9
$UCSORGLEFT
 10
0
 20
0
 30
0
  9
$UCSORGRIGHT
 10
0
 20
0
 30
0
  9
$UCSORGFRONT
 10
0
 20
0
 30
0
  9
$UCSORGBACK
 10
0
 20
0
 30
0
  9
$PUCSBASE
  2

  9
$PUCSNAME
  2

  9
$PUCSORG
 10
0
 20
0
 30
0
  9
$PUCSXDIR
 10
1
 20
0
 30
0
  9
$PUCSYDIR
 10
0
 20
1
 30
0
  9
$PUCSORTHOREF
  2

  9
$PUCSORTHOVIEW
 70
    0
  9
$PUCSORGTOP
 10
0
 20
0
 30
0
  9
$PUCSORGBOTTOM
 10
0
 20
0
 30
0
  9
$PUCSORGLEFT
 10
0
 20
0
 30
0
  9
$PUCSORGRIGHT
 10
0
 20
0
 30
0
  9
$PUCSORGFRONT
 10
0
 20
0
 30
0
  9
$PUCSORGBACK
 10
0
 20
0
 30
0
  9
$USERI1
 70
    0
  9
$USERI2
 70
    0
  9
$USERI3
 70
    0
  9
$USERI4
 70
    0
  9
$USERI5
 70
    0
  9
$USERR1
 40
0
  9
$USERR2
 40
0
  9
$USERR3
 40
0
  9
$USERR4
 40
0
  9
$USERR5
 40
0
  9
$WORLDVIEW
 70
    1
  9
$SHADEDGE
 70
    3
  9
$SHADEDIF
 70
   70
  9
$TILEMODE
 70
    1
  9
$MAXACTVP
 70
   64
  9
$PINSBASE
 10
0
 20
0
 30
0
  9
$PLIMCHECK
 70
    0
  9
$PEXTMIN
 10
0
 20
0
 30
0
  9
$PEXTMAX
 10
0
 20
0
 30
0
  9
$GRIDMODE
 70
    1
  9
$SNAPSTYLE
 70
    0
  9
$GRIDUNIT
 10
0
 20
0
  9
$PLIMMIN
 10
0
 20
0
  9
$PLIMMAX
 10
210
 20
297
  9
$UNITMODE
 70
    0
  9
$VISRETAIN
 70
    1
  9
$PLINEGEN
 70
    0
  9
$PSLTSCALE
 70
    1
  9
$TREEDEPTH
 70
 3020
  9
$CMLSTYLE
  2
Standard
  9
$CMLJUST
 70
    0
  9
$CMLSCALE
 40
20
  9
$PROXYGRAPHICS
 70
    1
  9
$MEASUREMENT
 70
    1
  9
$CELWEIGHT
370
   -1
  9
$ENDCAPS
280
    0
  9
$JOINSTYLE
280
    0
  9
$LWDISPLAY
290
    0
  9
$INSUNITS
 70
    4
  9
$HYPERLINKBASE
  1

  9
$STYLESHEET
  1

  9
$XEDIT
290
    1
  9
$CEPSNTYPE
380
    0
  9
$PSTYLEMODE
290
    1
  9
$EXTNAMES
290
    1
  9
$PSVPSCALE
 40
1
  9
$OLESTARTUP
290
    0
  9
$SORTENTS
280
  127
  9
$INDEXCTL
280
    0
  9
$HIDETEXT
280
    1
  9
$XCLIPFRAME
290
    0
  9
$HALOGAP
280
    0
  9
$OBSCOLOR
 70
  257
  9
$OBSLTYPE
280
    0
  9
$INTERSECTIONDISPLAY
280
    0
  9
$INTERSECTIONCOLOR
 70
  257
  9
$DIMASSOC
280
    1
  9
$PROJECTNAME
  1

  9
$CAMERADISPLAY
290
    0
  9
$LENSLENGTH
 40
50
  9
$CAMERAHEIGHT
 40
0
  9
$STEPSPERSEC
 40
2
  9
$STEPSIZE
 40
50
  9
$3DDWFPREC
 40
2
  9
$PSOLWIDTH
 40
5
  9
$PSOLHEIGHT
 40
80
  9
$LOFTANG1
 40
1.570796326794897
  9
$LOFTANG2
 40
1.570796326794897
  9
$LOFTMAG1
 40
0
  9
$LOFTMAG2
 40
0
  9
$LOFTPARAM
 70
    7
  9
$LOFTNORMALS
280
    1
  9
$LATITUDE
 40
1
  9
$LONGITUDE
 40
1
  9
$NORTHDIRECTION
 40
0
  9
$TIMEZONE
 70
-8000
  9
$LIGHTGLYPHDISPLAY
280
    1
  9
$TILEMODELIGHTSYNCH
280
    1
  9
$SOLIDHIST
280
    1
  9
$SHOWHIST
280
    1
  9
$DWFFRAME
280
    2
  9
$DGNFRAME
280
    0
  9
$REALWORLDSCALE
290
    1
  9
$INTERFERECOLOR
 62
    1
  9
$CSHADOW
280
    0
  9
$SHADOWPLANELOCATION
 40
0
  0
ENDSEC
  0
SECTION
  2
CLASSES
  0
ENDSEC
  0
SECTION
  2
TABLES
  0
TABLE
  2
VPORT
  5
8
330
0
100
AcDbSymbolTable
 70
    1
  0
VPORT
  5
31
330
2
100
AcDbSymbolTableRecord
100
AcDbViewportTableRecord
  2
*ACTIVE
 70
    0
 10
0
 20
0
 11
1
 21
1
 12
495.7295661606958
 22
232.4268381134058
 13
0
 23
0
 14
10
 24
10
 15
10
 25
10
 16
0
 26
0
 36
1
 17
0
 27
0
 37
0
 40
919.4153891423284
 41
1.925373134328358
 42
50
 43
0
 44
0
 50
0
 51
0
 71
    0
 72
  100
 73
    1
 74
    3
 75
    0
 76
    1
 77
    0
 78
    0
281
    0
 65
    1
110
0
120
0
130
0
111
1
121
0
131
0
112
0
122
1
132
0
 79
    0
146
0
348
10020
 60
    7
 61
    5
292
1
282
    1
141
0
142
0
 63
  250
421
3358443
  0
ENDTAB
  0
TABLE
  2
LTYPE
  5
5
330
0
100
AcDbSymbolTable
 70
    4
  0
LTYPE
  5
14
330
5
100
AcDbSymbolTableRecord
100
AcDbLinetypeTableRecord
  2
ByBlock
 70
    0
  3

 72
   65
 73
    0
 40
0
  0
LTYPE
  5
15
330
5
100
AcDbSymbolTableRecord
100
AcDbLinetypeTableRecord
  2
ByLayer
 70
    0
  3

 72
   65
 73
    0
 40
0
  0
LTYPE
  5
16
330
5
100
AcDbSymbolTableRecord
100
AcDbLinetypeTableRecord
  2
Continuous
 70
    0
  3
Solid line
 72
   65
 73
    0
 40
0
  0
LTYPE
  5
32
330
5
100
AcDbSymbolTableRecord
100
AcDbLinetypeTableRecord
  2
DOT
 70
    0
  3
Dot . . . . . . . . . . . . . . . . . . . . . .
 72
   65
 73
    2
 40
6.35
 49
0
 74
    0
 49
-6.35
 74
    0
  0
LTYPE
  5
33
330
5
100
AcDbSymbolTableRecord
100
AcDbLinetypeTableRecord
  2
DOTTINY
 70
    0
  3
Dot (.15x) .....................................
 72
   65
 73
    2
 40
0.9525
 49
0
 74
    0
 49
-0.9525
 74
    0
  0
LTYPE
  5
34
330
5
100
AcDbSymbolTableRecord
100
AcDbLinetypeTableRecord
  2
DOT2
 70
    0
  3
Dot (.5x) .....................................
 72
   65
 73
    2
 40
3.175
 49
0
 74
    0
 49
-3.175
 74
    0
  0
LTYPE
  5
35
330
5
100
AcDbSymbolTableRecord
100
AcDbLinetypeTableRecord
  2
DOTX2
 70
    0
  3
Dot (2x) .  .  .  .  .  .  .  .  .  .  .  .  .
 72
   65
 73
    2
 40
12.7
 49
0
 74
    0
 49
-12.7
 74
    0
  0
LTYPE
  5
36
330
5
100
AcDbSymbolTableRecord
100
AcDbLinetypeTableRecord
  2
DASHED
 70
    0
  3
Dashed _ _ _ _ _ _ _ _ _ _ _ _ _ _ _ _ _
 72
   65
 73
    2
 40
19.05
 49
12.7
 74
    0
 49
-6.35
 74
    0
  0
LTYPE
  5
37
330
5
100
AcDbSymbolTableRecord
100
AcDbLinetypeTableRecord
  2
DASHEDTINY
 70
    0
  3
Dashed (.15x) _ _ _ _ _ _ _ _ _ _ _ _ _ _ _ _ _
 72
   65
 73
    2
 40
2.8575
 49
1.905
 74
    0
 49
-0.9525
 74
    0
  0
LTYPE
  5
38
330
5
100
AcDbSymbolTableRecord
100
AcDbLinetypeTableRecord
  2
DASHED2
 70
    0
  3
Dashed (.5x) _ _ _ _ _ _ _ _ _ _ _ _ _ _ _ _ _
 72
   65
 73
    2
 40
9.524999999999999
 49
6.35
 74
    0
 49
-3.175
 74
    0
  0
LTYPE
  5
39
330
5
100
AcDbSymbolTableRecord
100
AcDbLinetypeTableRecord
  2
DASHEDX2
 70
    0
  3
Dashed (2x) ____  ____  ____  ____  ____  ___
 72
   65
 73
    2
 40
38.09999999999999
 49
25.4
 74
    0
 49
-12.7
 74
    0
  0
LTYPE
  5
3A
330
5
100
AcDbSymbolTableRecord
100
AcDbLinetypeTableRecord
  2
DASHDOT
 70
    0
  3
Dash dot __ . __ . __ . __ . __ . __ . __ . __
 72
   65
 73
    4
 40
25.4
 49
12.7
 74
    0
 49
-6.35
 74
    0
 49
0
 74
    0
 49
-6.35
 74
    0
  0
LTYPE
  5
3B
330
5
100
AcDbSymbolTableRecord
100
AcDbLinetypeTableRecord
  2
DASHDOTTINY
 70
    0
  3
Dash dot (.15x) _._._._._._._._._._._._._._._.
 72
   65
 73
    4
 40
3.81
 49
1.905
 74
    0
 49
-0.9525
 74
    0
 49
0
 74
    0
 49
-0.9525
 74
    0
  0
LTYPE
  5
3C
330
5
100
AcDbSymbolTableRecord
100
AcDbLinetypeTableRecord
  2
DASHDOT2
 70
    0
  3
Dash dot (.5x) _._._._._._._._._._._._._._._.
 72
   65
 73
    4
 40
12.7
 49
6.35
 74
    0
 49
-3.175
 74
    0
 49
0
 74
    0
 49
-3.175
 74
    0
  0
LTYPE
  5
3D
330
5
100
AcDbSymbolTableRecord
100
AcDbLinetypeTableRecord
  2
DASHDOTX2
 70
    0
  3
Dash dot (2x) ____  .  ____  .  ____  .  ___
 72
   65
 73
    4
 40
50.8
 49
25.4
 74
    0
 49
-12.7
 74
    0
 49
0
 74
    0
 49
-12.7
 74
    0
  0
LTYPE
  5
3E
330
5
100
AcDbSymbolTableRecord
100
AcDbLinetypeTableRecord
  2
DIVIDE
 70
    0
  3
Divide ____ . . ____ . . ____ . . ____ . . ____
 72
   65
 73
    6
 40
31.75
 49
12.7
 74
    0
 49
-6.35
 74
    0
 49
0
 74
    0
 49
-6.35
 74
    0
 49
0
 74
    0
 49
-6.35
 74
    0
  0
LTYPE
  5
3F
330
5
100
AcDbSymbolTableRecord
100
AcDbLinetypeTableRecord
  2
DIVIDETINY
 70
    0
  3
Divide (.15x) __..__..__..__..__..__..__..__.._
 72
   65
 73
    6
 40
4.7625
 49
1.905
 74
    0
 49
-0.9525
 74
    0
 49
0
 74
    0
 49
-0.9525
 74
    0
 49
0
 74
    0
 49
-0.9525
 74
    0
  0
LTYPE
  5
40
330
5
100
AcDbSymbolTableRecord
100
AcDbLinetypeTableRecord
  2
DIVIDE2
 70
    0
  3
Divide (.5x) __..__..__..__..__..__..__..__.._
 72
   65
 73
    6
 40
15.875
 49
6.35
 74
    0
 49
-3.175
 74
    0
 49
0
 74
    0
 49
-3.175
 74
    0
 49
0
 74
    0
 49
-3.175
 74
    0
  0
LTYPE
  5
41
330
5
100
AcDbSymbolTableRecord
100
AcDbLinetypeTableRecord
  2
DIVIDEX2
 70
    0
  3
Divide (2x) ________  .  .  ________  .  .  _
 72
   65
 73
    6
 40
63.5
 49
25.4
 74
    0
 49
-12.7
 74
    0
 49
0
 74
    0
 49
-12.7
 74
    0
 49
0
 74
    0
 49
-12.7
 74
    0
  0
LTYPE
  5
42
330
5
100
AcDbSymbolTableRecord
100
AcDbLinetypeTableRecord
  2
BORDER
 70
    0
  3
Border __ __ . __ __ . __ __ . __ __ . __ __ .
 72
   65
 73
    6
 40
44.45
 49
12.7
 74
    0
 49
-6.35
 74
    0
 49
12.7
 74
    0
 49
-6.35
 74
    0
 49
0
 74
    0
 49
-6.35
 74
    0
  0
LTYPE
  5
43
330
5
100
AcDbSymbolTableRecord
100
AcDbLinetypeTableRecord
  2
BORDERTINY
 70
    0
  3
Border (.15x) __.__.__.__.__.__.__.__.__.__.__.
 72
   65
 73
    6
 40
6.6675
 49
1.905
 74
    0
 49
-0.9525
 74
    0
 49
1.905
 74
    0
 49
-0.9525
 74
    0
 49
0
 74
    0
 49
-0.9525
 74
    0
  0
LTYPE
  5
44
330
5
100
AcDbSymbolTableRecord
100
AcDbLinetypeTableRecord
  2
BORDER2
 70
    0
  3
Border (.5x) __.__.__.__.__.__.__.__.__.__.__.
 72
   65
 73
    6
 40
22.225
 49
6.35
 74
    0
 49
-3.175
 74
    0
 49
6.35
 74
    0
 49
-3.175
 74
    0
 49
0
 74
    0
 49
-3.175
 74
    0
  0
LTYPE
  5
45
330
5
100
AcDbSymbolTableRecord
100
AcDbLinetypeTableRecord
  2
BORDERX2
 70
    0
  3
Border (2x) ____  ____  .  ____  ____  .  ___
 72
   65
 73
    6
 40
88.89999999999999
 49
25.4
 74
    0
 49
-12.7
 74
    0
 49
25.4
 74
    0
 49
-12.7
 74
    0
 49
0
 74
    0
 49
-12.7
 74
    0
  0
LTYPE
  5
46
330
5
100
AcDbSymbolTableRecord
100
AcDbLinetypeTableRecord
  2
CENTER
 70
    0
  3
Center ____ _ ____ _ ____ _ ____ _ ____ _ ____
 72
   65
 73
    4
 40
50.8
 49
31.75
 74
    0
 49
-6.35
 74
    0
 49
6.35
 74
    0
 49
-6.35
 74
    0
  0
LTYPE
  5
47
330
5
100
AcDbSymbolTableRecord
100
AcDbLinetypeTableRecord
  2
CENTERTINY
 70
    0
  3
Center (.15x) ___ _ ___ _ ___ _ ___ _ ___ _ ___
 72
   65
 73
    4
 40
7.62
 49
4.7625
 74
    0
 49
-0.9525
 74
    0
 49
0.9525
 74
    0
 49
-0.9525
 74
    0
  0
LTYPE
  5
48
330
5
100
AcDbSymbolTableRecord
100
AcDbLinetypeTableRecord
  2
CENTER2
 70
    0
  3
Center (.5x) ___ _ ___ _ ___ _ ___ _ ___ _ ___
 72
   65
 73
    4
 40
28.575
 49
19.05
 74
    0
 49
-3.175
 74
    0
 49
3.175
 74
    0
 49
-3.175
 74
    0
  0
LTYPE
  5
49
330
5
100
AcDbSymbolTableRecord
100
AcDbLinetypeTableRecord
  2
CENTERX2
 70
    0
  3
Center (2x) ________  __  ________  __  _____
 72
   65
 73
    4
 40
101.6
 49
63.5
 74
    0
 49
-12.7
 74
    0
 49
12.7
 74
    0
 49
-12.7
 74
    0
  0
ENDTAB
  0
TABLE
  2
LAYER
  5
2
330
0
100
AcDbSymbolTable
 70
    1
  0
LAYER
  5
10
330
2
100
AcDbSymbolTableRecord
100
AcDbLayerTableRecord
  2
0
 70
    0
 62
    7
  6
CONTINUOUS
370
    0
390
F
  0
LAYER
  5
4A
330
2
100
AcDbSymbolTableRecord
100
AcDbLayerTableRecord
  2
Centerline-symbol
 70
    0
 62
    7
  6
DASHDOT2
370
    0
390
F
  0
LAYER
  5
4B
330
2
100
AcDbSymbolTableRecord
100
AcDbLayerTableRecord
  2
Measures
 70
    0
 62
    4
  6
CONTINUOUS
370
   35
390
F
  0
LAYER
  5
4C
330
2
100
AcDbSymbolTableRecord
100
AcDbLayerTableRecord
  2
main
 70
    0
 62
    7
  6
CONTINUOUS
370
   70
390
F
  0
ENDTAB
  0
TABLE
  2
STYLE
  5
3
330
0
100
AcDbSymbolTable
 70
    3
  0
STYLE
  5
4D
330
2
100
AcDbSymbolTableRecord
100
AcDbTextStyleTableRecord
  2
standard
 70
    0
 40
0
 41
1
 50
0
 71
    0
 42
1
  3
standard
  4

  0
ENDTAB
  0
TABLE
  2
VIEW
  5
6
330
0
100
AcDbSymbolTable
 70
    0
  0
ENDTAB
  0
TABLE
  2
UCS
  5
7
330
0
100
AcDbSymbolTable
 70
    0
  0
ENDTAB
  0
TABLE
  2
APPID
  5
9
330
0
100
AcDbSymbolTable
 70
    1
  0
APPID
  5
12
330
9
100
AcDbSymbolTableRecord
100
AcDbRegAppTableRecord
  2
ACAD
 70
    0
  0
APPID
  5
4E
330
9
100
AcDbSymbolTableRecord
100
AcDbRegAppTableRecord
  2
LibreCad
 70
    0
  0
ENDTAB
  0
TABLE
  2
DIMSTYLE
  5
A
330
0
100
AcDbSymbolTable
 70
    1
100
AcDbDimStyleTable
 71
    1
  0
DIMSTYLE
105
4F
330
A
100
AcDbSymbolTableRecord
100
AcDbDimStyleTableRecord
  2
Standard
 70
    0
 40
1
 41
2.5
 42
0.625
 43
0.38
 44
1.25
 45
0
 46
0
 47
0
 48
0
 49
1
140
2.5
141
0.09
142
0
143
25.4
144
1
145
0
146
1
147
0.625
148
0
 71
    0
 72
    0
 73
    0
 74
    1
 75
    0
 76
    0
 77
    0
 78
    1
 79
    0
170
    0
171
    2
172
    0
173
    0
174
    0
175
    0
176
    0
177
    0
178
    0
179
    1
271
    1
272
    4
273
    2
274
    2
275
    0
276
    0
277
    2
278
    0
279
    0
280
    0
281
    0
282
    0
283
    1
284
    0
285
    0
286
    0
288
    0
289
    3
340
standard
341

371
   -2
372
   -2
  0
ENDTAB
  0
TABLE
  2
BLOCK_RECORD
  5
1
330
0
100
AcDbSymbolTable
 70
    2
  0
BLOCK_RECORD
  5
1F
330
1
100
AcDbSymbolTableRecord
100
AcDbBlockTableRecord
  2
*Model_Space
 70
    0
280
    1
281
    0
  0
BLOCK_RECORD
  5
1E
330
1
100
AcDbSymbolTableRecord
100
AcDbBlockTableRecord
  2
*Paper_Space
 70
    0
280
    1
281
    0
  0
BLOCK_RECORD
  5
50
330
1
100
AcDbSymbolTableRecord
100
AcDbBlockTableRecord
  2
*D2
 70
    0
280
    1
281
    0
  0
BLOCK_RECORD
  5
53
330
1
100
AcDbSymbolTableRecord
100
AcDbBlockTableRecord
  2
*D9
 70
    0
280
    1
281
    0
  0
BLOCK_RECORD
  5
56
330
1
100
AcDbSymbolTableRecord
100
AcDbBlockTableRecord
  2
*D3
 70
    0
280
    1
281
    0
  0
BLOCK_RECORD
  5
59
330
1
100
AcDbSymbolTableRecord
100
AcDbBlockTableRecord
  2
*D8
 70
    0
280
    1
281
    0
  0
BLOCK_RECORD
  5
5C
330
1
100
AcDbSymbolTableRecord
100
AcDbBlockTableRecord
  2
*D4
 70
    0
280
    1
281
    0
  0
BLOCK_RECORD
  5
5F
330
1
100
AcDbSymbolTableRecord
100
AcDbBlockTableRecord
  2
*D5
 70
    0
280
    1
281
    0
  0
BLOCK_RECORD
  5
62
330
1
100
AcDbSymbolTableRecord
100
AcDbBlockTableRecord
  2
*D19
 70
    0
280
    1
281
    0
  0
BLOCK_RECORD
  5
65
330
1
100
AcDbSymbolTableRecord
100
AcDbBlockTableRecord
  2
*D17
 70
    0
280
    1
281
    0
  0
BLOCK_RECORD
  5
68
330
1
100
AcDbSymbolTableRecord
100
AcDbBlockTableRecord
  2
*D15
 70
    0
280
    1
281
    0
  0
BLOCK_RECORD
  5
6B
330
1
100
AcDbSymbolTableRecord
100
AcDbBlockTableRecord
  2
*D1
 70
    0
280
    1
281
    0
  0
BLOCK_RECORD
  5
6E
330
1
100
AcDbSymbolTableRecord
100
AcDbBlockTableRecord
  2
*D6
 70
    0
280
    1
281
    0
  0
BLOCK_RECORD
  5
71
330
1
100
AcDbSymbolTableRecord
100
AcDbBlockTableRecord
  2
*D16
 70
    0
280
    1
281
    0
  0
BLOCK_RECORD
  5
74
330
1
100
AcDbSymbolTableRecord
100
AcDbBlockTableRecord
  2
*D14
 70
    0
280
    1
281
    0
  0
BLOCK_RECORD
  5
77
330
1
100
AcDbSymbolTableRecord
100
AcDbBlockTableRecord
  2
*D18
 70
    0
280
    1
281
    0
  0
BLOCK_RECORD
  5
7A
330
1
100
AcDbSymbolTableRecord
100
AcDbBlockTableRecord
  2
*D11
 70
    0
280
    1
281
    0
  0
BLOCK_RECORD
  5
7D
330
1
100
AcDbSymbolTableRecord
100
AcDbBlockTableRecord
  2
*D10
 70
    0
280
    1
281
    0
  0
BLOCK_RECORD
  5
80
330
1
100
AcDbSymbolTableRecord
100
AcDbBlockTableRecord
  2
*D12
 70
    0
280
    1
281
    0
  0
BLOCK_RECORD
  5
83
330
1
100
AcDbSymbolTableRecord
100
AcDbBlockTableRecord
  2
*D7
 70
    0
280
    1
281
    0
  0
BLOCK_RECORD
  5
86
330
1
100
AcDbSymbolTableRecord
100
AcDbBlockTableRecord
  2
*D13
 70
    0
280
    1
281
    0
  0
BLOCK_RECORD
  5
89
330
1
100
AcDbSymbolTableRecord
100
AcDbBlockTableRecord
  2
Projection-EU
 70
    0
280
    1
281
    0
  0
BLOCK_RECORD
  5
8C
330
1
100
AcDbSymbolTableRecord
100
AcDbBlockTableRecord
  2
Projection-EU-0
 70
    0
280
    1
281
    0
  0
BLOCK_RECORD
  5
8F
330
1
100
AcDbSymbolTableRecord
100
AcDbBlockTableRecord
  2
Projection-EU-1
 70
    0
280
    1
281
    0
  0
BLOCK_RECORD
  5
92
330
1
100
AcDbSymbolTableRecord
100
AcDbBlockTableRecord
  2
A4-frame-large-no-layers
 70
    0
280
    1
281
    0
  0
ENDTAB
  0
ENDSEC
  0
SECTION
  2
BLOCKS
  0
BLOCK
  5
20
330
1F
100
AcDbEntity
  8
0
100
AcDbBlockBegin
  2
*Model_Space
 70
    0
 10
0
 20
0
 30
0
  3
*Model_Space
  1

  0
ENDBLK
  5
21
330
1F
100
AcDbEntity
  8
0
100
AcDbBlockEnd
  0
BLOCK
  5
1C
330
1B
100
AcDbEntity
  8
0
100
AcDbBlockBegin
  2
*Paper_Space
 70
    0
 10
0
 20
0
 30
0
  3
*Paper_Space
  1

  0
ENDBLK
  5
1D
330
1F
100
AcDbEntity
  8
0
100
AcDbBlockEnd
  0
BLOCK
  5
51
330
50
100
AcDbEntity
  8
0
100
AcDbBlockBegin
  2
*D2
 70
    1
 10
0
 20
0
  3
*D2
  1

  0
LINE
  5
95
100
AcDbEntity
  8
Measures
  6
ByBlock
 62
    0
370
   -2
100
AcDbLine
 10
10
 20
20
 11
10
 21
30
  0
SOLID
  5
96
100
AcDbEntity
  8
Measures
  6
ByBlock
 62
    0
370
   -2
100
AcDbTrace
 10
10
 20
20
 30
0
 11
9.58371534222716
 21
22.5
 31
0
 12
10.41628465777284
 22
22.5
 32
0
 13
10.41628465777284
 23
22.5
 33
0
  0
SOLID
  5
97
100
AcDbEntity
  8
Measures
  6
ByBlock
 62
    0
370
   -2
100
AcDbTrace
 10
10
 20
30
 30
0
 11
10.41628465777284
 21
27.5
 31
0
 12
9.58371534222716
 22
27.5
 32
0
 13
9.58371534222716
 23
27.5
 33
0
  0
MTEXT
  5
98
100
AcDbEntity
  8
Measures
  6
CONTINUOUS
 62
    0
370
   -2
100
AcDbMText
 10
8.125
 20
25
 30
0
 40
2.5
 41
5.277777777777778
 71
    5
 72
    1
  1
10.0
  7
standard
210
0
220
0
230
1
 50
90
 73
    2
 44
1
  0
LINE
  5
99
100
AcDbEntity
  8
Measures
  6
ByBlock
 62
    0
370
   -2
100
AcDbLine
 10
19.375
 20
20
 11
8.75
 21
20
  0
LINE
  5
9A
100
AcDbEntity
  8
Measures
  6
ByBlock
 62
    0
370
   -2
100
AcDbLine
 10
19.375
 20
30
 11
8.75
 21
30
  0
ENDBLK
  5
52
330
50
100
AcDbEntity
  8
0
100
AcDbBlockEnd
  0
BLOCK
  5
54
330
53
100
AcDbEntity
  8
0
100
AcDbBlockBegin
  2
*D9
 70
    1
 10
0
 20
0
  3
*D9
  1

  0
LINE
  5
9B
100
AcDbEntity
  8
Measures
  6
ByBlock
 62
    0
370
   -2
100
AcDbLine
 10
-240
 20
30
 11
-240
 21
50
  0
SOLID
  5
9C
100
AcDbEntity
  8
Measures
  6
ByBlock
 62
    0
370
   -2
100
AcDbTrace
 10
-240
 20
30
 30
0
 11
-240.4162846577728
 21
32.5
 31
0
 12
-239.5837153422272
 22
32.5
 32
0
 13
-239.5837153422272
 23
32.5
 33
0
  0
SOLID
  5
9D
100
AcDbEntity
  8
Measures
  6
ByBlock
 62
    0
370
   -2
100
AcDbTrace
 10
-240
 20
50
 30
0
 11
-239.5837153422272
 21
47.5
 31
0
 12
-240.4162846577728
 22
47.5
 32
0
 13
-240.4162846577728
 23
47.5
 33
0
  0
MTEXT
  5
9E
100
AcDbEntity
  8
Measures
  6
CONTINUOUS
 62
    0
370
   -2
100
AcDbMText
 10
-241.875
 20
40
 30
0
 40
2.5
 41
5.833333333333334
 71
    5
 72
    1
  1
20.0
  7
standard
210
0
220
0
230
1
 50
90
 73
    2
 44
1
  0
LINE
  5
9F
100
AcDbEntity
  8
Measures
  6
ByBlock
 62
    0
370
   -2
100
AcDbLine
 10
-220.625
 20
30
 11
-241.25
 21
30
  0
LINE
  5
A0
100
AcDbEntity
  8
Measures
  6
ByBlock
 62
    0
370
   -2
100
AcDbLine
 10
-220.625
 20
50
 11
-241.25
 21
50
  0
ENDBLK
  5
55
330
53
100
AcDbEntity
  8
0
100
AcDbBlockEnd
  0
BLOCK
  5
57
330
56
100
AcDbEntity
  8
0
100
AcDbBlockBegin
  2
*D3
 70
    1
 10
0
 20
0
  3
*D3
  1

  0
LINE
  5
A1
100
AcDbEntity
  8
Measures
  6
ByBlock
 62
    0
370
   -2
100
AcDbLine
 10
180
 20
20
 11
180
 21
110
  0
SOLID
  5
A2
100
AcDbEntity
  8
Measures
  6
ByBlock
 62
    0
370
   -2
100
AcDbTrace
 10
180
 20
20
 30
0
 11
179.5837153422272
 21
22.5
 31
0
 12
180.4162846577728
 22
22.5
 32
0
 13
180.4162846577728
 23
22.5
 33
0
  0
SOLID
  5
A3
100
AcDbEntity
  8
Measures
  6
ByBlock
 62
    0
370
   -2
100
AcDbTrace
 10
180
 20
110
 30
0
 11
180.4162846577728
 21
107.5
 31
0
 12
179.5837153422272
 22
107.5
 32
0
 13
179.5837153422272
 23
107.5
 33
0
  0
MTEXT
  5
A4
100
AcDbEntity
  8
Measures
  6
CONTINUOUS
 62
    0
370
   -2
100
AcDbMText
 10
178.125
 20
65
 30
0
 40
2.5
 41
5.833333333333488
 71
    5
 72
    1
  1
90.0
  7
standard
210
0
220
0
230
1
 50
90
 73
    2
 44
1
  0
LINE
  5
A5
100
AcDbEntity
  8
Measures
  6
ByBlock
 62
    0
370
   -2
100
AcDbLine
 10
140.625
 20
20
 11
181.25
 21
20
  0
LINE
  5
A6
100
AcDbEntity
  8
Measures
  6
ByBlock
 62
    0
370
   -2
100
AcDbLine
 10
85.625
 20
110
 11
181.25
 21
110
  0
ENDBLK
  5
58
330
56
100
AcDbEntity
  8
0
100
AcDbBlockEnd
  0
BLOCK
  5
5A
330
59
100
AcDbEntity
  8
0
100
AcDbBlockBegin
  2
*D8
 70
    1
 10
0
 20
0
  3
*D8
  1

  0
LINE
  5
A7
100
AcDbEntity
  8
Measures
  6
ByBlock
 62
    0
370
   -2
100
AcDbLine
 10
-65
 20
40
 11
-110
 21
40
  0
SOLID
  5
A8
100
AcDbEntity
  8
Measures
  6
ByBlock
 62
    0
370
   -2
100
AcDbTrace
 10
-65
 20
40
 30
0
 11
-67.5
 21
39.58371534222716
 31
0
 12
-67.5
 22
40.41628465777284
 32
0
 13
-67.5
 23
40.41628465777284
 33
0
  0
SOLID
  5
A9
100
AcDbEntity
  8
Measures
  6
ByBlock
 62
    0
370
   -2
100
AcDbTrace
 10
-110
 20
40
 30
0
 11
-107.5
 21
40.41628465777284
 31
0
 12
-107.5
 22
39.58371534222716
 32
0
 13
-107.5
 23
39.58371534222716
 33
0
  0
MTEXT
  5
AA
100
AcDbEntity
  8
Measures
  6
CONTINUOUS
 62
    0
370
   -2
100
AcDbMText
 10
-87.5
 20
41.875
 30
0
 40
2.5
 41
6.111111111111267
 71
    5
 72
    1
  1
45.0
  7
standard
210
0
220
0
230
1
 50
360
 73
    2
 44
1
  0
LINE
  5
AB
100
AcDbEntity
  8
Measures
  6
ByBlock
 62
    0
370
   -2
100
AcDbLine
 10
-65
 20
49.375
 11
-65
 21
38.75
  0
LINE
  5
AC
100
AcDbEntity
  8
Measures
  6
ByBlock
 62
    0
370
   -2
100
AcDbLine
 10
-110
 20
49.375
 11
-110
 21
38.75
  0
ENDBLK
  5
5B
330
59
100
AcDbEntity
  8
0
100
AcDbBlockEnd
  0
BLOCK
  5
5D
330
5C
100
AcDbEntity
  8
0
100
AcDbBlockBegin
  2
*D4
 70
    1
 10
0
 20
0
  3
*D4
  1

  0
SOLID
  5
AD
100
AcDbEntity
  8
Measures
  6
ByBlock
 62
    0
370
   -2
100
AcDbTrace
 10
87.92893218813452
 20
32.92893218813452
 30
0
 11
86.45552293958325
 21
30.86680753075305
 31
0
 12
85.86680753075306
 22
31.45552293958324
 32
0
 13
85.86680753075306
 23
31.45552293958324
 33
0
  0
LINE
  5
AE
100
AcDbEntity
  8
Measures
  6
ByBlock
 62
    0
370
   -2
100
AcDbLine
 10
95
 20
40
 11
80.66144582593945
 21
25.66144582593945
  0
MTEXT
  5
AF
100
AcDbEntity
  8
Measures
  6
CONTINUOUS
 62
    0
370
   -2
100
AcDbMText
 10
82.96936379231221
 20
30.62101422176177
 30
0
 40
2.5
 41
5.277777777777778
 71
    5
 72
    1
  1
10.0
  7
standard
210
0
220
0
230
1
 50
45.00000000000005
 73
    2
 44
1
  0
ENDBLK
  5
5E
330
5C
100
AcDbEntity
  8
0
100
AcDbBlockEnd
  0
BLOCK
  5
60
330
5F
100
AcDbEntity
  8
0
100
AcDbBlockBegin
  2
*D5
 70
    1
 10
0
 20
0
  3
*D5
  1

  0
LINE
  5
B0
100
AcDbEntity
  8
Measures
  6
ByBlock
 62
    0
370
   -2
100
AcDbLine
 10
-220
 20
0
 11
-20
 21
0
  0
SOLID
  5
B1
100
AcDbEntity
  8
Measures
  6
ByBlock
 62
    0
370
   -2
100
AcDbTrace
 10
-220
 20
0
 30
0
 11
-217.5
 21
0.4162846577728402
 31
0
 12
-217.5
 22
-0.4162846577728408
 32
0
 13
-217.5
 23
-0.4162846577728408
 33
0
  0
SOLID
  5
B2
100
AcDbEntity
  8
Measures
  6
ByBlock
 62
    0
370
   -2
100
AcDbTrace
 10
-20
 20
0
 30
0
 11
-22.5
 21
-0.4162846577728404
 31
0
 12
-22.5
 22
0.4162846577728404
 32
0
 13
-22.5
 23
0.4162846577728404
 33
0
  0
MTEXT
  5
B3
100
AcDbEntity
  8
Measures
  6
CONTINUOUS
 62
    0
370
   -2
100
AcDbMText
 10
-120
 20
1.875
 30
0
 40
2.5
 41
7.777777777777779
 71
    5
 72
    1
  1
200.0
  7
standard
210
0
220
0
230
1
 50
0
 73
    2
 44
1
  0
LINE
  5
B4
100
AcDbEntity
  8
Measures
  6
ByBlock
 62
    0
370
   -2
100
AcDbLine
 10
-220
 20
19.375
 11
-220
 21
-1.25
  0
LINE
  5
B5
100
AcDbEntity
  8
Measures
  6
ByBlock
 62
    0
370
   -2
100
AcDbLine
 10
-20
 20
19.375
 11
-20
 21
-1.25
  0
ENDBLK
  5
61
330
5F
100
AcDbEntity
  8
0
100
AcDbBlockEnd
  0
BLOCK
  5
63
330
62
100
AcDbEntity
  8
0
100
AcDbBlockBegin
  2
*D19
 70
    1
 10
0
 20
0
  3
*D19
  1

  0
LINE
  5
B6
100
AcDbEntity
  8
Measures
  6
ByBlock
 62
    0
370
   -2
100
AcDbLine
 10
-140
 20
90
 11
-140
 21
50
  0
SOLID
  5
B7
100
AcDbEntity
  8
Measures
  6
ByBlock
 62
    0
370
   -2
100
AcDbTrace
 10
-140
 20
90
 30
0
 11
-139.5837153422272
 21
87.5
 31
0
 12
-140.4162846577728
 22
87.5
 32
0
 13
-140.4162846577728
 23
87.5
 33
0
  0
SOLID
  5
B8
100
AcDbEntity
  8
Measures
  6
ByBlock
 62
    0
370
   -2
100
AcDbTrace
 10
-140
 20
50
 30
0
 11
-140.4162846577728
 21
52.5
 31
0
 12
-139.5837153422272
 22
52.5
 32
0
 13
-139.5837153422272
 23
52.5
 33
0
  0
MTEXT
  5
B9
100
AcDbEntity
  8
Measures
  6
CONTINUOUS
 62
    0
370
   -2
100
AcDbMText
 10
-141.875
 20
70
 30
0
 40
2.5
 41
6.111111111111112
 71
    5
 72
    1
  1
40.0
  7
standard
210
0
220
0
230
1
 50
90
 73
    2
 44
1
  0
LINE
  5
BA
100
AcDbEntity
  8
Measures
  6
ByBlock
 62
    0
370
   -2
100
AcDbLine
 10
-100.625
 20
90
 11
-141.25
 21
90
  0
LINE
  5
BB
100
AcDbEntity
  8
Measures
  6
ByBlock
 62
    0
370
   -2
100
AcDbLine
 10
-100.625
 20
50
 11
-141.25
 21
50
  0
ENDBLK
  5
64
330
62
100
AcDbEntity
  8
0
100
AcDbBlockEnd
  0
BLOCK
  5
66
330
65
100
AcDbEntity
  8
0
100
AcDbBlockBegin
  2
*D17
 70
    1
 10
0
 20
0
  3
*D17
  1

  0
LINE
  5
BC
100
AcDbEntity
  8
Measures
  6
ByBlock
 62
    0
370
   -2
100
AcDbLine
 10
-160
 20
-85
 11
-160
 21
-140
  0
SOLID
  5
BD
100
AcDbEntity
  8
Measures
  6
ByBlock
 62
    0
370
   -2
100
AcDbTrace
 10
-160
 20
-85
 30
0
 11
-159.5837153422272
 21
-87.5
 31
0
 12
-160.4162846577728
 22
-87.5
 32
0
 13
-160.4162846577728
 23
-87.5
 33
0
  0
SOLID
  5
BE
100
AcDbEntity
  8
Measures
  6
ByBlock
 62
    0
370
   -2
100
AcDbTrace
 10
-160
 20
-140
 30
0
 11
-160.4162846577728
 21
-137.5
 31
0
 12
-159.5837153422272
 22
-137.5
 32
0
 13
-159.5837153422272
 23
-137.5
 33
0
  0
MTEXT
  5
BF
100
AcDbEntity
  8
Measures
  6
CONTINUOUS
 62
    0
370
   -2
100
AcDbMText
 10
-161.875
 20
-112.5
 30
0
 40
2.5
 41
5.833333333333643
 71
    5
 72
    1
  1
55.0
  7
standard
210
0
220
0
230
1
 50
90
 73
    2
 44
1
  0
LINE
  5
C0
100
AcDbEntity
  8
Measures
  6
ByBlock
 62
    0
370
   -2
100
AcDbLine
 10
-159.4077500000016
 20
-85
 11
-158.75
 21
-85
  0
LINE
  5
C1
100
AcDbEntity
  8
Measures
  6
ByBlock
 62
    0
370
   -2
100
AcDbLine
 10
-159.4077500000016
 20
-140
 11
-158.75
 21
-140
  0
ENDBLK
  5
67
330
65
100
AcDbEntity
  8
0
100
AcDbBlockEnd
  0
BLOCK
  5
69
330
68
100
AcDbEntity
  8
0
100
AcDbBlockBegin
  2
*D15
 70
    1
 10
0
 20
0
  3
*D15
  1

  0
LINE
  5
C2
100
AcDbEntity
  8
Measures
  6
ByBlock
 62
    0
370
   -2
100
AcDbLine
 10
-182.4885000000018
 20
-40
 11
-182.4885000000018
 21
-20
  0
SOLID
  5
C3
100
AcDbEntity
  8
Measures
  6
ByBlock
 62
    0
370
   -2
100
AcDbTrace
 10
-182.4885000000018
 20
-40
 30
0
 11
-182.9047846577747
 21
-37.5
 31
0
 12
-182.072215342229
 22
-37.5
 32
0
 13
-182.072215342229
 23
-37.5
 33
0
  0
SOLID
  5
C4
100
AcDbEntity
  8
Measures
  6
ByBlock
 62
    0
370
   -2
100
AcDbTrace
 10
-182.4885000000018
 20
-20
 30
0
 11
-182.072215342229
 21
-22.5
 31
0
 12
-182.9047846577747
 22
-22.5
 32
0
 13
-182.9047846577747
 23
-22.5
 33
0
  0
MTEXT
  5
C5
100
AcDbEntity
  8
Measures
  6
CONTINUOUS
 62
    0
370
   -2
100
AcDbMText
 10
-184.3635000000018
 20
-30
 30
0
 40
2.5
 41
5.833333333333334
 71
    5
 72
    1
  1
20.0
  7
standard
210
0
220
0
230
1
 50
90
 73
    2
 44
1
  0
LINE
  5
C6
100
AcDbEntity
  8
Measures
  6
ByBlock
 62
    0
370
   -2
100
AcDbLine
 10
-199.375
 20
-40
 11
-181.2385000000018
 21
-40
  0
LINE
  5
C7
100
AcDbEntity
  8
Measures
  6
ByBlock
 62
    0
370
   -2
100
AcDbLine
 10
-199.375
 20
-20
 11
-181.2385000000018
 21
-20
  0
ENDBLK
  5
6A
330
68
100
AcDbEntity
  8
0
100
AcDbBlockEnd
  0
BLOCK
  5
6C
330
6B
100
AcDbEntity
  8
0
100
AcDbBlockBegin
  2
*D1
 70
    1
 10
0
 20
0
  3
*D1
  1

  0
LINE
  5
C8
100
AcDbEntity
  8
Measures
  6
ByBlock
 62
    0
370
   -2
100
AcDbLine
 10
20
 20
0
 11
140
 21
0
  0
SOLID
  5
C9
100
AcDbEntity
  8
Measures
  6
ByBlock
 62
    0
370
   -2
100
AcDbTrace
 10
20
 20
0
 30
0
 11
22.5
 21
0.4162846577728402
 31
0
 12
22.5
 22
-0.4162846577728408
 32
0
 13
22.5
 23
-0.4162846577728408
 33
0
  0
SOLID
  5
CA
100
AcDbEntity
  8
Measures
  6
ByBlock
 62
    0
370
   -2
100
AcDbTrace
 10
140
 20
0
 30
0
 11
137.5
 21
-0.4162846577728404
 31
0
 12
137.5
 22
0.4162846577728404
 32
0
 13
137.5
 23
0.4162846577728404
 33
0
  0
MTEXT
  5
CB
100
AcDbEntity
  8
Measures
  6
CONTINUOUS
 62
    0
370
   -2
100
AcDbMText
 10
80
 20
1.875
 30
0
 40
2.5
 41
7.222222222222222
 71
    5
 72
    1
  1
120.0
  7
standard
210
0
220
0
230
1
 50
0
 73
    2
 44
1
  0
LINE
  5
CC
100
AcDbEntity
  8
Measures
  6
ByBlock
 62
    0
370
   -2
100
AcDbLine
 10
20
 20
19.375
 11
20
 21
-1.25
  0
LINE
  5
CD
100
AcDbEntity
  8
Measures
  6
ByBlock
 62
    0
370
   -2
100
AcDbLine
 10
140
 20
19.375
 11
140
 21
-1.25
  0
ENDBLK
  5
6D
330
6B
100
AcDbEntity
  8
0
100
AcDbBlockEnd
  0
BLOCK
  5
6F
330
6E
100
AcDbEntity
  8
0
100
AcDbBlockBegin
  2
*D6
 70
    1
 10
0
 20
0
  3
*D6
  1

  0
LINE
  5
CE
100
AcDbEntity
  8
Measures
  6
ByBlock
 62
    0
370
   -2
100
AcDbLine
 10
-120
 20
130
 11
-20
 21
130
  0
SOLID
  5
CF
100
AcDbEntity
  8
Measures
  6
ByBlock
 62
    0
370
   -2
100
AcDbTrace
 10
-120
 20
130
 30
0
 11
-117.5
 21
130.4162846577728
 31
0
 12
-117.5
 22
129.5837153422272
 32
0
 13
-117.5
 23
129.5837153422272
 33
0
  0
SOLID
  5
D0
100
AcDbEntity
  8
Measures
  6
ByBlock
 62
    0
370
   -2
100
AcDbTrace
 10
-20
 20
130
 30
0
 11
-22.5
 21
129.5837153422272
 31
0
 12
-22.5
 22
130.4162846577728
 32
0
 13
-22.5
 23
130.4162846577728
 33
0
  0
MTEXT
  5
D1
100
AcDbEntity
  8
Measures
  6
CONTINUOUS
 62
    0
370
   -2
100
AcDbMText
 10
-70
 20
131.875
 30
0
 40
2.5
 41
7.222222222222222
 71
    5
 72
    1
  1
100.0
  7
standard
210
0
220
0
230
1
 50
0
 73
    2
 44
1
  0
LINE
  5
D2
100
AcDbEntity
  8
Measures
  6
ByBlock
 62
    0
370
   -2
100
AcDbLine
 10
-120
 20
110.625
 11
-120
 21
131.25
  0
LINE
  5
D3
100
AcDbEntity
  8
Measures
  6
ByBlock
 62
    0
370
   -2
100
AcDbLine
 10
-20
 20
100.625
 11
-20
 21
131.25
  0
ENDBLK
  5
70
330
6E
100
AcDbEntity
  8
0
100
AcDbBlockEnd
  0
BLOCK
  5
72
330
71
100
AcDbEntity
  8
0
100
AcDbBlockBegin
  2
*D16
 70
    1
 10
0
 20
0
  3
*D16
  1

  0
LINE
  5
D4
100
AcDbEntity
  8
Measures
  6
ByBlock
 62
    0
370
   -2
100
AcDbLine
 10
-160
 20
-75
 11
-160
 21
-20
  0
SOLID
  5
D5
100
AcDbEntity
  8
Measures
  6
ByBlock
 62
    0
370
   -2
100
AcDbTrace
 10
-160
 20
-75
 30
0
 11
-160.4162846577728
 21
-72.5
 31
0
 12
-159.5837153422272
 22
-72.5
 32
0
 13
-159.5837153422272
 23
-72.5
 33
0
  0
SOLID
  5
D6
100
AcDbEntity
  8
Measures
  6
ByBlock
 62
    0
370
   -2
100
AcDbTrace
 10
-160
 20
-20
 30
0
 11
-159.5837153422272
 21
-22.5
 31
0
 12
-160.4162846577728
 22
-22.5
 32
0
 13
-160.4162846577728
 23
-22.5
 33
0
  0
MTEXT
  5
D7
100
AcDbEntity
  8
Measures
  6
CONTINUOUS
 62
    0
370
   -2
100
AcDbMText
 10
-161.875
 20
-47.5
 30
0
 40
2.5
 41
5.833333333333643
 71
    5
 72
    1
  1
55.0
  7
standard
210
0
220
0
230
1
 50
90
 73
    2
 44
1
  0
LINE
  5
D8
100
AcDbEntity
  8
Measures
  6
ByBlock
 62
    0
370
   -2
100
AcDbLine
 10
-159.5207500000016
 20
-75
 11
-161.25
 21
-75
  0
LINE
  5
D9
100
AcDbEntity
  8
Measures
  6
ByBlock
 62
    0
370
   -2
100
AcDbLine
 10
-159.6920000000016
 20
-20
 11
-158.75
 21
-20
  0
ENDBLK
  5
73
330
71
100
AcDbEntity
  8
0
100
AcDbBlockEnd
  0
BLOCK
  5
75
330
74
100
AcDbEntity
  8
0
100
AcDbBlockBegin
  2
*D14
 70
    1
 10
0
 20
0
  3
*D14
  1

  0
LINE
  5
DA
100
AcDbEntity
  8
Measures
  6
ByBlock
 62
    0
370
   -2
100
AcDbLine
 10
-200
 20
-56.28150000000056
 11
-220
 21
-56.28150000000056
  0
SOLID
  5
DB
100
AcDbEntity
  8
Measures
  6
ByBlock
 62
    0
370
   -2
100
AcDbTrace
 10
-200
 20
-56.28150000000056
 30
0
 11
-202.5
 21
-56.6977846577734
 31
0
 12
-202.5
 22
-55.86521534222772
 32
0
 13
-202.5
 23
-55.86521534222772
 33
0
  0
SOLID
  5
DC
100
AcDbEntity
  8
Measures
  6
ByBlock
 62
    0
370
   -2
100
AcDbTrace
 10
-220
 20
-56.28150000000056
 30
0
 11
-217.5
 21
-55.86521534222772
 31
0
 12
-217.5
 22
-56.6977846577734
 32
0
 13
-217.5
 23
-56.6977846577734
 33
0
  0
MTEXT
  5
DD
100
AcDbEntity
  8
Measures
  6
CONTINUOUS
 62
    0
370
   -2
100
AcDbMText
 10
-210
 20
-54.40650000000056
 30
0
 40
2.5
 41
5.833333333333334
 71
    5
 72
    1
  1
20.0
  7
standard
210
0
220
0
230
1
 50
360
 73
    2
 44
1
  0
LINE
  5
DE
100
AcDbEntity
  8
Measures
  6
ByBlock
 62
    0
370
   -2
100
AcDbLine
 10
-200
 20
-40.625
 11
-200
 21
-57.53150000000056
  0
LINE
  5
DF
100
AcDbEntity
  8
Measures
  6
ByBlock
 62
    0
370
   -2
100
AcDbLine
 10
-220
 20
-40.625
 11
-220
 21
-57.53150000000056
  0
ENDBLK
  5
76
330
74
100
AcDbEntity
  8
0
100
AcDbBlockEnd
  0
BLOCK
  5
78
330
77
100
AcDbEntity
  8
0
100
AcDbBlockBegin
  2
*D18
 70
    1
 10
0
 20
0
  3
*D18
  1

  0
LINE
  5
E0
100
AcDbEntity
  8
Measures
  6
ByBlock
 62
    0
370
   -2
100
AcDbLine
 10
-240
 20
-85
 11
-240
 21
-75
  0
SOLID
  5
E1
100
AcDbEntity
  8
Measures
  6
ByBlock
 62
    0
370
   -2
100
AcDbTrace
 10
-240
 20
-85
 30
0
 11
-240.4162846577728
 21
-82.5
 31
0
 12
-239.5837153422272
 22
-82.5
 32
0
 13
-239.5837153422272
 23
-82.5
 33
0
  0
SOLID
  5
E2
100
AcDbEntity
  8
Measures
  6
ByBlock
 62
    0
370
   -2
100
AcDbTrace
 10
-240
 20
-75
 30
0
 11
-239.5837153422272
 21
-77.5
 31
0
 12
-240.4162846577728
 22
-77.5
 32
0
 13
-240.4162846577728
 23
-77.5
 33
0
  0
MTEXT
  5
E3
100
AcDbEntity
  8
Measures
  6
CONTINUOUS
 62
    0
370
   -2
100
AcDbMText
 10
-241.875
 20
-80
 30
0
 40
2.5
 41
5.277777777777778
 71
    5
 72
    1
  1
10.0
  7
standard
210
0
220
0
230
1
 50
90
 73
    2
 44
1
  0
LINE
  5
E4
100
AcDbEntity
  8
Measures
  6
ByBlock
 62
    0
370
   -2
100
AcDbLine
 10
-220.625
 20
-85
 11
-241.25
 21
-85
  0
LINE
  5
E5
100
AcDbEntity
  8
Measures
  6
ByBlock
 62
    0
370
   -2
100
AcDbLine
 10
-220.625
 20
-75
 11
-241.25
 21
-75
  0
ENDBLK
  5
79
330
77
100
AcDbEntity
  8
0
100
AcDbBlockEnd
  0
BLOCK
  5
7B
330
7A
100
AcDbEntity
  8
0
100
AcDbBlockBegin
  2
*D11
 70
    1
 10
0
 20
0
  3
*D11
  1

  0
SOLID
  5
E6
100
AcDbEntity
  8
Measures
  6
ByBlock
 62
    0
370
   -2
100
AcDbTrace
 10
-125.5061107831458
 20
57.36827294544366
 30
0
 11
-123.8307666439519
 21
59.26998662830068
 31
0
 12
-123.3049272265533
 22
58.62449102622572
 32
0
 13
-123.3049272265533
 23
58.62449102622572
 33
0
  0
LINE
  5
E7
100
AcDbEntity
  8
Measures
  6
ByBlock
 62
    0
370
   -2
100
AcDbLine
 10
-110
 20
70
 11
-125.5061107831458
 21
57.36827294544366
  0
MTEXT
  5
E8
100
AcDbEntity
  8
Measures
  6
CONTINUOUS
 62
    0
370
   -2
100
AcDbMText
 10
-118.9372798029375
 20
65.13783435864175
 30
0
 40
2.5
 41
5.833333333333334
 71
    5
 72
    1
  1
20.0
  7
standard
210
0
220
0
230
1
 50
39.16725797673809
 73
    2
 44
1
  0
ENDBLK
  5
7C
330
7A
100
AcDbEntity
  8
0
100
AcDbBlockEnd
  0
BLOCK
  5
7E
330
7D
100
AcDbEntity
  8
0
100
AcDbBlockBegin
  2
*D10
 70
    1
 10
0
 20
0
  3
*D10
  1

  0
LINE
  5
E9
100
AcDbEntity
  8
Measures
  6
ByBlock
 62
    0
370
   -2
100
AcDbLine
 10
-240
 20
50
 11
-240
 21
110
  0
SOLID
  5
EA
100
AcDbEntity
  8
Measures
  6
ByBlock
 62
    0
370
   -2
100
AcDbTrace
 10
-240
 20
50
 30
0
 11
-240.4162846577728
 21
52.5
 31
0
 12
-239.5837153422272
 22
52.5
 32
0
 13
-239.5837153422272
 23
52.5
 33
0
  0
SOLID
  5
EB
100
AcDbEntity
  8
Measures
  6
ByBlock
 62
    0
370
   -2
100
AcDbTrace
 10
-240
 20
110
 30
0
 11
-239.5837153422272
 21
107.5
 31
0
 12
-240.4162846577728
 22
107.5
 32
0
 13
-240.4162846577728
 23
107.5
 33
0
  0
MTEXT
  5
EC
100
AcDbEntity
  8
Measures
  6
CONTINUOUS
 62
    0
370
   -2
100
AcDbMText
 10
-241.875
 20
80
 30
0
 40
2.5
 41
5.833333333333488
 71
    5
 72
    1
  1
60.0
  7
standard
210
0
220
0
230
1
 50
90
 73
    2
 44
1
  0
LINE
  5
ED
100
AcDbEntity
  8
Measures
  6
ByBlock
 62
    0
370
   -2
100
AcDbLine
 10
-220.625
 20
50
 11
-241.25
 21
50
  0
LINE
  5
EE
100
AcDbEntity
  8
Measures
  6
ByBlock
 62
    0
370
   -2
100
AcDbLine
 10
-120.625
 20
110
 11
-241.25
 21
110
  0
ENDBLK
  5
7F
330
7D
100
AcDbEntity
  8
0
100
AcDbBlockEnd
  0
BLOCK
  5
81
330
80
100
AcDbEntity
  8
0
100
AcDbBlockBegin
  2
*D12
 70
    1
 10
0
 20
0
  3
*D12
  1

  0
SOLID
  5
EF
100
AcDbEntity
  8
Measures
  6
ByBlock
 62
    0
370
   -2
100
AcDbTrace
 10
-48.35899411324313
 20
58.90599607549541
 30
0
 11
-50.67003303043988
 21
59.94637679403026
 31
0
 12
-50.20820666773559
 22
60.6391163380867
 32
0
 13
-50.20820666773559
 23
60.6391163380867
 33
0
  0
LINE
  5
F0
100
AcDbEntity
  8
Measures
  6
ByBlock
 62
    0
370
   -2
100
AcDbLine
 10
-65
 20
70
 11
-48.35899411324313
 21
58.9059960754954
  0
MTEXT
  5
F1
100
AcDbEntity
  8
Measures
  6
CONTINUOUS
 62
    0
370
   -2
100
AcDbMText
 10
-55.63943418869925
 20
66.01309233963116
 30
0
 40
2.5
 41
5.833333333333334
 71
    5
 72
    1
  1
20.0
  7
standard
210
0
220
0
230
1
 50
326.3099324740202
 73
    2
 44
1
  0
ENDBLK
  5
82
330
80
100
AcDbEntity
  8
0
100
AcDbBlockEnd
  0
BLOCK
  5
84
330
83
100
AcDbEntity
  8
0
100
AcDbBlockBegin
  2
*D7
 70
    1
 10
0
 20
0
  3
*D7
  1

  0
LINE
  5
F2
100
AcDbEntity
  8
Measures
  6
ByBlock
 62
    0
370
   -2
100
AcDbLine
 10
-20
 20
40
 11
-64.99999923594113
 21
40
  0
SOLID
  5
F3
100
AcDbEntity
  8
Measures
  6
ByBlock
 62
    0
370
   -2
100
AcDbTrace
 10
-20
 20
40
 30
0
 11
-22.5
 21
39.58371534222716
 31
0
 12
-22.5
 22
40.41628465777284
 32
0
 13
-22.5
 23
40.41628465777284
 33
0
  0
SOLID
  5
F4
100
AcDbEntity
  8
Measures
  6
ByBlock
 62
    0
370
   -2
100
AcDbTrace
 10
-64.99999923594113
 20
40
 30
0
 11
-62.49999923594113
 21
40.41628465777284
 31
0
 12
-62.49999923594113
 22
39.58371534222716
 32
0
 13
-62.49999923594113
 23
39.58371534222716
 33
0
  0
MTEXT
  5
F5
100
AcDbEntity
  8
Measures
  6
CONTINUOUS
 62
    0
370
   -2
100
AcDbMText
 10
-42.49999961797057
 20
41.875
 30
0
 40
2.5
 41
6.111111111111267
 71
    5
 72
    1
  1
45.0
  7
standard
210
0
220
0
230
1
 50
360
 73
    2
 44
1
  0
LINE
  5
F6
100
AcDbEntity
  8
Measures
  6
ByBlock
 62
    0
370
   -2
100
AcDbLine
 10
-20
 20
39.375
 11
-20
 21
38.75
  0
LINE
  5
F7
100
AcDbEntity
  8
Measures
  6
ByBlock
 62
    0
370
   -2
100
AcDbLine
 10
-64.99999923594113
 20
49.37500000000001
 11
-64.99999923594113
 21
38.75
  0
ENDBLK
  5
85
330
83
100
AcDbEntity
  8
0
100
AcDbBlockEnd
  0
BLOCK
  5
87
330
86
100
AcDbEntity
  8
0
100
AcDbBlockBegin
  2
*D13
 70
    1
 10
0
 20
0
  3
*D13
  1

  0
LINE
  5
F8
100
AcDbEntity
  8
Measures
  6
ByBlock
 62
    0
370
   -2
100
AcDbLine
 10
-220
 20
-170
 11
-20
 21
-170
  0
SOLID
  5
F9
100
AcDbEntity
  8
Measures
  6
ByBlock
 62
    0
370
   -2
100
AcDbTrace
 10
-220
 20
-170
 30
0
 11
-217.5
 21
-169.5837153422272
 31
0
 12
-217.5
 22
-170.4162846577728
 32
0
 13
-217.5
 23
-170.4162846577728
 33
0
  0
SOLID
  5
FA
100
AcDbEntity
  8
Measures
  6
ByBlock
 62
    0
370
   -2
100
AcDbTrace
 10
-20
 20
-170
 30
0
 11
-22.5
 21
-170.4162846577728
 31
0
 12
-22.5
 22
-169.5837153422272
 32
0
 13
-22.5
 23
-169.5837153422272
 33
0
  0
MTEXT
  5
FB
100
AcDbEntity
  8
Measures
  6
CONTINUOUS
 62
    0
370
   -2
100
AcDbMText
 10
-120
 20
-168.125
 30
0
 40
2.5
 41
7.777777777777779
 71
    5
 72
    1
  1
200.0
  7
standard
210
0
220
0
230
1
 50
0
 73
    2
 44
1
  0
LINE
  5
FC
100
AcDbEntity
  8
Measures
  6
ByBlock
 62
    0
370
   -2
100
AcDbLine
 10
-220
 20
-101.0902203267377
 11
-220
 21
-171.25
  0
LINE
  5
FD
100
AcDbEntity
  8
Measures
  6
ByBlock
 62
    0
370
   -2
100
AcDbLine
 10
-20
 20
-100.5500847335832
 11
-20
 21
-171.25
  0
ENDBLK
  5
88
330
86
100
AcDbEntity
  8
0
100
AcDbBlockEnd
  0
BLOCK
  5
8A
330
89
100
AcDbEntity
  8
0
100
AcDbBlockBegin
  2
Projection-EU
 70
    0
 10
0
 20
0
  3
Projection-EU
  1

  0
CIRCLE
  5
FE
100
AcDbEntity
  8
0
  6
ByLayer
 62
  256
370
   -1
100
AcDbCircle
 10
0
 20
0
 40
4
  0
CIRCLE
  5
FF
100
AcDbEntity
  8
0
  6
ByLayer
 62
  256
370
   -1
100
AcDbCircle
 10
0
 20
0
 40
2.5
  0
LINE
  5
100
100
AcDbEntity
  8
0
  6
ByLayer
 62
  256
370
   -1
100
AcDbLine
 10
-5.5
 20
4
 11
-16
 21
2.5
  0
LINE
  5
101
100
AcDbEntity
  8
0
  6
ByLayer
 62
  256
370
   -1
100
AcDbLine
 10
-16
 20
2.5
 11
-16
 21
-2.499999999999996
  0
LINE
  5
102
100
AcDbEntity
  8
0
  6
ByLayer
 62
  256
370
   -1
100
AcDbLine
 10
-16
 20
-2.499999999999996
 11
-5.5
 21
-3.999999999999999
  0
LINE
  5
103
100
AcDbEntity
  8
0
  6
ByLayer
 62
  256
370
   -1
100
AcDbLine
 10
-5.5
 20
-3.999999999999999
 11
-5.5
 21
4
  0
ENDBLK
  5
8B
330
89
100
AcDbEntity
  8
0
100
AcDbBlockEnd
  0
BLOCK
  5
8D
330
8C
100
AcDbEntity
  8
0
100
AcDbBlockBegin
  2
Projection-EU-0
 70
    0
 10
0
 20
0
  3
Projection-EU-0
  1

  0
CIRCLE
  5
104
100
AcDbEntity
  8
0
  6
ByLayer
 62
  256
370
   -1
100
AcDbCircle
 10
0
 20
0
 40
4
  0
CIRCLE
  5
105
100
AcDbEntity
  8
0
  6
ByLayer
 62
  256
370
   -1
100
AcDbCircle
 10
0
 20
0
 40
2.5
  0
LINE
  5
106
100
AcDbEntity
  8
0
  6
ByLayer
 62
  256
370
   -1
100
AcDbLine
 10
-5.5
 20
4
 11
-16
 21
2.5
  0
LINE
  5
107
100
AcDbEntity
  8
0
  6
ByLayer
 62
  256
370
   -1
100
AcDbLine
 10
-16
 20
2.5
 11
-16
 21
-2.499999999999996
  0
LINE
  5
108
100
AcDbEntity
  8
0
  6
ByLayer
 62
  256
370
   -1
100
AcDbLine
 10
-16
 20
-2.499999999999996
 11
-5.5
 21
-3.999999999999999
  0
LINE
  5
109
100
AcDbEntity
  8
0
  6
ByLayer
 62
  256
370
   -1
100
AcDbLine
 10
-5.5
 20
-3.999999999999999
 11
-5.5
 21
4
  0
ENDBLK
  5
8E
330
8C
100
AcDbEntity
  8
0
100
AcDbBlockEnd
  0
BLOCK
  5
90
330
8F
100
AcDbEntity
  8
0
100
AcDbBlockBegin
  2
Projection-EU-1
 70
    0
 10
0
 20
0
  3
Projection-EU-1
  1

  0
CIRCLE
  5
10A
100
AcDbEntity
  8
0
  6
ByLayer
 62
  256
370
   -1
100
AcDbCircle
 10
0
 20
0
 40
4
  0
CIRCLE
  5
10B
100
AcDbEntity
  8
0
  6
ByLayer
 62
  256
370
   -1
100
AcDbCircle
 10
0
 20
0
 40
2.5
  0
LINE
  5
10C
100
AcDbEntity
  8
0
  6
ByLayer
 62
  256
370
   -1
100
AcDbLine
 10
-5.5
 20
4
 11
-16
 21
2.5
  0
LINE
  5
10D
100
AcDbEntity
  8
0
  6
ByLayer
 62
  256
370
   -1
100
AcDbLine
 10
-16
 20
2.5
 11
-16
 21
-2.499999999999996
  0
LINE
  5
10E
100
AcDbEntity
  8
0
  6
ByLayer
 62
  256
370
   -1
100
AcDbLine
 10
-16
 20
-2.499999999999996
 11
-5.5
 21
-3.999999999999999
  0
LINE
  5
10F
100
AcDbEntity
  8
0
  6
ByLayer
 62
  256
370
   -1
100
AcDbLine
 10
-5.5
 20
-3.999999999999999
 11
-5.5
 21
4
  0
LINE
  5
110
100
AcDbEntity
  8
Centerline-symbol
  6
ByLayer
 62
  256
370
   -1
100
AcDbLine
 10
-17
 20
0
 11
5
 21
0
  0
LINE
  5
111
100
AcDbEntity
  8
Centerline-symbol
  6
ByLayer
 62
  256
370
   -1
100
AcDbLine
 10
9.71445146547012e-017
 20
4.5
 11
-9.71445146547012e-017
 21
-4.5
  0
ENDBLK
  5
91
330
8F
100
AcDbEntity
  8
0
100
AcDbBlockEnd
  0
BLOCK
  5
93
330
92
100
AcDbEntity
  8
0
100
AcDbBlockBegin
  2
A4-frame-large-no-layers
 70
    0
 10
0
 20
0
  3
A4-frame-large-no-layers
  1

  0
LWPOLYLINE
  5
112
100
AcDbEntity
  8
0
  6
ByLayer
 62
  256
370
   -1
100
AcDbPolyline
 90
    4
 70
    1
 43
0
 10
-292
 20
-292
 10
816
 20
-292
 10
816
 20
468
 10
-292
 20
468
  0
LINE
  5
113
100
AcDbEntity
  8
0
  6
ByLayer
 62
  256
370
   -1
100
AcDbLine
 10
-292
 20
-292
 11
-292
 21
-300
  0
LINE
  5
114
100
AcDbEntity
  8
0
  6
ByLayer
 62
  256
370
   -1
100
AcDbLine
 10
-292
 20
-300
 11
-292
 21
-292
  0
LINE
  5
115
100
AcDbEntity
  8
0
  6
ByLayer
 62
  256
370
   -1
100
AcDbLine
 10
-292
 20
-292
 11
-300
 21
-292
  0
LINE
  5
116
100
AcDbEntity
  8
0
  6
ByLayer
 62
  256
370
   -1
100
AcDbLine
 10
376
 20
-292
 11
376
 21
-132
  0
LINE
  5
117
100
AcDbEntity
  8
0
  6
ByLayer
 62
  256
370
   -1
100
AcDbLine
 10
376
 20
-132
 11
816
 21
-132
  0
LINE
  5
118
100
AcDbEntity
  8
0
  6
ByLayer
 62
  256
370
   -1
100
AcDbLine
 10
496
 20
-292
 11
496
 21
-132
  0
LINE
  5
119
100
AcDbEntity
  8
0
  6
ByLayer
 62
  256
370
   -1
100
AcDbLine
 10
696
 20
-292
 11
696
 21
-132
  0
LINE
  5
11A
100
AcDbEntity
  8
0
  6
ByLayer
 62
  256
370
   -1
100
AcDbLine
 10
376
 20
-252
 11
816
 21
-252
  0
LINE
  5
11B
100
AcDbEntity
  8
0
  6
ByLayer
 62
  256
370
   -1
100
AcDbLine
 10
696
 20
-212
 11
816
 21
-212
  0
LINE
  5
11C
100
AcDbEntity
  8
0
  6
ByLayer
 62
  256
370
   -1
100
AcDbLine
 10
496
 20
-172
 11
816
 21
-172
  0
MTEXT
  5
11D
100
AcDbEntity
  8
0
  6
ByLayer
 62
  256
370
   -1
100
AcDbMText
 10
381.1622220396096
 20
-137.0763805715452
 30
0
 40
8
 41
30.22222222222259
 71
    1
 72
    1
  1
Owner
  7
standard
210
0
220
0
230
1
 50
0
 73
    2
 44
1
  0
MTEXT
  5
11E
100
AcDbEntity
  8
0
  6
ByLayer
 62
  256
370
   -1
100
AcDbMText
 10
381.6529155897224
 20
-257.6074155506886
 30
0
 40
8
 41
25.77777608176095
 71
    1
 72
    1
  1
Scale
  7
standard
210
0
220
0
230
1
 50
0
 73
    2
 44
1
  0
MTEXT
  5
11F
100
AcDbEntity
  8
0
  6
ByLayer
 62
  256
370
   -1
100
AcDbMText
 10
502.1547631118136
 20
-136.4384760172742
 30
0
 40
8
 41
37.33333333333371
 71
    1
 72
    1
  1
Project
  7
standard
210
0
220
0
230
1
 50
0
 73
    2
 44
1
  0
MTEXT
  5
120
100
AcDbEntity
  8
0
  6
ByLayer
 62
  256
370
   -1
100
AcDbMText
 10
500.5727815119892
 20
-179.1519792125312
 30
0
 40
8
 41
54.88888888889001
 71
    1
 72
    1
  1
Part Name
  7
standard
210
0
220
0
230
1
 50
0
 73
    2
 44
1
  0
MTEXT
  5
121
100
AcDbEntity
  8
0
  6
ByLayer
 62
  256
370
   -1
100
AcDbMText
 10
700.429790289796
 20
-135.9111488173328
 30
0
 40
8
 41
40.88889300318683
 71
    1
 72
    1
  1
Revision
  7
standard
210
0
220
0
230
1
 50
0
 73
    2
 44
1
  0
MTEXT
  5
122
100
AcDbEntity
  8
0
  6
ByLayer
 62
  256
370
   -1
100
AcDbMText
 10
699.9024630898556
 20
-178.0973248126482
 30
0
 40
8
 41
38.22222222222359
 71
    1
 72
    1
  1
Date/ID
  7
standard
210
0
220
0
230
1
 50
0
 73
    2
 44
1
  0
MTEXT
  5
123
100
AcDbEntity
  8
0
  6
ByLayer
 62
  256
370
   -1
100
AcDbMText
 10
699.70543967143
 20
-215.9576802542747
 30
0
 40
8
 41
43.55555966985438
 71
    1
 72
    1
  1
Designer
  7
standard
210
0
220
0
230
1
 50
0
 73
    2
 44
1
  0
LINE
  5
124
100
AcDbEntity
  8
0
  6
ByLayer
 62
  256
370
   -1
100
AcDbLine
 10
-92
 20
-300
 11
-92
 21
-292
  0
LINE
  5
125
100
AcDbEntity
  8
0
  6
ByLayer
 62
  256
370
   -1
100
AcDbLine
 10
108
 20
-300
 11
108
 21
-292
  0
LINE
  5
126
100
AcDbEntity
  8
0
  6
ByLayer
 62
  256
370
   -1
100
AcDbLine
 10
308
 20
-300
 11
308
 21
-292
  0
LINE
  5
127
100
AcDbEntity
  8
0
  6
ByLayer
 62
  256
370
   -1
100
AcDbLine
 10
508
 20
-300
 11
508
 21
-292
  0
LINE
  5
128
100
AcDbEntity
  8
0
  6
ByLayer
 62
  256
370
   -1
100
AcDbLine
 10
708
 20
-300
 11
708
 21
-292
  0
LINE
  5
129
100
AcDbEntity
  8
0
  6
ByLayer
 62
  256
370
   -1
100
AcDbLine
 10
-292
 20
-92
 11
-300
 21
-92
  0
LINE
  5
12A
100
AcDbEntity
  8
0
  6
ByLayer
 62
  256
370
   -1
100
AcDbLine
 10
-292
 20
108
 11
-300
 21
108
  0
LINE
  5
12B
100
AcDbEntity
  8
0
  6
ByLayer
 62
  256
370
   -1
100
AcDbLine
 10
-292
 20
308
 11
-300
 21
308
  0
LINE
  5
12C
100
AcDbEntity
  8
0
  6
ByLayer
 62
  256
370
   -1
100
AcDbLine
 10
824
 20
-300
 11
824
 21
476
  0
LINE
  5
12D
100
AcDbEntity
  8
0
  6
ByLayer
 62
  256
370
   -1
100
AcDbLine
 10
-300
 20
-300
 11
824
 21
-300
  0
LINE
  5
12E
100
AcDbEntity
  8
0
  6
ByLayer
 62
  256
370
   -1
100
AcDbLine
 10
-300
 20
-300
 11
-300
 21
476
  0
LINE
  5
12F
100
AcDbEntity
  8
0
  6
ByLayer
 62
  256
370
   -1
100
AcDbLine
 10
824
 20
476
 11
-300
 21
476
  0
LINE
  5
130
100
AcDbEntity
  8
0
  6
ByLayer
 62
  256
370
   -1
100
AcDbLine
 10
496
 20
-212
 11
376
 21
-212
  0
LINE
  5
131
100
AcDbEntity
  8
0
  6
ByLayer
 62
  256
370
   -1
100
AcDbLine
 10
-92
 20
476
 11
-92
 21
468
  0
LINE
  5
132
100
AcDbEntity
  8
0
  6
ByLayer
 62
  256
370
   -1
100
AcDbLine
 10
108
 20
476
 11
108
 21
468
  0
LINE
  5
133
100
AcDbEntity
  8
0
  6
ByLayer
 62
  256
370
   -1
100
AcDbLine
 10
308
 20
476
 11
308
 21
468
  0
LINE
  5
134
100
AcDbEntity
  8
0
  6
ByLayer
 62
  256
370
   -1
100
AcDbLine
 10
508
 20
476
 11
508
 21
468
  0
LINE
  5
135
100
AcDbEntity
  8
0
  6
ByLayer
 62
  256
370
   -1
100
AcDbLine
 10
708
 20
476
 11
708
 21
468
  0
LINE
  5
136
100
AcDbEntity
  8
0
  6
ByLayer
 62
  256
370
   -1
100
AcDbLine
 10
816
 20
-91.99999999999989
 11
824
 21
-91.99999999999989
  0
LINE
  5
137
100
AcDbEntity
  8
0
  6
ByLayer
 62
  256
370
   -1
100
AcDbLine
 10
816
 20
108
 11
824
 21
108
  0
LINE
  5
138
100
AcDbEntity
  8
0
  6
ByLayer
 62
  256
370
   -1
100
AcDbLine
 10
816
 20
308
 11
824
 21
308
  0
INSERT
  5
139
100
AcDbEntity
  8
0
  6
ByLayer
 62
  256
370
   -1
100
AcDbBlockReference
  2
Projection-EU-1
 10
463.6799999999999
 20
-231.9668
 30
0
 41
4
 42
4
 43
0
 50
0
 70
    1
 71
    1
 44
0
 45
0
  0
MTEXT
  5
13A
100
AcDbEntity
  8
0
  6
ByLayer
 62
  256
370
   -1
100
AcDbMText
 10
-296
 20
-184
 30
0
 40
4
 41
0.8888888888888888
 71
    4
 72
    1
  1
1
  7
standard
210
0
220
0
230
1
 50
90
 73
    2
 44
1
  0
MTEXT
  5
13B
100
AcDbEntity
  8
0
  6
ByLayer
 62
  256
370
   -1
100
AcDbMText
 10
-296
 20
8
 30
0
 40
4
 41
1.777777777777778
 71
    4
 72
    1
  1
2
  7
standard
210
0
220
0
230
1
 50
90
 73
    2
 44
1
  0
MTEXT
  5
13C
100
AcDbEntity
  8
0
  6
ByLayer
 62
  256
370
   -1
100
AcDbMText
 10
-296
 20
208
 30
0
 40
4
 41
1.777777777778026
 71
    4
 72
    1
  1
3
  7
standard
210
0
220
0
230
1
 50
90
 73
    2
 44
1
  0
MTEXT
  5
13D
100
AcDbEntity
  8
0
  6
ByLayer
 62
  256
370
   -1
100
AcDbMText
 10
-296
 20
388
 30
0
 40
4
 41
2.222222222222222
 71
    4
 72
    1
  1
4
  7
standard
210
0
220
0
230
1
 50
90
 73
    2
 44
1
  0
MTEXT
  5
13E
100
AcDbEntity
  8
0
  6
ByLayer
 62
  256
370
   -1
100
AcDbMText
 10
768
 20
-296
 30
0
 40
4
 41
2.666666666666667
 71
    5
 72
    1
  1
A
  7
standard
210
0
220
0
230
1
 50
0
 73
    2
 44
1
  0
MTEXT
  5
13F
100
AcDbEntity
  8
0
  6
ByLayer
 62
  256
370
   -1
100
AcDbMText
 10
604
 20
-296
 30
0
 40
4
 41
2.222222222222222
 71
    5
 72
    1
  1
B
  7
standard
210
0
220
0
230
1
 50
0
 73
    2
 44
1
  0
MTEXT
  5
140
100
AcDbEntity
  8
0
  6
ByLayer
 62
  256
370
   -1
100
AcDbMText
 10
408
 20
-296
 30
0
 40
4
 41
1.777777777778026
 71
    5
 72
    1
  1
C
  7
standard
210
0
220
0
230
1
 50
0
 73
    2
 44
1
  0
MTEXT
  5
141
100
AcDbEntity
  8
0
  6
ByLayer
 62
  256
370
   -1
100
AcDbMText
 10
208
 20
-296
 30
0
 40
4
 41
2.22222222222247
 71
    5
 72
    1
  1
D
  7
standard
210
0
220
0
230
1
 50
0
 73
    2
 44
1
  0
MTEXT
  5
142
100
AcDbEntity
  8
0
  6
ByLayer
 62
  256
370
   -1
100
AcDbMText
 10
7.999999999999886
 20
-296
 30
0
 40
4
 41
1.777777777777778
 71
    5
 72
    1
  1
E
  7
standard
210
0
220
0
230
1
 50
0
 73
    2
 44
1
  0
MTEXT
  5
143
100
AcDbEntity
  8
0
  6
ByLayer
 62
  256
370
   -1
100
AcDbMText
 10
-200
 20
-296
 30
0
 40
4
 41
1.777777777777778
 71
    5
 72
    1
  1
F
  7
standard
210
0
220
0
230
1
 50
0
 73
    2
 44
1
  0
MTEXT
  5
144
100
AcDbEntity
  8
0
  6
ByLayer
 62
  256
370
   -1
100
AcDbMText
 10
820
 20
-184
 30
0
 40
4
 41
0.8888888888888888
 71
    6
 72
    1
  1
1
  7
standard
210
0
220
0
230
1
 50
0
 73
    2
 44
1
  0
MTEXT
  5
145
100
AcDbEntity
  8
0
  6
ByLayer
 62
  256
370
   -1
100
AcDbMText
 10
820
 20
8
 30
0
 40
4
 41
1.777777777777778
 71
    6
 72
    1
  1
2
  7
standard
210
0
220
0
230
1
 50
0
 73
    2
 44
1
  0
MTEXT
  5
146
100
AcDbEntity
  8
0
  6
ByLayer
 62
  256
370
   -1
100
AcDbMText
 10
820
 20
208
 30
0
 40
4
 41
1.777777777778026
 71
    6
 72
    1
  1
3
  7
standard
210
0
220
0
230
1
 50
0
 73
    2
 44
1
  0
MTEXT
  5
147
100
AcDbEntity
  8
0
  6
ByLayer
 62
  256
370
   -1
100
AcDbMText
 10
820
 20
388
 30
0
 40
4
 41
2.222222222222222
 71
    6
 72
    1
  1
4
  7
standard
210
0
220
0
230
1
 50
0
 73
    2
 44
1
  0
MTEXT
  5
148
100
AcDbEntity
  8
0
  6
ByLayer
 62
  256
370
   -1
100
AcDbMText
 10
768
 20
472
 30
0
 40
4
 41
2.666666666666667
 71
    5
 72
    1
  1
A
  7
standard
210
0
220
0
230
1
 50
90
 73
    2
 44
1
  0
MTEXT
  5
149
100
AcDbEntity
  8
0
  6
ByLayer
 62
  256
370
   -1
100
AcDbMText
 10
604
 20
472
 30
0
 40
4
 41
2.222222222222222
 71
    5
 72
    1
  1
B
  7
standard
210
0
220
0
230
1
 50
90
 73
    2
 44
1
  0
MTEXT
  5
14A
100
AcDbEntity
  8
0
  6
ByLayer
 62
  256
370
   -1
100
AcDbMText
 10
408
 20
472
 30
0
 40
4
 41
1.777777777778026
 71
    5
 72
    1
  1
C
  7
standard
210
0
220
0
230
1
 50
90
 73
    2
 44
1
  0
MTEXT
  5
14B
100
AcDbEntity
  8
0
  6
ByLayer
 62
  256
370
   -1
100
AcDbMText
 10
208
 20
472
 30
0
 40
4
 41
2.22222222222247
 71
    5
 72
    1
  1
D
  7
standard
210
0
220
0
230
1
 50
90
 73
    2
 44
1
  0
MTEXT
  5
14C
100
AcDbEntity
  8
0
  6
ByLayer
 62
  256
370
   -1
100
AcDbMText
 10
8
 20
472
 30
0
 40
4
 41
1.777777777777778
 71
    5
 72
    1
  1
E
  7
standard
210
0
220
0
230
1
 50
90
 73
    2
 44
1
  0
MTEXT
  5
14D
100
AcDbEntity
  8
0
  6
ByLayer
 62
  256
370
   -1
100
AcDbMText
 10
-200
 20
472
 30
0
 40
4
 41
1.777777777777778
 71
    5
 72
    1
  1
F
  7
standard
210
0
220
0
230
1
 50
90
 73
    2
 44
1
  0
LINE
  5
14E
100
AcDbEntity
  8
0
  6
ByLayer
 62
  256
370
   -1
100
AcDbLine
 10
-292
 20
468
 11
-300
 21
468
  0
LINE
  5
14F
100
AcDbEntity
  8
0
  6
ByLayer
 62
  256
370
   -1
100
AcDbLine
 10
-300
 20
468
 11
-292
 21
468
  0
LINE
  5
150
100
AcDbEntity
  8
0
  6
ByLayer
 62
  256
370
   -1
100
AcDbLine
 10
-292
 20
468
 11
-292
 21
476
  0
LINE
  5
151
100
AcDbEntity
  8
0
  6
ByLayer
 62
  256
370
   -1
100
AcDbLine
 10
816
 20
468
 11
824
 21
468
  0
LINE
  5
152
100
AcDbEntity
  8
0
  6
ByLayer
 62
  256
370
   -1
100
AcDbLine
 10
816
 20
468
 11
816
 21
476
  0
LINE
  5
153
100
AcDbEntity
  8
0
  6
ByLayer
 62
  256
370
   -1
100
AcDbLine
 10
816
 20
-292
 11
824
 21
-292
  0
LINE
  5
154
100
AcDbEntity
  8
0
  6
ByLayer
 62
  256
370
   -1
100
AcDbLine
 10
816
 20
-292
 11
816
 21
-300
  0
MTEXT
  5
155
100
AcDbEntity
  8
0
  6
ByLayer
 62
  256
370
   -1
100
AcDbMText
 10
432
 20
-278
 30
0
 40
10
 41
11.11111111111111
 71
    4
 72
    1
  1
1:1
  7
standard
210
0
220
0
230
1
 50
0
 73
    2
 44
1
  0
MTEXT
  5
156
100
AcDbEntity
  8
0
  6
ByLayer
 62
  256
370
   -1
100
AcDbMText
 10
742
 20
-158
 30
0
 40
10
 41
13.33333333333333
 71
    4
 72
    1
  1
1.0
  7
standard
210
0
220
0
230
1
 50
0
 73
    2
 44
1
  0
MTEXT
  5
157
100
AcDbEntity
  8
0
  6
ByLayer
 62
  256
370
   -1
100
AcDbMText
 10
732
 20
-238
 30
0
 40
10
 41
32.22222222222269
 71
    4
 72
    1
  1
Michy
  7
standard
210
0
220
0
230
1
 50
0
 73
    2
 44
1
  0
ENDBLK
  5
94
330
92
100
AcDbEntity
  8
0
100
AcDbBlockEnd
  0
ENDSEC
  0
SECTION
  2
ENTITIES
  0
LINE
  5
158
100
AcDbEntity
  8
main
  6
ByLayer
 62
  256
370
   -1
100
AcDbLine
 10
20
 20
20
 11
140
 21
20
  0
LINE
  5
159
100
AcDbEntity
  8
main
  6
ByLayer
 62
  256
370
   -1
100
AcDbLine
 10
140
 20
20
 11
140
 21
30
  0
LINE
  5
15A
100
AcDbEntity
  8
main
  6
ByLayer
 62
  256
370
   -1
100
AcDbLine
 10
85
 20
110
 11
75
 21
110
  0
LINE
  5
15B
100
AcDbEntity
  8
main
  6
ByLayer
 62
  256
370
   -1
100
AcDbLine
 10
20
 20
30
 11
20
 21
20
  0
LINE
  5
15C
100
AcDbEntity
  8
main
  6
ByLayer
 62
  256
370
   -1
100
AcDbLine
 10
65
 20
30
 11
20
 21
30
  0
ARC
  5
15D
100
AcDbEntity
  8
main
  6
ByLayer
 62
  256
370
   -1
100
AcDbCircle
 10
65
 20
40
 40
10
100
AcDbArc
 50
270
 51
0
  0
LINE
  5
15E
100
AcDbEntity
  8
main
  6
ByLayer
 62
  256
370
   -1
100
AcDbLine
 10
140
 20
30
 11
95
 21
30
  0
ARC
  5
15F
100
AcDbEntity
  8
main
  6
ByLayer
 62
  256
370
   -1
100
AcDbCircle
 10
95
 20
40
 40
10
100
AcDbArc
 50
180
 51
270
  0
LINE
  5
160
100
AcDbEntity
  8
main
  6
ByLayer
 62
  256
370
   -1
100
AcDbLine
 10
-20
 20
20
 11
-20
 21
30
  0
LINE
  5
161
100
AcDbEntity
  8
main
  6
ByLayer
 62
  256
370
   -1
100
AcDbLine
 10
-220
 20
30
 11
-220
 21
20
  0
LINE
  5
162
100
AcDbEntity
  8
main
  6
ByLayer
 62
  256
370
   -1
100
AcDbLine
 10
-220
 20
20
 11
-20
 21
20
  0
LINE
  5
163
100
AcDbEntity
  8
main
  6
ByLayer
 62
  256
370
   -1
100
AcDbLine
 10
-20
 20
30
 11
-220
 21
30
  0
LINE
  5
164
100
AcDbEntity
  8
main
  6
ByLayer
 62
  256
370
   -1
100
AcDbLine
 10
-65
 20
50
 11
-110
 21
50
  0
LINE
  5
165
100
AcDbEntity
  8
main
  6
ByLayer
 62
  256
370
   -1
100
AcDbLine
 10
-64.99999999999999
 20
90
 11
-110
 21
90
  0
ARC
  5
166
100
AcDbEntity
  8
main
  6
ByLayer
 62
  256
370
   -1
100
AcDbCircle
 10
-110
 20
70
 40
20
100
AcDbArc
 50
90
 51
270
  0
ARC
  5
167
100
AcDbEntity
  8
main
  6
ByLayer
 62
  256
370
   -1
100
AcDbCircle
 10
-65
 20
70
 40
20
100
AcDbArc
 50
270
 51
89.99999999999996
  0
LINE
  5
168
100
AcDbEntity
  8
main
  6
ByLayer
 62
  256
370
   -1
100
AcDbLine
 10
-220
 20
44.33809621030938
 11
-220
 21
30
  0
LINE
  5
169
100
AcDbEntity
  8
main
  6
ByLayer
 62
  256
370
   -1
100
AcDbLine
 10
-120
 20
110
 11
-215.1449575542753
 21
52.91302546743484
  0
ARC
  5
16A
100
AcDbEntity
  8
main
  6
ByLayer
 62
  256
370
   -1
100
AcDbCircle
 10
-210
 20
44.33809621030938
 40
10
100
AcDbArc
 50
120.9637565320735
 51
180
  0
LINE
  5
16B
100
AcDbEntity
  8
main
  6
ByLayer
 62
  256
370
   -1
100
AcDbLine
 10
-30
 20
110
 11
-120
 21
110
  0
LINE
  5
16C
100
AcDbEntity
  8
main
  6
ByLayer
 62
  256
370
   -1
100
AcDbLine
 10
-20
 20
30
 11
-20
 21
100
  0
ARC
  5
16D
100
AcDbEntity
  8
main
  6
ByLayer
 62
  256
370
   -1
100
AcDbCircle
 10
-30
 20
100
 40
10
100
AcDbArc
 50
0
 51
90
  0
LINE
  5
16E
100
AcDbEntity
  8
main
  6
ByLayer
 62
  256
370
   -1
100
AcDbLine
 10
-20
 20
-75
 11
-220
 21
-75
  0
LINE
  5
16F
100
AcDbEntity
  8
main
  6
ByLayer
 62
  256
370
   -1
100
AcDbLine
 10
-20
 20
-85
 11
-220
 21
-85
  0
LINE
  5
170
100
AcDbEntity
  8
main
  6
ByLayer
 62
  256
370
   -1
100
AcDbLine
 10
-20
 20
-85
 11
-20
 21
-75
  0
LINE
  5
171
100
AcDbEntity
  8
main
  6
ByLayer
 62
  256
370
   -1
100
AcDbLine
 10
-220
 20
-75
 11
-220
 21
-85
  0
LINE
  5
172
100
AcDbEntity
  8
main
  6
ByLayer
 62
  256
370
   -1
100
AcDbLine
 10
-220
 20
-30
 11
-220
 21
-75
  0
ARC
  5
173
100
AcDbEntity
  8
main
  6
ByLayer
 62
  256
370
   -1
100
AcDbCircle
 10
-210
 20
-30
 40
10
100
AcDbArc
 50
90
 51
180
  0
LINE
  5
174
100
AcDbEntity
  8
main
  6
ByLayer
 62
  256
370
   -1
100
AcDbLine
 10
-30
 20
-20
 11
-210
 21
-20
  0
LINE
  5
175
100
AcDbEntity
  8
main
  6
ByLayer
 62
  256
370
   -1
100
AcDbLine
 10
-20
 20
-75
 11
-20
 21
-30
  0
ARC
  5
176
100
AcDbEntity
  8
main
  6
ByLayer
 62
  256
370
   -1
100
AcDbCircle
 10
-30
 20
-30
 40
10
100
AcDbArc
 50
0
 51
90
  0
LINE
  5
177
100
AcDbEntity
  8
main
  6
ByLayer
 62
  256
370
   -1
100
AcDbLine
 10
-20
 20
-130
 11
-20
 21
-85
  0
ARC
  5
178
100
AcDbEntity
  8
main
  6
ByLayer
 62
  256
370
   -1
100
AcDbCircle
 10
-30
 20
-130
 40
10
100
AcDbArc
 50
270
 51
0
  0
LINE
  5
179
100
AcDbEntity
  8
main
  6
ByLayer
 62
  256
370
   -1
100
AcDbLine
 10
-210
 20
-140
 11
-30
 21
-140
  0
LINE
  5
17A
100
AcDbEntity
  8
main
  6
ByLayer
 62
  256
370
   -1
100
AcDbLine
 10
-220
 20
-85
 11
-220
 21
-130
  0
ARC
  5
17B
100
AcDbEntity
  8
main
  6
ByLayer
 62
  256
370
   -1
100
AcDbCircle
 10
-210
 20
-130
 40
10
100
AcDbArc
 50
180
 51
270
  0
CIRCLE
  5
17C
100
AcDbEntity
  8
main
  6
ByLayer
 62
  256
370
   -1
100
AcDbCircle
 10
-40
 20
-40
 40
6
  0
CIRCLE
  5
17D
100
AcDbEntity
  8
main
  6
ByLayer
 62
  256
370
   -1
100
AcDbCircle
 10
-200
 20
-40
 40
6
  0
CIRCLE
  5
17E
100
AcDbEntity
  8
main
  6
ByLayer
 62
  256
370
   -1
100
AcDbCircle
 10
-40
 20
-120
 40
6
  0
CIRCLE
  5
17F
100
AcDbEntity
  8
main
  6
ByLayer
 62
  256
370
   -1
100
AcDbCircle
 10
-200
 20
-120
 40
6
  0
LINE
  5
180
100
AcDbEntity
  8
main
  6
ByLayer
 62
  256
370
   -1
100
AcDbLine
 10
-206.5700282971498
 20
-75
 11
-206.5700282971498
 21
-85
  0
LINE
  5
181
100
AcDbEntity
  8
main
  6
ByLayer
 62
  256
370
   -1
100
AcDbLine
 10
-120
 20
-75
 11
-120
 21
-85
  0
LINE
  5
182
100
AcDbEntity
  8
main
  6
ByLayer
 62
  256
370
   -1
100
AcDbLine
 10
75
 20
44.33809428672923
 11
85
 21
44.33809428672923
  0
LINE
  5
183
100
AcDbEntity
  8
main
  6
ByLayer
 62
  256
370
   -1
100
AcDbLine
 10
75
 20
58.05798302171008
 11
85
 21
58.05798302171009
  0
LINE
  5
184
100
AcDbEntity
  8
main
  6
ByLayer
 62
  256
370
   -1
100
AcDbLine
 10
75
 20
44.33809428672923
 11
75
 21
40
  0
LINE
  5
185
100
AcDbEntity
  8
main
  6
ByLayer
 62
  256
370
   -1
100
AcDbLine
 10
75
 20
110
 11
75
 21
58.05798302171008
  0
LINE
  5
186
100
AcDbEntity
  8
main
  6
ByLayer
 62
  256
370
   -1
100
AcDbLine
 10
75
 20
58.05798302171008
 11
75
 21
44.33809428672923
  0
LINE
  5
187
100
AcDbEntity
  8
main
  6
ByLayer
 62
  256
370
   -1
100
AcDbLine
 10
85
 20
58.05798302171009
 11
85
 21
110
  0
LINE
  5
188
100
AcDbEntity
  8
main
  6
ByLayer
 62
  256
370
   -1
100
AcDbLine
 10
85
 20
40
 11
85
 21
44.33809428672923
  0
LINE
  5
189
100
AcDbEntity
  8
main
  6
ByLayer
 62
  256
370
   -1
100
AcDbLine
 10
85
 20
44.33809428672923
 11
85
 21
58.05798302171009
  0
DIMENSION
  5
18A
100
AcDbEntity
  8
Measures
  6
ByLayer
 62
  256
370
   -1
100
AcDbDimension
  2
*D1
 10
140
 20
0
 30
0
 11
80
 21
1.875
 31
0
 70
   32
 71
    5
  3
Standard
 53
0
210
0
220
0
230
1
100
AcDbAlignedDimension
 13
20
 23
20
 33
0
 14
140
 24
20
 34
0
100
AcDbRotatedDimension
  0
DIMENSION
  5
18B
100
AcDbEntity
  8
Measures
  6
ByLayer
 62
  256
370
   -1
100
AcDbDimension
  2
*D2
 10
10
 20
30
 30
0
 11
8.125
 21
25
 31
0
 70
   32
 71
    5
  3
Standard
 53
0
210
0
220
0
230
1
100
AcDbAlignedDimension
 13
20
 23
20
 33
0
 14
20
 24
30
 34
0
 50
90
100
AcDbRotatedDimension
  0
DIMENSION
  5
18C
100
AcDbEntity
  8
Measures
  6
ByLayer
 62
  256
370
   -1
100
AcDbDimension
  2
*D3
 10
180
 20
110
 30
0
 11
178.125
 21
65
 31
0
 70
   32
 71
    5
  3
Standard
 53
0
210
0
220
0
230
1
100
AcDbAlignedDimension
 13
140
 23
20
 33
0
 14
85
 24
110
 34
0
 50
90
100
AcDbRotatedDimension
  0
DIMENSION
  5
18D
100
AcDbEntity
  8
Measures
  6
ByLayer
 62
  256
370
   -1
100
AcDbDimension
  2
*D4
 10
95
 20
40
 30
0
 11
82.96936379231221
 21
30.62101422176177
 31
0
 70
   36
 71
    5
  3
Standard
 53
0
210
0
220
0
230
1
100
AcDbRadialDimension
 15
87.92893218813452
 25
32.92893218813452
 35
0
 40
0
  0
DIMENSION
  5
18E
100
AcDbEntity
  8
Measures
  6
ByLayer
 62
  256
370
   -1
100
AcDbDimension
  2
*D5
 10
-20
 20
0
 30
0
 11
-120
 21
1.875
 31
0
 70
   32
 71
    5
  3
Standard
 53
0
210
0
220
0
230
1
100
AcDbAlignedDimension
 13
-220
 23
20
 33
0
 14
-20
 24
20
 34
0
100
AcDbRotatedDimension
  0
DIMENSION
  5
18F
100
AcDbEntity
  8
Measures
  6
ByLayer
 62
  256
370
   -1
100
AcDbDimension
  2
*D6
 10
-20
 20
130
 30
0
 11
-70
 21
131.875
 31
0
 70
   32
 71
    5
  3
Standard
 53
0
210
0
220
0
230
1
100
AcDbAlignedDimension
 13
-120
 23
110
 33
0
 14
-20
 24
100
 34
0
100
AcDbRotatedDimension
  0
DIMENSION
  5
190
100
AcDbEntity
  8
Measures
  6
ByLayer
 62
  256
370
   -1
100
AcDbDimension
  2
*D7
 10
-64.99999923594113
 20
40
 30
0
 11
-42.49999961797057
 21
41.875
 31
0
 70
   32
 71
    5
  3
Standard
 53
0
210
0
220
0
230
1
100
AcDbAlignedDimension
 13
-20
 23
40
 33
0
 14
-64.99999923594113
 24
50.00000000000001
 34
0
100
AcDbRotatedDimension
  0
DIMENSION
  5
191
100
AcDbEntity
  8
Measures
  6
ByLayer
 62
  256
370
   -1
100
AcDbDimension
  2
*D8
 10
-110
 20
40
 30
0
 11
-87.5
 21
41.875
 31
0
 70
   32
 71
    5
  3
Standard
 53
0
210
0
220
0
230
1
100
AcDbAlignedDimension
 13
-65
 23
50
 33
0
 14
-110
 24
50
 34
0
100
AcDbRotatedDimension
  0
DIMENSION
  5
192
100
AcDbEntity
  8
Measures
  6
ByLayer
 62
  256
370
   -1
100
AcDbDimension
  2
*D9
 10
-240
 20
50
 30
0
 11
-241.875
 21
40
 31
0
 70
   32
 71
    5
  3
Standard
 53
0
210
0
220
0
230
1
100
AcDbAlignedDimension
 13
-220
 23
30
 33
0
 14
-220
 24
50
 34
0
 50
90
100
AcDbRotatedDimension
  0
DIMENSION
  5
193
100
AcDbEntity
  8
Measures
  6
ByLayer
 62
  256
370
   -1
100
AcDbDimension
  2
*D10
 10
-240
 20
110
 30
0
 11
-241.875
 21
80
 31
0
 70
   32
 71
    5
  3
Standard
 53
0
210
0
220
0
230
1
100
AcDbAlignedDimension
 13
-220
 23
50
 33
0
 14
-120
 24
110
 34
0
 50
90
100
AcDbRotatedDimension
  0
DIMENSION
  5
194
100
AcDbEntity
  8
Measures
  6
ByLayer
 62
  256
370
   -1
100
AcDbDimension
  2
*D11
 10
-110
 20
70
 30
0
 11
-118.9372798029375
 21
65.13783435864175
 31
0
 70
   36
 71
    5
  3
Standard
 53
0
210
0
220
0
230
1
100
AcDbRadialDimension
 15
-125.5061107831458
 25
57.36827294544366
 35
0
 40
0
  0
DIMENSION
  5
195
100
AcDbEntity
  8
Measures
  6
ByLayer
 62
  256
370
   -1
100
AcDbDimension
  2
*D12
 10
-65
 20
70
 30
0
 11
-55.63943418869925
 21
66.01309233963116
 31
0
 70
   36
 71
    5
  3
Standard
 53
0
210
0
220
0
230
1
100
AcDbRadialDimension
 15
-48.35899411324313
 25
58.90599607549541
 35
0
 40
0
  0
DIMENSION
  5
196
100
AcDbEntity
  8
Measures
  6
ByLayer
 62
  256
370
   -1
100
AcDbDimension
  2
*D13
 10
-20.00000000000001
 20
-170
 30
0
 11
-120
 21
-168.125
 31
0
 70
   32
 71
    5
  3
Standard
 53
0
210
0
220
0
230
1
100
AcDbAlignedDimension
 13
-220
 23
-100.4652203267377
 33
0
 14
-20
 24
-99.92508473358316
 34
0
100
AcDbRotatedDimension
  0
DIMENSION
  5
197
100
AcDbEntity
  8
Measures
  6
ByLayer
 62
  256
370
   -1
100
AcDbDimension
  2
*D14
 10
-220
 20
-56.28150000000056
 30
0
 11
-210
 21
-54.40650000000056
 31
0
 70
   32
 71
    5
  3
Standard
 53
0
210
0
220
0
230
1
100
AcDbAlignedDimension
 13
-200
 23
-40
 33
0
 14
-220
 24
-40
 34
0
100
AcDbRotatedDimension
  0
DIMENSION
  5
198
100
AcDbEntity
  8
Measures
  6
ByLayer
 62
  256
370
   -1
100
AcDbDimension
  2
*D15
 10
-182.4885000000018
 20
-20
 30
0
 11
-184.3635000000018
 21
-30
 31
0
 70
   32
 71
    5
  3
Standard
 53
0
210
0
220
0
230
1
100
AcDbAlignedDimension
 13
-200
 23
-40
 33
0
 14
-200
 24
-20
 34
0
 50
90
100
AcDbRotatedDimension
  0
DIMENSION
  5
199
100
AcDbEntity
  8
Measures
  6
ByLayer
 62
  256
370
   -1
100
AcDbDimension
  2
*D16
 10
-160
 20
-20
 30
0
 11
-161.875
 21
-47.5
 31
0
 70
   32
 71
    5
  3
Standard
 53
0
210
0
220
0
230
1
100
AcDbAlignedDimension
 13
-158.8957500000016
 23
-75
 33
0
 14
-160.3170000000016
 24
-20
 34
0
 50
90
100
AcDbRotatedDimension
  0
DIMENSION
  5
19A
100
AcDbEntity
  8
Measures
  6
ByLayer
 62
  256
370
   -1
100
AcDbDimension
  2
*D17
 10
-160
 20
-140
 30
0
 11
-161.875
 21
-112.5
 31
0
 70
   32
 71
    5
  3
Standard
 53
0
210
0
220
0
230
1
100
AcDbAlignedDimension
 13
-160.0327500000016
 23
-85
 33
0
 14
-160.0327500000016
 24
-140
 34
0
 50
90
100
AcDbRotatedDimension
  0
DIMENSION
  5
19B
100
AcDbEntity
  8
Measures
  6
ByLayer
 62
  256
370
   -1
100
AcDbDimension
  2
*D18
 10
-240
 20
-75
 30
0
 11
-241.875
 21
-80
 31
0
 70
   32
 71
    5
  3
Standard
 53
0
210
0
220
0
230
1
100
AcDbAlignedDimension
 13
-220
 23
-85
 33
0
 14
-220
 24
-75
 34
0
 50
90
100
AcDbRotatedDimension
  0
DIMENSION
  5
19C
100
AcDbEntity
  8
Measures
  6
ByLayer
 62
  256
370
   -1
100
AcDbDimension
  2
*D19
 10
-140
 20
50.00000000000001
 30
0
 11
-141.875
 21
70
 31
0
 70
   32
 71
    5
  3
Standard
 53
0
210
0
220
0
230
1
100
AcDbAlignedDimension
 13
-100
 23
90
 33
0
 14
-100
 24
50
 34
0
 50
90
100
AcDbRotatedDimension
  0
INSERT
  5
19D
100
AcDbEntity
  8
main
  6
ByLayer
 62
  256
370
   -1
100
AcDbBlockReference
  2
A4-frame-large-no-layers
 10
-220
 20
-107.5
 30
0
 41
1
 42
1
 43
0
 50
0
 70
    1
 71
    1
 44
0
 45
0
  0
ENDSEC
  0
SECTION
  2
OBJECTS
  0
DICTIONARY
  5
C
330
0
100
AcDbDictionary
281
    1
  3
ACAD_GROUP
350
D
  0
DICTIONARY
  5
D
330
C
100
AcDbDictionary
281
    1
  0
ENDSEC
  0
EOF
